<?xml version="1.0" encoding="utf-8"?>
<!-- Generator: Adobe Illustrator 23.0.2, SVG Export Plug-In . SVG Version: 6.00 Build 0)  -->
<svg version="1.1" id="Layer_1" xmlns="http://www.w3.org/2000/svg" xmlns:xlink="http://www.w3.org/1999/xlink" x="0px" y="0px"
	 viewBox="0 0 180 34" style="enable-background:new 0 0 180 34;" xml:space="preserve">
<style type="text/css">
	.st0{fill:#00AF9A;}
	.st1{fill:#1D252C;}
</style>
<g>
	<rect x="8" y="11" class="st0" width="6" height="6"/>
	<g>
		<polygon class="st1" points="18,0 0,0 0,11 5.6,11 5.6,5.3 18,5.3 		"/>
		<rect y="17" class="st1" width="5.6" height="10"/>
		<rect x="142.3" y="0.2" class="st1" width="5.2" height="4.8"/>
		<path class="st1" d="M51,11.5L51,11.5C51.1,11.5,51,11.5,51,11.5L51,11.5z"/>
		<path class="st1" d="M44.5,8.9V7h-4.9v20h5.2v-9.9c0-1.6,0.2-3.3,1.3-4.4c1.2-1.2,2.8-1.4,4.9-1.2v-5C48.6,6.1,46.1,6.9,44.5,8.9z
			"/>
		<path class="st1" d="M71.8,20.2C71.8,20.2,71.8,20.3,71.8,20.2L71.8,20.2L71.8,20.2z"/>
		<path class="st1" d="M62.1,11.2c1.9,0,3.5,1.1,4.2,2.5h5.5c-1.2-4.6-4.9-7.3-9.7-7.3C56,6.4,51.7,11.2,51.7,17S56,27.5,62.1,27.5
			c4.9,0,8.4-2.7,9.7-7.2h-5.5c-0.6,1.4-2.3,2.6-4.2,2.6c-2.9,0-5.2-2.6-5.2-5.8C56.9,13.9,59.2,11.2,62.1,11.2z"/>
		<path class="st1" d="M83.9,6.4c-5.7,0-10.3,4.8-10.3,10.6s4.6,10.5,10.3,10.5c4.8,0,8.2-2.5,9.5-6.3h-5.7
			c-0.9,1.2-2.4,1.8-3.9,1.8c-2.4,0-4.4-1.5-5-4H94C94.7,11,89.8,6.4,83.9,6.4z M78.9,14.7c0.7-2.3,2.6-3.8,5-3.8
			c2.5,0,4.4,1.5,5,3.8H78.9z"/>
		<rect x="142.3" y="7" class="st1" width="5.2" height="20"/>
		<path class="st1" d="M160.5,6.4c-2.2,0-3.9,1-5.2,2.5V7h-4.9v20h5.2V15.2c0-2.3,1.6-4,3.9-4c3.3,0,3.7,2.8,3.7,4V27h5.2V15.3
			C168.4,10,165.2,6.4,160.5,6.4z"/>
		<path class="st1" d="M180.1,11.5V6.9h-3.9V2H171v16.6c0,5.5,3.1,9,9,8.4h0.1v-4.7c-2.6,0.2-3.9-0.9-3.9-3.7v-7.1H180.1z"/>
		<path class="st1" d="M26.7,6.4c-5.8,0-10.5,4.7-10.5,10.5c0,5.8,4.7,10.5,10.5,10.5s10.5-4.7,10.5-10.5
			C37.2,11.1,32.5,6.4,26.7,6.4z M26.7,22.7c-3.1,0-5.6-2.6-5.6-5.8c0-3.2,2.5-5.8,5.6-5.8c3.1,0,5.6,2.6,5.6,5.8
			C32.3,20.1,29.8,22.7,26.7,22.7z"/>
		<path class="st1" d="M129.6,6.4c-5.8,0-10.5,4.7-10.5,10.5c0,5.8,4.7,10.5,10.5,10.5c5.8,0,10.5-4.7,10.5-10.5
			C140.2,11.1,135.5,6.4,129.6,6.4z M129.6,22.7c-3.1,0-5.6-2.6-5.6-5.8c0-3.2,2.5-5.8,5.6-5.8c3.1,0,5.6,2.6,5.6,5.8
			C135.2,20.1,132.8,22.7,129.6,22.7z"/>
		<path class="st1" d="M107.5,6.4c-2.4,0-4.5,1-6.1,2.6V7h-5v27h5.2v-9c1.5,1.5,3.6,2.4,5.9,2.4c5.3,0,9.6-4.5,9.6-10.5
			S112.8,6.4,107.5,6.4z M106.8,22.6c-2.9,0-5.2-2.5-5.2-5.7c0-3.2,2.3-5.7,5.2-5.7c2.8,0,5.1,2.4,5.2,5.7
			C112,20.1,109.7,22.6,106.8,22.6z"/>
	</g>
</g>
</svg>
