<svg data-name="Component 4" xmlns="http://www.w3.org/2000/svg" width="160" height="38.889"><path data-name="Union 1" d="M58.7 33.992h2.79a6.053 6.053 0 005.21 2.629c3.906 0 6.6-2.539 6.7-6.256v-.907l-.651.634a9.083 9.083 0 01-5.953 2.176 8.9 8.9 0 01-6.6-2.72 9.627 9.627 0 01-2.7-6.528A8.92 8.92 0 0160 16.583a9.263 9.263 0 0116 6.165V29.1c0 6.166-3.442 9.793-9.116 9.793-3.907-.004-6.791-1.818-8.184-4.901zm1.489-10.971a6.516 6.516 0 006.6 6.8 6.684 6.684 0 006.6-6.8 6.608 6.608 0 10-13.209 0zm67.07 15.505V23.021a8.92 8.92 0 012.512-6.438 9.177 9.177 0 016.6-2.9 8.956 8.956 0 016.7 2.721 8.805 8.805 0 012.7 6.347 9.717 9.717 0 01-2.512 6.528 8.7 8.7 0 01-6.7 2.992 9.126 9.126 0 01-5.953-2.086l-.651-.544v8.886zm2.7-15.505a6.517 6.517 0 006.6 6.8 6.684 6.684 0 006.6-6.8 6.608 6.608 0 10-13.21 0zM40.837 29.64a9.676 9.676 0 01-2.7-6.619 8.495 8.495 0 012.6-6.438 9.164 9.164 0 016.7-2.992 9.55 9.55 0 016.796 2.809 6.264 6.264 0 011.023 1.178l.093.091-2.512 2.448-.093-.181a5.72 5.72 0 00-5.116-2.992 5.845 5.845 0 00-5.86 6.076 5.845 5.845 0 005.86 6.075 5.75 5.75 0 005.023-2.995l.186-.091 2.512 2.448-.093.091a7.987 7.987 0 01-.744.907 9.575 9.575 0 01-6.884 2.992 9.242 9.242 0 01-6.791-2.807zm67.349-4.9V14.226h2.791v10.88c.186 2.629 3.069 4.534 5.581 4.534s5.4-1.9 5.582-4.534v-10.88h2.976v10.518c0 4.08-4 7.616-8.465 7.616s-8.465-3.536-8.465-7.616zm-85.4 4.715a9.68 9.68 0 01-2.7-6.62 9.213 9.213 0 012.6-6.528 9.166 9.166 0 016.7-2.992 9.553 9.553 0 016.791 2.811 3.979 3.979 0 01.558.635l.093.091-2.502 2.448-.093-.091a5.907 5.907 0 00-4.744-2.358 5.668 5.668 0 00-5.768 5.894 5.845 5.845 0 005.86 6.076 5.616 5.616 0 004.652-2.358l.093-.091 2.512 2.448-.093.091a1.254 1.254 0 01-.279.362 9.576 9.576 0 01-6.884 2.992 9.242 9.242 0 01-6.791-2.806zm67.256-.182a9.628 9.628 0 01-2.7-6.528 8.922 8.922 0 012.512-6.438 9.276 9.276 0 0113.3-.181 8.807 8.807 0 012.7 6.347 9.717 9.717 0 01-2.512 6.528A8.7 8.7 0 0196.651 32a8.892 8.892 0 01-6.604-2.723zm0-6.619a6.607 6.607 0 1013.209 0 6.607 6.607 0 10-13.209 0zm-76.461 9.253v-10.7c0-2.357-2.6-4.171-4.93-4.171-2.232 0-4.93 1.814-4.93 4.171v10.7H0V21.3c0-4.172 4.093-7.889 8.744-7.889 4.559 0 8.652 3.717 8.559 7.889v10.607zm65.119-.182v-8.886a8.646 8.646 0 012.512-6.256 9.737 9.737 0 015.86-2.9v2.629a6.458 6.458 0 00-5.489 6.528v8.886zm70.791-16.593a7.664 7.664 0 01-5-4.559l-.026.025a7.586 7.586 0 01-.187-5.168 8.235 8.235 0 0110.14-5.077 7.614 7.614 0 014.28 3.174c-.094.091-.187.091-.28.181a2.876 2.876 0 01-2.046.272c-2.7-.181-3.629 1.451-3.721 1.632-1.116 2.086-1.86 2.63-4 2.721a3.379 3.379 0 00-2.977 1.627 2.988 2.988 0 00-.985.452c.147-.058.306-.117.426-.175a4.651 4.651 0 012.514.111 4.675 4.675 0 002.7.07c1.395-.362 2.139-1.451 3.162-1.723a4.443 4.443 0 012.966.445 5.34 5.34 0 002.244.552 2.025 2.025 0 001.116-.272c-.093.181-.093.454-.186.635a8.25 8.25 0 01-10.139 5.078zm-1.954-5.168a3.77 3.77 0 00-1.854-.007l.086-.084A3.885 3.885 0 01148.93 8.6a2.612 2.612 0 00-1.3.907 3.8 3.8 0 013.256-.725 2.784 2.784 0 00.837.181 5.53 5.53 0 01-1.86 1.089 2.935 2.935 0 01-.792.1 8.241 8.241 0 01-1.536-.188zm-1.86 0h.006l-.007.007a.026.026 0 01-.001-.012zm5.488-1.718h-.187a5.669 5.669 0 001.766-1.546 4.029 4.029 0 013.349-1.542 4.815 4.815 0 00-1.488 1.269 4.18 4.18 0 01-3.243 1.821q-.099 0-.199-.007zm3.906-.725l.373-.363a3.734 3.734 0 013.813-.453 6.47 6.47 0 01.744.272v.272a2.63 2.63 0 01-1.767.816 26.463 26.463 0 00-3.164-.549z" fill="#fff"/></svg>