<?xml version="1.0" encoding="utf-8"?>
<!-- Generator: Adobe Illustrator 26.2.1, SVG Export Plug-In . SVG Version: 6.00 Build 0)  -->
<svg version="1.1" id="Logo" xmlns="http://www.w3.org/2000/svg" xmlns:xlink="http://www.w3.org/1999/xlink" x="0px" y="0px"
	 viewBox="0 0 144 84" style="enable-background:new 0 0 144 84;" xml:space="preserve">
<style type="text/css">
	.st0{fill-rule:evenodd;clip-rule:evenodd;fill:#FF8200;}
	.st1{fill-rule:evenodd;clip-rule:evenodd;fill:#FFFFFF;}
</style>
<path class="st0" d="M142.6,60.8l-21.8,21.8c-0.9,0.9-2.1,1.4-3.4,1.4H2.4C1.1,84,0,82.9,0,81.6v-55c0-1.3,0.5-2.5,1.4-3.4L23.2,1.4
	C24.1,0.5,25.3,0,26.6,0h115c1.3,0,2.4,1.1,2.4,2.4v55C144,58.7,143.5,59.9,142.6,60.8z"/>
<path class="st1" d="M122.2,33h-8.1c-0.5,0-0.8,0.4-0.8,0.8v25.3c0,0.5-0.4,0.8-0.8,0.8h-7.3c-0.5,0-0.8-0.4-0.8-0.8V33.8
	c0-0.5-0.4-0.8-0.8-0.8h-8c-0.5,0-0.8-0.4-0.8-0.8v-7.3c0-0.5,0.4-0.8,0.8-0.8h26.8c0.5,0,0.8,0.4,0.8,0.8v7.3
	C123,32.6,122.6,33,122.2,33z M90.6,60h-8.2c-0.3,0-0.5-0.1-0.8-0.2c-0.3-0.2-0.5-0.4-0.6-0.6l-5.5-9.5c-0.1-0.1-0.2-0.2-0.4-0.2
	h-5.9c-0.2,0-0.3,0.1-0.3,0.3V59c0,0.7-0.3,1-1,1h-7c-0.7,0-1-0.3-1-1V25c0-0.7,0.3-1,1-1h23c0.8,0,1.6,0.2,2.3,0.5
	c0.7,0.3,1.4,0.8,1.9,1.3c0.5,0.5,1,1.2,1.3,1.9c0.3,0.7,0.5,1.5,0.5,2.3v13.5c0,1.3-0.4,2.5-1.2,3.5c-0.8,1-1.8,1.8-3,2.1l-0.2,0.1
	c-0.2,0.1-0.3,0.2-0.2,0.3l0.1,0.1l5.5,9.5c0.1,0.2,0.2,0.4,0.1,0.6C91.1,59.9,90.9,60,90.6,60z M81,32.3H69v9h12V32.3z M53.2,60
	h-7.3c-0.5,0-0.8-0.4-0.8-0.8V47.3c0-0.5-0.4-0.8-0.8-0.8H33.8c-0.5,0-0.8,0.4-0.8,0.8v11.8c0,0.5-0.4,0.8-0.8,0.8h-7.3
	c-0.5,0-0.8-0.4-0.8-0.8V24.8c0-0.5,0.4-0.8,0.8-0.8h7.3c0.5,0,0.8,0.4,0.8,0.8v11.8c0,0.5,0.4,0.8,0.8,0.8h10.3
	c0.5,0,0.8-0.4,0.8-0.8V24.8c0-0.5,0.4-0.8,0.8-0.8h7.3c0.5,0,0.8,0.4,0.8,0.8v34.3C54,59.6,53.6,60,53.2,60z"/>
</svg>
