<?xml version="1.0" encoding="UTF-8"?>
<svg id="Layer_1" xmlns="http://www.w3.org/2000/svg" version="1.1" xmlns:xlink="http://www.w3.org/1999/xlink" viewBox="0 0 1920 1080">
  <!-- Generator: Adobe Illustrator 29.8.1, SVG Export Plug-In . SVG Version: 2.1.1 Build 2)  -->
  <defs>
    <style>
      .st0 {
        fill: #fff;
      }
    </style>
  </defs>
  <g>
    <path class="st0" d="M294.4,880.2c.9.1,1.3.6,1.3,1.3v48.9h.7l3.3-2h2v1.3h-2v.7h102.4c4.5,0,9,3.5,13.2,10.6,1.3,0,2,.4,2,1.3v1.3l-1.3,2c1.8,4.5,2.6,9.8,2.6,15.9v28.4c0,12.3-4.4,20-13.2,23.1h-23.8c-.9,0-1.3-.4-1.3-1.3v-48.9h-79.9c-.4,0-.7.2-.7.7l-1.3-.7h-23.1c-5,0-11.6-4.8-19.8-14.5v-1.3l2-2.6v-32.4c0-18.7,5.5-29.3,16.5-31.7h20.5ZM257.4,946.9v1.3c.1.9.6,1.3,1.3,1.3h2c4.5-2.3,6.9-4.1,7.3-5.3v-.7l-2.6-.7c-3.4,0-6,1.3-7.9,4ZM281.2,976.6c1.5.9,2.8,1.3,4,1.3h58.1c3.9,0,8.3-.2,13.2-.7,1.2.4,4.5.7,9.9.7h5.9c.9.1,1.3.6,1.3,1.3v32.4c0,.9-.4,1.3-1.3,1.3h-26.4l-2,1.3h-.7l-2-1.3h-81.2c-.9,0-1.3-.4-1.3-1.3v-32.4c.1-.9.6-1.3,1.3-1.3h17.2c1.2,0,2.5-.4,4-1.3ZM263.4,944.2l1.3.7c0,1.2-1.1,2.3-3.3,3.3-.9-.4-1.5-.7-2-.7v-1.3c.4-1.3,1.8-2,4-2ZM262.7,985.2h1.3c.9,0,1.3-.4,1.3-1.3v-.7h-.7c-.7,0-1.3.7-2,2ZM271.3,942.9l13.9-6.6c1.1-1.8,2.6-2.6,4.6-2.6v-1.3h-1.3c-11.4,4.4-17.2,7.9-17.2,10.6ZM281.8,936.3v.7c0,.9-.4,1.3-1.3,1.3h-1.3v-1.3c.2,0,1.1-.2,2.6-.7ZM407.3,878.2c.9.1,1.3.6,1.3,1.3v.7h-2v.7h1.3c.9-.4,1.5-.7,2-.7.9.4,1.5.7,2,.7l-.7-1.3c.1-.9.6-1.3,1.3-1.3h3.3v1.3h-1.3v.7c2.2,0,3.3.4,3.3,1.3v32.4c0,.9-.4,1.3-1.3,1.3h-80.6l-4,.7c-.7-.4-1.8-.7-3.3-.7h-1.3v2h-.7c-.9,0-1.3-.7-1.3-2h-21.8c-.9,0-1.3-.4-1.3-1.3v-32.4c.1-.9.6-1.3,1.3-1.3h101l2.6-2ZM331.4,932.3v1.3h.7c.9,0,1.3-.4,1.3-1.3v-.7c-.9.4-1.5.7-2,.7ZM355.2,903.3h.7c1.5-1.3,5.4-2.4,11.9-3.3-.4-1.3-1.8-2-4-2s-4.4,1.8-8.6,5.3ZM370.3,894.7v1.3h1.3c3.2,0,5-.7,5.3-2-.4,0-.7-.2-.7-.7-1,.4-2.9.9-5.9,1.3ZM386.2,887.4v2.6c.4,0,1.1.2,2,.7,4.4-2.9,6.6-4.8,6.6-5.9-5.7.4-8.6,1.3-8.6,2.6ZM390.8,886.1h1.3v.7c-.4,1.3-1.8,2-4,2s-1.3-.4-1.3-1.3c1.5-.9,2.8-1.3,4-1.3ZM413.9,942.3c.4.9.7,1.5.7,2h1.3c-.4-.9-.7-1.5-.7-2h-1.3Z"/>
    <path class="st0" d="M461.3,878.2h2.6c.7,0,1.3.7,2,2v10.6c0,1.8.2,2.6.7,2.6l-.7,4.6v61.4l2,2.6v.7c0,.9-.7,1.3-2,1.3v7.9l1.3-.7.7,1.3v2c-1.3,0-2,.4-2,1.3v4.6h2v.7l-2,2.6v27.7c0,.9-.4,1.3-1.3,1.3h-31.7c-.9,0-1.3-.4-1.3-1.3v-22.5c0-1.5-.2-2.6-.7-3.3l.7-4v-36.3h-2v-1.3c0-.9.7-1.3,2-1.3v-5.9c-1.3,0-2-.4-2-1.3s.7-1.3,2-1.3v-52.8c.1-.9.6-1.3,1.3-1.3h4.6c2.1,0,4.3-.2,6.6-.7,1.6.4,3.6.7,5.9.7v.7c-.4.9-.7,1.5-.7,2h.7c.7,0,2.5-.4,5.3-1.3v-1.3h-2v-1.3h2c.4,0,.7.2.7.7,1.6-.9,3.4-1.3,5.3-1.3ZM431.5,935.7h2.6v-1.3h-1.3c-.9.1-1.3.6-1.3,1.3ZM438.8,932.3v1.3h1.3c.7,0,1.3-.7,2-2l-1.3-.7h-.7c-.9.1-1.3.6-1.3,1.3ZM438.8,939.6l9.9,7.9h.7l4.6-5.3c-1.5-2.2-2.3-3.3-2.6-3.3-1.3,0-3.1.4-5.3,1.3l-4-2h-2c-.9.1-1.3.6-1.3,1.3ZM441.5,880.8v1.3h4v-.7l-3.3-.7h-.7ZM450,940.3c1.8.7,2.6,1.3,2.6,2-.3,1.2-1.4,2.3-3.3,3.3h-.7c-.7,0-1.3-.7-2-2,0-.6,1.1-1.7,3.3-3.3ZM451.4,903.9v.7l3.3.7-.7-1.3v-1.3c.4,0,1.1-.2,2-.7l1.3,2h-2v.7h.7l3.3-.7,2.6,1.3c1.8-.7,2.6-1.3,2.6-2-2.1-.7-5-1.4-8.6-2-3.1,1-4.6,1.9-4.6,2.6ZM456.6,894.7v-.7c-2.2.6-3.3,1.2-3.3,2,.4,0,.7.2.7.7l11.2-1.3v-1.3c0-.9-.4-1.3-1.3-1.3h-2c-1.8,1.3-3.6,2-5.3,2ZM462.6,893.4h1.3v.7c0,.9-.4,1.3-1.3,1.3h-1.3v-.7c.1-.9.6-1.3,1.3-1.3ZM461.3,981.9v.7h2.6c.9,0,1.3-.4,1.3-1.3v-.7c0-.9-.4-1.3-1.3-1.3s-1.5.9-2.6,2.6ZM473.2,878.2c.9.1,1.3.6,1.3,1.3-.4,0-.7.2-.7.7h25.1c.4,0,2.2-.4,5.3-1.3l2,1.3h62.1c6.6,0,10.8,4.6,12.5,13.9v12.5l1.3,2-1.3,2v5.3c1.3,0,2,.4,2,1.3l-2,2.6v25.8c0,9.6-4.2,15.3-12.5,17.2h-19.8c-2.5,0-4,.2-4.6.7-2.3-.4-4.3-.7-5.9-.7h-29.7v.7h2.6v1.3h-4.6v-2h-31.7l-3.3.7c0-.4.4-2.1,1.3-5.3v-9.9c-1.3,0-2-.4-2-1.3.9-.4,1.5-.7,2-.7v-11.2l-1.3-2,2.6-2.6h64.1c3.1,0,4.6-2,4.6-5.9v-5.3c-1.5-2.6-3.5-4-5.9-4h-62.7c-.9,0-1.3-.4-1.3-1.3v-31.7l-.7-3.3,1.3-.7ZM488.3,886.1c.1.9.6,1.3,1.3,1.3h2.6c2.3,0,3.6-.7,4-2l-1.3-2c-4.4.7-6.6,1.5-6.6,2.6ZM504.9,898.7l1.3.7c.9,0,1.3-.4,1.3-1.3v-.7h-1.3c-.9.1-1.3.6-1.3,1.3ZM506.2,905.3c3.4,1.3,5.8,2,7.3,2h.7c.9,0,1.3-.4,1.3-1.3,0-1.3-2.4-2-7.3-2h-.7c-.9.1-1.3.6-1.3,1.3ZM520,901.3v.7c0,.7.7,1.3,2,2,2.2-1.3,4-2,5.3-2v-.7c-1.5,0-3-.7-4.6-2h-.7c-.7,0-1.3.7-2,2ZM539.2,908.6v.7c.9,0,1.3.2,1.3.7,2.2-.6,3.3-1.2,3.3-2v-.7h-3.3c-.9.1-1.3.6-1.3,1.3ZM539.2,957.4v1.3c2.2,0,3.3.9,3.3,2.6h.7c.7,0,1.3-.7,2-2h-2l.7-1.3c0-.9-.4-1.3-1.3-1.3l-3.3.7ZM539.9,911.9c.1.9.6,1.3,1.3,1.3h.7v-1.3h-2ZM549.1,904.6v1.3h.7c.7,0,1.3-.7,2-2l-1.3-.7c-.9.1-1.3.6-1.3,1.3ZM562.3,941.6c0,.7.7,1.3,2,2l4.6-4c1.8,0,2.6-.7,2.6-2-.4,0-1.1-.2-2-.7l-7.3,4.6ZM565.6,895.4h1.3c.9,0,1.3-.4,1.3-1.3v-.7h-.7c-.7,0-1.3.7-2,2Z"/>
    <path class="st0" d="M634.7,878.2h1.3l5.9,2v.7l-.7,1.3,1.3.7c.9,0,1.3-.9,1.3-2.6h19.8l2.6-2h2.6c.9,0,1.3.7,1.3,2h37l2.6-2h5.3c.9,0,1.3.7,1.3,2h5.3l2-1.3h5.9l2,1.3h2l-.7-1.3,1.3-.7h4.6c2,1.8,5.1,3.5,9.2,5.3l9.9,10.6c0-.4.2-.7.7-.7.9,1.8,1.5,2.6,2,2.6l-.7,6.6v9.2h2v13.2h-2v18.5l1.3-.7.7,1.3v2c0,.9-.7,1.3-2,1.3v13.2c1.3,0,2,.4,2,1.3v3.3c0,.9-.7,1.3-2,1.3v33.7c1.3,0,2,.4,2,1.3v4.6h-.7l-1.3-.7c0,4.8-.4,7.3-1.3,7.3h-34.3c-.9,0-1.3-.4-1.3-1.3v-9.2l-1.3-2c.9,0,1.3-.4,1.3-1.3v-7.9c-1.3,0-2-.4-2-1.3v-.7c0-.9.7-1.3,2-1.3v-15.9l-1.3.7-.7-1.3c.7,0,1.3-.7,2-2v-41.6l1.3-2c-.9,0-1.5-1.8-2-5.3.4-.9.7-1.5.7-2l-1.3.7-.7-1.3v-.7l1.3-2h-4v.7h1.3v1.3h-3.3c0-.4-.2-1.1-.7-2l-3.3,2h-2.6c-1,0-1.8-.2-2.6-.7-.7.4-1.6.7-2.6.7h-4.6v-2h-6.6c-.9,0-1.3-.4-1.3-1.3s.9-1.8,2.6-4v-.7h-1.3c-2.4,3.1-4.2,4.6-5.3,4.6,0,.4-1.1.7-3.3.7v.7h2.6v.7l-.7,1.3c-.3,0-1.6-.2-4-.7l-6.6.7c-.4-.9-.7-1.5-.7-2h-37c-1.7,1.3-3,2-4,2-.9-.4-1.5-.7-2-.7v13.9l1.3-.7.7,1.3v.7l-2,2.6v27.1c0,.4.2.7.7.7l-.7,1.3v16.5l1.3-.7.7,1.3v2.6c0,.9-.7,1.3-2,1.3v27.1c0,.9-.4,1.3-1.3,1.3h-17.8c0,1.3-.4,2-1.3,2h-2v-.7l.7-1.3h-13.9c-.9,0-1.3-.4-1.3-1.3v-27.1h-1.3v-.7l1.3-2v-9.2c0-1.3-.2-2-.7-2l.7-3.3v-19.2l-1.3.7h-.7v-4c.1-.9.6-1.3,1.3-1.3.1.9.6,1.3,1.3,1.3l-.7-4.6v-2.6l1.3-2v-.7l-1.3-2v-19.8l-2-2.6c.7,0,1.3-.7,2-2v-4h-1.3l.7-3.3c-.9,0-1.3-.7-1.3-2,8.8-11.9,15-17.8,18.5-17.8l-.7-1.3v-1.3h2v1.3h19.8c0-1.3.4-2,1.3-2ZM610.3,968.7v1.3h2v-1.3h-2ZM614.9,885.5v.7c.4,0,1.1.2,2,.7v-1.3h-2ZM617.6,886.1v.7c1.3,0,2,.4,2,1.3v.7c0,.5-1.5,2.3-4.6,5.3.9.4,1.5.7,2,.7,4.8-2.1,7.3-3.7,7.3-4.6s-2-2.1-5.9-4h-.7ZM620.9,911.9l3.3,2c2.2-.6,3.3-2.1,3.3-4.6v-1.3c0-.9-.4-1.3-1.3-1.3-3.5,1.2-5.3,2.9-5.3,5.3ZM634.7,908.6v.7c.1.9.6,1.3,1.3,1.3h1.3c1.5-1.3,2.6-2,3.3-2v-1.3h-3.3c-1.1.9-2,1.3-2.6,1.3ZM661.8,928.4h3.3c1.5,0,2.6.2,3.3.7l3.3-.7c4.4.3,6.6.7,6.6,1.3v.7h6.6v-2h4.6c.9,0,1.3.7,1.3,2h5.9c0-1.3.4-2,1.3-2h2.6v1.3h-2v.7h5.3c.4,0,.7-.2.7-.7l1.3.7h9.2c.7,0,1.3,1.1,2,3.3l-.7,3.3v6.6l1.3-.7.7,1.3c-.7,0-1.3.7-2,2v3.3c1.3,0,2,.4,2,1.3v1.3l-2,2.6v6.6c0,.7-1.1,1.3-3.3,2l-3.3-.7h-32.4l-2.6,2h-2.6c-1,0-1.8-.2-2.6-.7-.7.4-1.6.7-2.6.7v-.7l-1.3.7h-3.3c-.9,0-1.3-.4-1.3-1.3.4,0,.7-.2.7-.7h-3.3c-1.6,0-6.9.7-15.9,2l-5.3-4c0-1.5.7-3.2,2-5.3v-15.2h-1.3v-1.3l1.3-2v-5.3h-1.3v-1.3c.1-.9.6-1.3,1.3-1.3.1.9.6,1.3,1.3,1.3h3.3l2-1.3c.1.9.6,1.3,1.3,1.3h9.9c1.5,0,3-.7,4.6-2ZM646,962.7h2c.9,0,1.3-.4,1.3-1.3h-2c-.9.1-1.3.6-1.3,1.3ZM651.2,886.8c.1.9.6,1.3,1.3,1.3,0-.9.7-1.3,2-1.3v-2h-.7c-1.8.7-2.6,1.3-2.6,2ZM651.2,947.5v1.3h.7c2.6-1.7,4-2.8,4-3.3v-.7c-2.3,0-3.9.9-4.6,2.6ZM657.9,933.7l-1.3,3.3c.4.7.7,1.6.7,2.6l4.6-1.3v-.7c-1-2.3-2.3-3.7-4-4ZM667.8,892.7c-.7,4.4-2.7,6.6-5.9,6.6v.7h1.3c1.5-1.3,4.2-2.2,7.9-2.6v-.7c-.9-1-1.3-2.3-1.3-4h-2ZM669.1,959.4l-1.3,2,1.3.7,1.3-2-1.3-.7ZM671.7,896.7v.7l4,.7.7-1.3v-.7l-4.6.7ZM673,943.6v.7h.7c.7,0,1.3-.7,2-2h-1.3c-.9.1-1.3.6-1.3,1.3ZM681,894v.7h4c2.3,0,3.6-.7,4-2,0-.9-.4-1.3-1.3-1.3h-.7c-3.4,0-5.4.9-5.9,2.6ZM685.6,902.6h1.3c.9,0,1.3-.4,1.3-1.3v-.7h-.7c-.7,0-1.3.7-2,2ZM688.9,915.2h1.3c.9.1,1.3.6,1.3,1.3l-1.3.7c-.9,0-1.3-.4-1.3-1.3v-.7ZM694.2,951.5c.1.9.6,1.3,1.3,1.3,3.2,0,4.9-1.3,5.3-4h-.7c-4,.7-5.9,1.5-5.9,2.6ZM704.1,915.2h1.3c.9,0,1.3-.4,1.3-1.3h-1.3c-.9.1-1.3.6-1.3,1.3ZM710.7,880.2c.1.9.6,1.3,1.3,1.3h.7v-1.3h-2ZM719.9,909.9c0,.9-1.3,1.5-4,2l-1.3-.7c-2.6.9-4,1.8-4,2.6v.7h2.6l4-2,1.3.7c2.6-.4,4-1.1,4-2v-.7l-2.6-.7ZM712.7,901.3v1.3h1.3c.9,0,1.3-.4,1.3-1.3-.4,0-.7-.2-.7-.7-.9.4-1.5.7-2,.7ZM721.9,885.5l1.3.7h.7l4.6-1.3v-2.6l-1.3.7c-.4,0-.7-.2-.7-.7-2.9,1.2-4.4,2.3-4.6,3.3ZM723.9,970v2c1.8-.7,2.6-1.3,2.6-2h-2.6ZM725.9,1001.7v2c0,1,2.2,1.8,6.6,2.6l.7-1.3c0-1.3-2-2.4-5.9-3.3h-1.3ZM739.1,912.5l1.3,2c-3.2,1.6-5.1,2.9-5.9,4-4.4,2-6.6,3.3-6.6,4,.4,0,.7.2.7.7l3.3-.7h3.3c0-1.4,2.6-4,7.9-7.9l.7-2.6h-1.3l-3.3.7ZM728.5,994.4c-.4,2.3-.7,3.6-.7,4h.7c3.4,0,5.4-.9,5.9-2.6-1.9-.9-3.9-1.3-5.9-1.3ZM731.8,948.2l-.7,1.3h2c0-.9-.4-1.3-1.3-1.3ZM737.8,939c.4,4,1.1,5.9,2,5.9,2.6-.4,4-1.1,4-2-1.7-3.5-2.8-5.3-3.3-5.3h-.7l-2,1.3ZM739.7,1003.7v.7c2.3,0,3.6-.7,4-2v-.7c-2.6.3-4,1-4,2ZM741.7,898v1.3h5.3l.7-2.6-1.3-.7h-.7c-2.6.3-4,1-4,2ZM747.7,925.7v1.3h2c.9,0,1.3-.4,1.3-1.3-.4,0-.7-.2-.7-.7-.7.4-1.6.7-2.6.7ZM751,955.5v2c0,1.3.9,2,2.6,2,1.3-.4,2-.9,2-1.3-.9-2-1.8-3.1-2.6-3.3-.9.4-1.5.7-2,.7ZM752.3,900.6h2c2.2-1.8,4-2.6,5.3-2.6-.4-.9-.7-1.5-.7-2h-.7c-4,2.7-5.9,4.3-5.9,4.6ZM756.9,917.8h1.3v1.3c-3.1.3-4.6,1.2-4.6,2.6v1.3c1,0,1.9.2,2.6.7,1.2,0,2.5-1.5,4-4.6v-5.3c-.7,0-1.8,1.3-3.3,4ZM758.2,963.4v.7c.1.9.6,1.3,1.3,1.3h.7v-2.6c-.9.4-1.5.7-2,.7Z"/>
    <path class="st0" d="M776.5,880.2h31.7c.9.1,1.3.6,1.3,1.3v130.1c0,.9-.4,1.3-1.3,1.3h-31.7c-.9,0-1.3-.4-1.3-1.3v-55.5c-1.3,0-2-.4-2-1.3l1.3-.7c0,.4.2.7.7.7v-34.3l-1.3.7h-.7v-3.3c0-.4.2-.7.7-.7l-.7-1.3c0-.9.7-1.3,2-1.3v-4.6c-1.3,0-2-.4-2-1.3v-4.6c0-.9.7-1.3,2-1.3v-6.6c0-.4-.2-.7-.7-.7l.7-1.3v-3.3c0-.4-.2-.7-.7-.7l.7-1.3v-7.3c.1-.9.6-1.3,1.3-1.3ZM817.5,880.2h94.4c7,0,11.2,4.6,12.5,13.9v50.9c0,8.4-2.6,13.9-7.9,16.5-1.6.9-3.4,1.3-5.3,1.3h-8.6l31.7,48.9v1.3h-40.9c-2.9-3.8-20.8-30.9-53.5-81.2v-1.3h41.6c3.1,0,4.6-2,4.6-5.9v-5.3c-1.5-2.6-3.5-4-5.9-4h-62.7c-.9,0-1.3-.4-1.3-1.3v-32.4c.1-.9.6-1.3,1.3-1.3ZM817.5,930.4h13.9c.6.1,7.6,10.7,21.1,31.7l-1.3.7h-33.7c-.9,0-1.3-.4-1.3-1.3v-29.7c.1-.9.6-1.3,1.3-1.3Z"/>
    <path class="st0" d="M948.7,880.2h31.7c.9.1,1.3.6,1.3,1.3v130.1c0,.9-.4,1.3-1.3,1.3h-31.7c-.9,0-1.3-.4-1.3-1.3v-55.5c-1.3,0-2-.4-2-1.3l1.3-.7c0,.4.2.7.7.7v-34.3l-1.3.7h-.7v-3.3c0-.4.2-.7.7-.7l-.7-1.3c0-.9.7-1.3,2-1.3v-4.6c-1.3,0-2-.4-2-1.3v-4.6c0-.9.7-1.3,2-1.3v-6.6c0-.4-.2-.7-.7-.7l.7-1.3v-3.3c0-.4-.2-.7-.7-.7l.7-1.3v-7.3c.1-.9.6-1.3,1.3-1.3ZM989.6,880.2h94.4c7,0,11.2,4.6,12.5,13.9v50.9c0,8.4-2.6,13.9-7.9,16.5-1.6.9-3.4,1.3-5.3,1.3h-8.6l31.7,48.9v1.3h-40.9c-2.9-3.8-20.8-30.9-53.5-81.2v-1.3h41.6c3.1,0,4.6-2,4.6-5.9v-5.3c-1.5-2.6-3.5-4-5.9-4h-62.7c-.9,0-1.3-.4-1.3-1.3v-32.4c.1-.9.6-1.3,1.3-1.3ZM989.6,930.4h13.9c.6.1,7.6,10.7,21.1,31.7l-1.3.7h-33.7c-.9,0-1.3-.4-1.3-1.3v-29.7c.1-.9.6-1.3,1.3-1.3Z"/>
    <path class="st0" d="M1138,880.2h58.1c.9.1,1.3.6,1.3,1.3v33c0,.9-.4,1.3-1.3,1.3h-4.6l-2-1.3h-1.3l-2,3.3h-4.6c-.9,0-1.3-.4-1.3-1.3,1.8-.4,2.6-1.8,2.6-4h-1.3c0,1.8-1.3,2.6-4,2.6l.7,1.3v.7h-.7c-1.5-.9-2.8-1.3-4-1.3h-4c-4.6,1.3-7.3,2-7.9,2v-1.3h1.3v-.7h-7.9v4.6h2v9.2c0,.9-.7,1.3-2,1.3v45.6h6.6c0-1.3.4-2,1.3-2h3.3c.9,0,1.3.7,1.3,2h28.4c.9.1,1.3.6,1.3,1.3v33.7c0,.9-.4,1.3-1.3,1.3h-39.6v-.7c.4-.9.7-1.5.7-2h-2c-.9.1-1.3.6-1.3,1.3v.7h1.3v1.3l-4.6-.7h-3.3c-3.1.9-4.8,1.3-5.3,1.3h-4.6c-1.9-2.3-4.1-3.8-6.6-4.6-.7.4-1.6.7-2.6.7l-1.3-2v-.7l.7-1.3c-2.8,0-5.9-4.8-9.2-14.5v-55.5c0-.4-.2-.7-.7-.7l.7-1.3v-33c0-4.1,2.9-9.2,8.6-15.2l-.7-1.3,1.3-.7c.9.4,1.5.7,2,.7,2.8-2.8,5.7-4.3,8.6-4.6ZM1146.6,937l2,1.3h1.3c2.2-1.2,3.3-2.1,3.3-2.6s-.9-1.3-2.6-2c-1.8.6-3.2,1.7-4,3.3ZM1149.9,935l.7,1.3-1.3.7-.7-1.3,1.3-.7ZM1155.8,1003.7c.4.6.7,1.7.7,3.3h-.7v.7h.7c1.5-.9,2.6-1.3,3.3-1.3l-.7-1.3v-2l.7-1.3h-.7c-2.2.9-3.3,1.5-3.3,2ZM1163.1,976.6l.7,4.6v1.3l-2,2.6h2c1.2,0,2.5-2.6,4-7.9l-3.3-.7h-1.3ZM1171,896c3,2.2,5.2,3.3,6.6,3.3v4c-2.6,3-4,4.8-4,5.3.4,0,.7.2.7.7l3.3-.7h2.6l2.6,2c3.1-3.5,4.6-6.4,4.6-8.6l-11.2-4.6c0-1.8-.7-2.6-2-2.6h-2c-.9.1-1.3.6-1.3,1.3ZM1173.7,884.8v2h3.3v-.7c0-.9-.4-1.3-1.3-1.3h-2ZM1178.9,892.1v1.3h.7c7-1.5,10.6-3,10.6-4.6l-1.3-.7h-.7c-.7,0-3.8,1.3-9.2,4ZM1183.6,903.3h.7c.9,0,1.3.7,1.3,2-.9,2-1.8,3.1-2.6,3.3h-.7c-.9,0-1.3-.4-1.3-1.3v-.7c1.2-2.2,2.1-3.3,2.6-3.3ZM1184.2,915.2v.7h.7c.8-.4,1.7-.7,2.6-.7v-.7h-1.3c-.9.4-1.5.7-2,.7ZM1185.5,889.4h2v1.3h-2v-1.3ZM1206.7,880.2h56.1c5.9,0,12.3,5.7,19.2,17.2l.7,4v54.2l1.3,2c-.9.1-1.3.6-1.3,1.3v33c0,7.4-6.2,14.5-18.5,21.1h-58.8c-.9,0-1.3-.4-1.3-1.3v-33.7c.1-.9.6-1.3,1.3-1.3h40.3v-29.1l-1.3.7-.7-1.3v-.7c0-.9.7-1.3,2-1.3v-3.3c-1.3,0-2-.4-2-1.3l2-2.6v-21.8h-36.3v-.7c0-.9,1.1-1.3,3.3-1.3v-1.3h-2.6c-2.6,1.2-4,2.3-4,3.3h-.7l-1.3-.7c1.3-6.2,3.1-9.2,5.3-9.2,4,0,6.4-1.1,7.3-3.3l-1.3-.7h-2.6c-.5,0-2.9.4-7.3,1.3-.9,0-1.3-.4-1.3-1.3v-18.5c-1.3,0-2-.4-2-1.3v-1.3h.7l2.6,2.6h.7c.9,0,1.3-.4,1.3-1.3-.4-.9-.7-1.5-.7-2ZM1212.6,902.6h1.3v.7c0,.9-.4,1.3-1.3,1.3h-3.3v-1.3l3.3-.7ZM1217.9,886.1l-1.3,2,1.3.7h.7c0-.4.2-1.1.7-2l-1.3-.7ZM1238.4,979.9v1.3h3.3c.9,0,1.3-.4,1.3-1.3v-1.3c-.9,0-1.3-.2-1.3-.7-2.2.6-3.3,1.2-3.3,2ZM1250.9,983.9v2h2c2.3,0,3.9-.9,4.6-2.6v-2h-1.3c-3.3.5-5.1,1.4-5.3,2.6ZM1256.2,981.9v1.3c0,.7-.7,1.3-2,2h-1.3c-.9,0-1.3-.4-1.3-1.3v-.7l4.6-1.3ZM1268.1,950.8v1.3h6.6c.9,0,1.3-.4,1.3-1.3h-7.9ZM1274,942.9l2,2.6c.6-.4,2.1-.7,4.6-.7v-.7c-1.6,0-3.4-.7-5.3-2l-1.3.7Z"/>
    <path class="st0" d="M1299.6,877.5h7.9v2h14.5l2.6-2h1.3v2h4c.9.1,1.3.6,1.3,1.3v23.8l.7,4.6h-.7c-.9-.4-1.5-.7-2-.7v.7c0,.9.7,1.3,2,1.3v7.9h.7v-2h1.3v2c0,.9-.4,1.3-1.3,1.3l-1.3-.7h-.7v.7h1.3v11.2l1.3-.7.7,1.3v4.6l-1.3,2,.7,1.3c-.9.1-1.3.6-1.3,1.3v2.6c1.3,0,2,.4,2,1.3l-2,2.6v2l1.3-.7.7,1.3v.7c0,.9-.7,1.3-2,1.3v10.6c1.3,0,2,.4,2,1.3s-.7,1.3-2,1.3v46.2c0,.9-.4,1.3-1.3,1.3h-3.3c-12.4,0-21.9-5.3-28.4-15.9-.9-1.6-1.3-3.4-1.3-5.3v-26.4h-2v-.7c0-.9.9-1.3,2.6-1.3-.5-3-1.2-5-2-5.9.9,0,1.3-.4,1.3-1.3v-26.4c.1-.9.6-1.3,1.3-1.3l3.3.7c1.9-1.2,3-3.4,3.3-6.6l-2.6-1.3h-.7v.7h1.3v4.6c0,.9-.4,1.3-1.3,1.3s-2.7-.7-4.6-2l.7-1.3v-.7l-1.3.7c-.9,0-1.3-.4-1.3-1.3v-2.6c1,0,1.9.2,2.6.7h.7v-.7h-1.3v-6.6c-1.3,0-2-.4-2-1.3.9-.4,1.5-.7,2-.7v-9.9c4.4.4,6.6,1,6.6,2s-2,1.9-5.9,2.6v.7h2c3.1,0,4.6-1.5,4.6-4.6-4.8-1.2-7.3-2.3-7.3-3.3v-4.6h-2v-1.3c0-.4.2-.7.7-.7l-.7-1.3v-1.3c.1-.9.6-1.3,1.3-1.3l1.3.7.7-2.6c-.9,0-1.5-2.9-2-8.6l3.3-.7ZM1298.3,956.8c.1.9.6,1.3,1.3,1.3h.7c0-.9-.4-1.3-1.3-1.3h-.7ZM1300.2,954.1l.7,1.3,1.3-.7c2,.9,3.1,1.8,3.3,2.6-.4.9-.7,1.5-.7,2h4l1.3-4.6c-4.7-.7-7.3-1.3-7.9-2h-.7c-.9.1-1.3.6-1.3,1.3ZM1302.2,897.3v1.3l2.6.7c2.1-1.3,3.4-2,4-2v-2c-1.5,0-3.7.7-6.6,2ZM1306.8,954.8h2l-.7,3.3h-.7c-.7,0-1.3-.9-2-2.6l1.3-.7ZM1308.2,930.4v.7l3.3.7,3.3-.7v-1.3c-1.3,0-2-.2-2-.7-2.2.9-3.7,1.3-4.6,1.3ZM1308.8,894.7c3.5,1.6,5.3,2.7,5.3,3.3,1.2,0,2.3-1.1,3.3-3.3-2.3-1.8-4.3-2.6-5.9-2.6h-.7c-.7,0-1.3.9-2,2.6ZM1310.8,947.5l.7,3.3c-.4,0-.7.2-.7.7h2c1.8-1.8,3.3-2.6,4.6-2.6v-.7c-1.3,0-2-.4-2-1.3-1.8.4-3.3.7-4.6.7ZM1311.5,892.7h2v1.3h-2v-1.3ZM1312.1,934.3v1.3h2v-.7c-.4,0-1.1-.2-2-.7ZM1312.8,968.7h2c.9,0,1.3-.4,1.3-1.3h-2c-.9.1-1.3.6-1.3,1.3ZM1314.1,941.6v.7c.4.9.7,1.5.7,2,1.1-.9,2-1.3,2.6-1.3,0-.9-.4-1.3-1.3-1.3h-2ZM1316.1,953.5v.7c0,.9.7,1.3,2,1.3.9-.4,1.5-.7,2-.7v-1.3h-4ZM1316.1,957.4v2c3.5.9,5.7,1.3,6.6,1.3l.7-1.3c-1.9,0-3.7-.7-5.3-2h-2ZM1318.1,884.8c.4.9.7,1.5.7,2h1.3c0-.4.2-1.1.7-2l-1.3-.7-1.3.7ZM1320,931l1.3.7h.7c0-1.1.7-2.4,2-4,0-.9.7-1.3,2-1.3v-2h-2.6c-1,0-2.1,2.3-3.3,6.6ZM1320.7,945.6v2h.7c.9-.4,1.5-.7,2-.7v-.7l-.7-1.3c-.9.4-1.5.7-2,.7ZM1323.3,925.1c.9.1,1.3.6,1.3,1.3l-1.3.7c-.9,0-1.3-.4-1.3-1.3l1.3-.7ZM1322.7,985.8c.1.9.6,1.3,1.3,1.3h2v-1.3h-3.3ZM1323.3,965.4h.7l3.3-.7v-1.3h-2c-.7,0-1.3.7-2,2ZM1324.7,921.1v.7l3.3.7v-2l-3.3.7ZM1324.7,938.3c1.5.9,2.8,1.3,4,1.3s1.5-.9,2.6-2.6v-.7h-2.6c-2.6.3-4,1-4,2ZM1326.7,937h2.6v.7c0,.9-.4,1.3-1.3,1.3h-1.3v-2ZM1328,945.6v.7h1.3v-1.3h.7v1.3h1.3l-.7-1.3c.4,0,.7-.2.7-.7h-2c-.9.1-1.3.6-1.3,1.3ZM1382.8,879.5h18.5c5.4,0,11.3,5.7,17.8,17.2l8.6,11.2c.9,2.5,1.3,4.3,1.3,5.3h-1.3l.7,1.3v.7l-.7,1.3c4.4,0,8.4,4.2,11.9,12.5l7.9,13.2v50.9c1.3,0,2,.4,2,1.3v.7c0,.9-.4,1.3-1.3,1.3-.9-.4-1.5-.7-2-.7v-1.3h1.3v-.7h-.7c-1.5.9-2.8,1.3-4,1.3v1.3h4.6v12.5l-.7,1.3c-6.9-2.9-14.2-11.9-21.8-27.1-1-2.2-2.5-3.3-4.6-3.3l1.3-2c-4.7-8.4-7.6-12.5-8.6-12.5-1.8,0-4-3.3-6.6-9.9.9,0,1.3-.4,1.3-1.3-.9,0-1.3-.7-1.3-2l-1.3.7h-.7l1.3-2c-8.4-12.8-12.5-19.8-12.5-21.1h-.7c-2.9,3.2-12,18.3-27.1,45.6.9.1,1.3.6,1.3,1.3l-2,1.3-1.3-.7c-11.5,22-19.9,33-25.1,33l-.7-1.3v-36.3h-2v-.7l2-2.6v-25.1c.9-2.8,1.3-4.8,1.3-5.9h-.7v-.7c3.1-1.5,5.7-4.8,7.9-9.9-.9,0-1.3-.4-1.3-1.3l1.3-.7h.7c.4,0,.7.2.7.7l4.6-2.6c-.9-1-1.3-3-1.3-5.9,2-.1,4.2-3.2,6.6-9.2.7,0,1.3-.9,2-2.6-.9,0-1.3-.4-1.3-1.3,4-2.3,7.3-6.3,9.9-11.9,6-7.3,10.9-11.7,14.5-13.2ZM1339.9,961.4h3.3c.7,0,1.3-.7,2-2h-1.3c-2.6.4-4,1.1-4,2ZM1345.8,944.2c0,.9-.7,1.3-2,1.3v.7h1.3c.8-.4,1.7-.7,2.6-.7v-.7c-.4,0-1.1-.2-2-.7ZM1345.1,952.2c0,.5,1.5,1.8,4.6,4v.7h2c0-.3-1.1-1.4-3.3-3.3.4,0,.7-.2.7-.7l1.3.7h2v-2.6h-.7c-1.8,0-4,.4-6.6,1.3ZM1347.8,939.6v1.3h2c0-.9-.4-1.3-1.3-1.3h-.7ZM1353.1,921.1v.7c0,.7.9,1.5,2.6,2.6h.7v-1.3c0-.7-.7-1.3-2-2h-1.3ZM1353.1,927.7c.9,2.6,1.8,4,2.6,4s1.3-.4,1.3-1.3v-1.3c-.9-1.1-1.3-2-1.3-2.6l-2.6,1.3ZM1355,909.2h1.3v.7c-.7,1.8-1.3,2.6-2,2.6v-1.3c.4-.9.7-1.5.7-2ZM1356.4,938.3v2h2.6v-1.3l-2.6-.7ZM1356.4,964c.4,2.6,2.6,4,6.6,4v-2c-1.3,0-2-.4-2-1.3v-.7l.7-1.3-1.3-.7c-2.6.3-4,1-4,2ZM1357,956.1v.7c2.9.9,4.8,1.3,5.9,1.3h.7c.7,0,1.3-.7,2-2-.9-.4-1.5-.7-2-.7-3.8.4-6,.7-6.6.7ZM1362.3,969.3v.7c.1.9.6,1.3,1.3,1.3h1.3c.7,0,1.3-.7,2-2-1.3,0-2-.2-2-.7-.7.4-1.6.7-2.6.7ZM1368.3,923.8c0,.4-.2,1.1-.7,2l3.3.7c1.8-.7,2.6-1.3,2.6-2l-1.3-.7h-4ZM1370.9,927.1c0,.4-.2,1.1-.7,2,.7,0,1.5.4,2.6,1.3h4.6v-1.3c-.4-1.3-1.8-2-4-2h-2.6ZM1372.2,903.3l-.7,1.3v.7h2v-.7c0-.9-.4-1.3-1.3-1.3ZM1376.8,899.3v.7c0,.7.9,1.5,2.6,2.6v-.7c-.4,0-.7-.2-.7-.7.9-.4,1.5-.7,2-.7v-.7l-4-.7ZM1380.8,901.3v1.3c.9,0,1.3.4,1.3,1.3h1.3l-.7-1.3c.4,0,.7-.2.7-.7l-1.3-.7h-1.3ZM1382.1,933c.9,0,1.3.2,1.3.7,2.4-.7,4.2-1.8,5.3-3.3h-2.6c-2.2,0-3.5.9-4,2.6ZM1384.1,931h.7c.9.1,1.3.6,1.3,1.3h-.7c-.9,0-1.3-.4-1.3-1.3ZM1395.3,893.4c.9,1.5,1.3,2.8,1.3,4h-.7l-4-.7h-.7v.7c2.2,0,3.3.5,3.3,1.3,3.5-.9,6.2-1.3,7.9-1.3.1.9.6,1.3,1.3,1.3,2.3,0,3.9-.9,4.6-2.6v-.7l-4.6.7h-1.3c-2.6,0-4-1.1-4-3.3-.7.4-1.8.7-3.3.7ZM1396,890.7h1.3c.9,0,1.3-.4,1.3-1.3h-1.3c-.9.1-1.3.6-1.3,1.3ZM1401.9,939v.7l.7,1.3c.9-.4,1.5-.7,2-.7,0-.9-.4-1.3-1.3-1.3h-1.3ZM1403.9,902v.7h4c.9,0,1.3-.4,1.3-1.3l-1.3-.7h-2.6c-.9.1-1.3.6-1.3,1.3ZM1403.9,931.7v1.3c.9,0,2.2.9,4,2.6h2v-.7l-3.3-2.6-2.6-.7ZM1408.5,903.3v.7c.1.9.6,1.3,1.3,1.3h6.6c.9,0,1.3-.4,1.3-1.3l-1.3-.7h-2c-1,0-1.8.2-2.6.7-.7-.4-1.6-.7-2.6-.7h-.7ZM1408.5,954.8v1.3h2c-.4.9-.7,1.5-.7,2,.4.9.7,1.5.7,2,1.2-.1,2.1-1.2,2.6-3.3l-2-3.3c2.2-.6,3.3-1.2,3.3-2v-.7h-2.6l-2.6,4h-.7ZM1411.2,935v.7c1.3,0,2,.2,2,.7.9-.4,1.5-.7,2-.7,0-.9-.7-1.3-2-1.3-.9.4-1.5.7-2,.7ZM1411.8,960.7v.7l.7,1.3,1.3-.7c.9.1,1.3.6,1.3,1.3h-1.3v.7h1.3l1.3-2c0-.9-.4-1.3-1.3-1.3h-3.3ZM1413.2,940.3c0,1,1.1,1.7,3.3,2l.7-1.3v-.7h-4ZM1414.5,948.9h2c2.3,0,3.6-.7,4-2l-1.3-.7c-2.3,0-3.9.9-4.6,2.6ZM1419.1,927.7v.7c.7,0,1.8.7,3.3,2h1.3v-2l-3.3-.7h-1.3ZM1425.1,935.7h-4v.7c.1.9.6,1.3,1.3,1.3h1.3l4.6-1.3v-2h-1.3l-2,1.3ZM1423.1,906.6v1.3h2.6v-1.3h-2.6ZM1424.4,952.8h3.3c.7,0,1.3-.7,2-2h-1.3c-2.6.4-4,1.1-4,2ZM1427,942.3h5.9l.7-4c-4.3,1.8-6.5,3.1-6.6,4ZM1429.7,914.5h.7c.9.1,1.3.6,1.3,1.3l-1.3.7h-.7v-2ZM1431,929c0,.4-.2,1.1-.7,2h.7c2.3,0,3.6-.7,4-2h-4ZM1432.3,946.2h.7c1.8-.4,3.3-.7,4.6-.7v-.7h-1.3v-1.3h2.6v-.7h-3.3c-1.2.3-2.3,1.4-3.3,3.3ZM1437.6,997.1h1.3c.9-.4,1.5-.7,2-.7v-.7h-2c-.9.1-1.3.6-1.3,1.3ZM1440.2,937.6v1.3h1.3c.9,0,1.3-.4,1.3-1.3h-2.6ZM1440.2,944.9v.7h.7c0-.9.2-1.3.7-1.3.9.4,1.5.7,2,.7,0-.9-.4-1.3-1.3-1.3h-.7c-.9.1-1.3.6-1.3,1.3ZM1454.8,878.9l7.9.7h24.4c.9.1,1.3.6,1.3,1.3v76.6c1.3,0,2,.4,2,1.3v2h-.7l-1.3-.7v2.6h1.3v1.3h-1.3v4.6c1.3,0,2,.4,2,1.3s-.7,1.3-2,1.3v20.5c0,10.6-9.5,17.6-28.4,21.1h-4.6c-.9,0-1.3-.4-1.3-1.3v-76.6c-1.3,0-2-.4-2-1.3v-5.3c0-.9.7-1.3,2-1.3v-46.2l-.7-1.3c.9,0,1.3-.2,1.3-.7ZM1460.7,937v.7h.7l4.6-.7c0-.9-.4-1.3-1.3-1.3h-2.6c-.9.1-1.3.6-1.3,1.3ZM1466,941.6v.7h2.6v-.7c0-.9-.4-1.3-1.3-1.3-.9.1-1.3.6-1.3,1.3ZM1482.5,954.8c1.3,0,2,.7,2,2,1.8-.7,2.6-1.3,2.6-2v-1.3h-3.3c-.9.1-1.3.6-1.3,1.3ZM1485.8,970.7l1.3.7c.9,0,1.3-.4,1.3-1.3v-.7h-1.3c-.9.1-1.3.6-1.3,1.3Z"/>
    <path class="st0" d="M1540.4,880.2c.9.1,1.3.6,1.3,1.3v48.9h.7l3.3-2h2v1.3h-2v.7h102.4c4.5,0,9,3.5,13.2,10.6,1.3,0,2,.4,2,1.3v1.3l-1.3,2c1.8,4.5,2.6,9.8,2.6,15.9v28.4c0,12.3-4.4,20-13.2,23.1h-23.8c-.9,0-1.3-.4-1.3-1.3v-48.9h-79.9c-.4,0-.7.2-.7.7l-1.3-.7h-23.1c-5,0-11.6-4.8-19.8-14.5v-1.3l2-2.6v-32.4c0-18.7,5.5-29.3,16.5-31.7h20.5ZM1503.4,946.9v1.3c.1.9.6,1.3,1.3,1.3h2c4.5-2.3,6.9-4.1,7.3-5.3v-.7l-2.6-.7c-3.4,0-6,1.3-7.9,4ZM1527.2,976.6c1.5.9,2.8,1.3,4,1.3h58.1c3.9,0,8.3-.2,13.2-.7,1.2.4,4.5.7,9.9.7h5.9c.9.1,1.3.6,1.3,1.3v32.4c0,.9-.4,1.3-1.3,1.3h-26.4l-2,1.3h-.7l-2-1.3h-81.2c-.9,0-1.3-.4-1.3-1.3v-32.4c.1-.9.6-1.3,1.3-1.3h17.2c1.2,0,2.5-.4,4-1.3ZM1509.4,944.2l1.3.7c0,1.2-1.1,2.3-3.3,3.3-.9-.4-1.5-.7-2-.7v-1.3c.4-1.3,1.8-2,4-2ZM1508.7,985.2h1.3c.9,0,1.3-.4,1.3-1.3v-.7h-.7c-.7,0-1.3.7-2,2ZM1517.3,942.9l13.9-6.6c1.1-1.8,2.6-2.6,4.6-2.6v-1.3h-1.3c-11.4,4.4-17.2,7.9-17.2,10.6ZM1527.9,936.3v.7c0,.9-.4,1.3-1.3,1.3h-1.3v-1.3c.2,0,1.1-.2,2.6-.7ZM1653.3,878.2c.9.1,1.3.6,1.3,1.3v.7h-2v.7h1.3c.9-.4,1.5-.7,2-.7.9.4,1.5.7,2,.7l-.7-1.3c.1-.9.6-1.3,1.3-1.3h3.3v1.3h-1.3v.7c2.2,0,3.3.4,3.3,1.3v32.4c0,.9-.4,1.3-1.3,1.3h-80.6l-4,.7c-.7-.4-1.8-.7-3.3-.7h-1.3v2h-.7c-.9,0-1.3-.7-1.3-2h-21.8c-.9,0-1.3-.4-1.3-1.3v-32.4c.1-.9.6-1.3,1.3-1.3h101l2.6-2ZM1577.4,932.3v1.3h.7c.9,0,1.3-.4,1.3-1.3v-.7c-.9.4-1.5.7-2,.7ZM1601.2,903.3h.7c1.5-1.3,5.4-2.4,11.9-3.3-.4-1.3-1.8-2-4-2s-4.4,1.8-8.6,5.3ZM1616.4,894.7v1.3h1.3c3.2,0,5-.7,5.3-2-.4,0-.7-.2-.7-.7-1,.4-2.9.9-5.9,1.3ZM1632.2,887.4v2.6c.4,0,1.1.2,2,.7,4.4-2.9,6.6-4.8,6.6-5.9-5.7.4-8.6,1.3-8.6,2.6ZM1636.8,886.1h1.3v.7c-.4,1.3-1.8,2-4,2s-1.3-.4-1.3-1.3c1.5-.9,2.8-1.3,4-1.3ZM1659.9,942.3c.4.9.7,1.5.7,2h1.3c-.4-.9-.7-1.5-.7-2h-1.3Z"/>
  </g>
  <image width="800" height="823" transform="translate(560 21.7)" xlink:href="SparrowsLogo_Layers_tilted_800x.webp"/>
</svg>