<svg xmlns="http://www.w3.org/2000/svg" viewBox="0 0 1499.96 377.97" fill="currentColor">
  <path d="M42.73,280.13c1.04,0,2.08,0,3.12.03,23.31,24.78,54.49,41.1,88.21,46.08.44.07.88.1,1.32.1,2.84,0,5.54-1.34,7.25-3.67l7.22-9.82,38.66-2.64,8.37,4.48c1.33.71,2.79,1.07,4.25,1.07,1.58,0,3.17-.42,4.57-1.25,7.56-4.46,14.4-9.84,20.46-16.07,6.72,8.46,14.3,16.14,22.68,22.97-24.23,20.1-51.35,36.05-80.77,47.5-39.02-1.99-76.69-16.99-106.4-42.38-.69-.81-1.52-1.5-2.48-2.04-1.36-.76-2.88-1.14-4.39-1.14-1.64,0-3.28.45-4.73,1.34l-19.55,12.06c-6.5-5.11-12.66-10.69-18.39-16.64-1.78-12.16-2.81-24.5-3.07-36.8,11.09-2.11,22.38-3.18,33.67-3.18M42.73,271.13c-14.38,0-28.71,1.64-42.73,4.89-.05,16.14,1.17,32.27,3.66,48.22,8.03,8.6,16.85,16.44,26.34,23.4l24.81-15.3v.15c31.98,27.74,72.44,43.78,114.74,45.49,34.42-13.15,66.15-32.48,93.62-57.04-14.32-9.96-26.67-22.48-36.44-36.93-6.98,9.16-15.68,16.89-25.6,22.75l-10.65-5.7-45.4,3.1-9.69,13.19c-33-4.88-63.25-21.18-85.47-46.07-2.39-.09-4.79-.14-7.18-.14h0Z"/>
  <path d="M45.22,176.29c3.43.28,6.84.85,10.19,1.71.19.05.37.1.56.14.29,1.23.6,2.48.94,3.74.12.82.27,1.6.41,2.35l.11.59c1.74,9.16,4.81,17.99,9.12,26.25.12.3.26.59.41.88,14.7,27.66,42,46.66,73.04,50.83.4.05.8.08,1.2.08,2.27,0,4.47-.86,6.15-2.43l1.53-1.43,34.42-2.33c1.71,2.39,4.45,3.77,7.32,3.77.66,0,1.32-.07,1.99-.22,3.48-.79,6.95-1.7,10.38-2.75,1.24,3.37,2.61,6.69,4.11,9.95-4.01,3.34-8.34,6.27-12.93,8.76l-2.44-1.11c-1.17-.53-2.44-.81-3.72-.81-.2,0-.41,0-.61.02l-42.88,2.9c-2.64.18-5.07,1.51-6.64,3.64l-2.33,3.16c-1.48-.23-2.95-.49-4.4-.76-14.47-2.74-28.3-7.83-41.08-15.13-15.14-8.68-28.27-20.04-39.04-33.77-1.74-2.21-4.37-3.45-7.09-3.45-.86,0-1.74.12-2.59.38-2.29.69-4.16,2.24-5.27,4.25-8,0-15.98-1.58-23.39-4.58.88-5.62,1.89-11.06,3.03-16.28,5.28-2.54,10.71-4.83,16.21-6.82,2.81-1.02,4.93-3.36,5.66-6.26,2.15-8.5,4.71-16.97,7.64-25.27M40.18,167.09c-.39,0-.78,0-1.17,0-4,10.55-7.39,21.32-10.15,32.26-7.1,2.57-14.02,5.58-20.74,9.01l-.23.13c-2.16,9.12-3.82,18.44-5.06,27.75,10.3,5.44,21.74,8.25,33.32,8.25,2.49,0,4.98-.13,7.47-.39.1-1.42.22-2.79.33-4.24,11.43,14.59,25.57,26.82,41.65,36.03,13.63,7.78,28.46,13.24,43.88,16.16,3.35.64,6.73,1.16,10.15,1.57l5.5-7.47,42.88-2.9,6.38,2.9c8.79-4.19,16.83-9.8,23.78-16.62-3.91-7.5-7.08-15.37-9.47-23.49-5.89,2.2-11.93,3.99-18.06,5.38-.41-.62-2.31-3.57-2.67-4.11l-42.88,2.9-3.87,3.63c-28.24-3.79-52.92-20.97-66.29-46.13v-.07c-.06-.11-.12-.22-.16-.33-4.01-7.59-6.87-15.74-8.47-24.18-.19-1.02-.38-1.96-.51-2.9v-.09c-.81-2.96-1.51-5.93-2.07-8.98-1.99-.75-4.03-1.38-6.09-1.9-5.7-1.45-11.55-2.19-17.42-2.19h0Z"/>
  <path d="M115.7,62.42c.7,2.37,1.33,4.76,1.86,7.17-.33.62-.66,1.23-.97,1.85-.89,1.63-1.7,3.31-2.41,4.79-.01.03-.03.06-.04.09-13.46,28.83-15.45,61.38-5.61,91.64.29.9.73,1.75,1.29,2.52,10.44,14.32,24.08,26.44,39.53,35.14.81.68,1.76,1.23,2.81,1.6l.28.1c1.12.46,2.32.7,3.53.7.32,0,.63-.02.94-.05.12.01.23.02.35.03l.7.07s.07,0,.11.01c3.67.32,7.39.49,11.07.49,9.78,0,19.43-1.13,28.86-3.36-1.16,6.44-1.68,13-1.53,19.54l-.96-1.49c-1.67-2.57-4.52-4.11-7.55-4.11-.21,0-.42,0-.63.02l-41.72,2.9c-2.07.14-4.03,1-5.54,2.42l-1.12,1.06c-6.15-3.47-11.94-7.55-17.28-12.16-.96-.83-2.2-1.92-3.31-2.98-.04-.04-.09-.08-.13-.12-.6-.54-1.09-1.02-1.55-1.49-.02-.02-.05-.05-.07-.07l-1.42-1.42c-16.7-17.04-27.28-39.48-29.78-63.21-.48-4.52-4.25-7.98-8.8-8.05-5.47-.09-10.96-.61-16.36-1.53-2.71-3.78-5.18-7.75-7.37-11.85.03-.05.07-.11.1-.16l.11-.18s.05-.08.08-.12c4.35-7.12,9.27-14.39,14.64-21.63,4.32-1.27,8.72-2.38,13.1-3.3,2.4-.5,4.5-1.97,5.79-4.06,7.51-12.09,17.42-22.59,29-30.81M120.4,48.78c-16.88,9.57-31.1,23.22-41.34,39.7-5.62,1.18-11.18,2.63-16.68,4.35-5.8,7.67-11.6,16.04-16.89,24.69-1,1.58-1.99,3.13-2.9,4.73,3.45,7.24,7.65,14.1,12.53,20.47,7.03,1.43,14.17,2.21,21.34,2.34,2.73,25.86,14.12,50.04,32.33,68.6l1.45,1.45c.62.64,1.25,1.23,1.91,1.84,1.16,1.1,2.41,2.2,3.61,3.25,7.49,6.47,15.78,11.96,24.66,16.32l5.8-5.45,41.72-2.9,4.63,7.15c4.51-1.17,8.94-2.62,13.27-4.35-1.3-13.28.45-26.67,5.12-39.17-13.38,5.15-27.56,7.78-41.83,7.78-3.42,0-6.85-.15-10.27-.45-1.15-.12-2.26-.22-3.38-.36.1.05.19.13.29.19l.19.07c-.06,0-.13-.03-.19-.07l-.63-.22c.06,0,.12.01.17.01s.12,0,.17-.01c-15.14-8.18-28.26-19.65-38.4-33.55-9.1-27.99-7.24-58.38,5.21-85.05.73-1.51,1.47-3.05,2.26-4.5.78-1.55,1.64-3.1,2.49-4.55-1.45-7.64-3.68-15.11-6.66-22.3h0Z"/>
  <path d="M196.37,17.96c.37,9.31-.24,18.65-1.84,27.9-.49,2.84.41,5.74,2.41,7.8,1.71,1.76,4.04,2.73,6.46,2.73.42,0,.85-.03,1.27-.09,6.16-.88,12.44-1.32,18.66-1.32,1.72,0,3.46.03,5.18.1.12,0,.24,0,.35,0,2.98,0,5.78-1.48,7.46-3.96,4.87-7.21,11.7-12.82,19.52-16.27-3.37,10.07-5.1,20.66-5.06,31.34,0,2.84,1.36,5.51,3.64,7.2,1.57,1.16,3.45,1.77,5.36,1.77.87,0,1.74-.13,2.6-.38,12.31-3.71,27.61-8.21,42.85-12.68-7.06,4.8-13.67,9.47-18.92,13.67-.05.04-.09.08-.14.11-.78.65-2.13,1.72-3.44,2.75-1.42,1.12-2.77,2.19-3.73,2.98l-3.03,2.4c-2.1,1.67-3.35,4.18-3.4,6.86-.05,2.68,1.09,5.25,3.12,7,1.08.93,2.17,1.84,3.28,2.73-1,10.95-.56,21.97,1.32,32.83.2,1.13.6,2.21,1.21,3.19.05.08,4.82,7.83,7.1,11.61,6.93,11.51,14.86,22.53,23.58,32.74.08.1.17.2.26.29.96,1.03,1.9,2.02,2.81,2.99,9.42,9.99,14.63,15.51,15.2,28.45-.05,5.02-3.66,11.37-7.15,17.51-.96,1.7-1.95,3.42-2.88,5.17-1.63.1-3.26.15-4.88.15-11.2,0-22.42-2.42-32.64-7.01-13.25-29.78-41.02-51.38-73.33-56.74-3.6-.58-7.92-.88-12.82-.88-5.81,0-12.37.42-18.4,1.18-20.6-9.98-29.77-21.58-33.86-30.03-.24-3.86-.21-8.44-.19-13.26.05-9.76.11-19.82-1.87-28.15,2.28-13.18,6.96-25.6,13.92-37,3.93-.64,7.91-1.07,11.87-1.28,4.04-.21,7.44-3.08,8.32-7.03,1.96-8.79,5.36-17.12,10.13-24.8,1.71-2.77,3.62-5.46,5.67-8,1.28-1.58,2.63-3.12,4.03-4.6M203.55,0c-2.86,1.98-5.6,4.13-8.2,6.44-3.62,3.2-6.97,6.7-10.01,10.46-2.3,2.84-4.42,5.82-6.34,8.94-5.27,8.49-9.08,17.81-11.26,27.56-5.67.3-11.32,1-16.89,2.12-9.08,13.75-15.09,29.3-17.62,45.58,3.42,11.69,1.32,30.75,2.39,43.26,10.73,24.47,39.78,36.13,41.24,37.03,5.64-.83,12.98-1.46,19.87-1.46,4.1,0,8.04.22,11.37.77,30.58,5.07,56.29,25.74,67.82,54.51,12.34,6.17,25.9,9.35,39.6,9.35,3.57,0,7.14-.22,10.71-.65,4.35-9.75,13.24-20.64,13.2-31.36-.73-17.93-9.08-25.23-20.42-37.4-8.43-9.87-16.03-20.42-22.72-31.54-2.34-3.87-7.15-11.69-7.15-11.69-2.02-11.68-2.25-23.59-.68-35.34-2.36-1.74-4.69-3.6-6.9-5.51l3.1-2.47c1.74-1.45,5.51-4.35,7.25-5.8,16.73-13.37,48.06-31.91,64.81-45.29-27.71,8.34-69.28,20.31-96.96,28.65-.05-15.47,3.95-30.69,11.6-44.14-17.16.91-32.9,9.82-42.52,24.07-1.84-.07-3.69-.11-5.53-.11-6.67,0-13.32.47-19.93,1.41,2.71-15.68,2.76-31.7.15-47.39h0Z"/>
  <path d="M316.39,228.54c-.62-2.65-12.18-11.87-13.87-12.73-2.7-1.36-7.4,1.22-9.96,2.88-.57.37-.92,1.01-.92,1.69s.35,1.32.93,1.68l11.45,7.25c.24.15.5.25.78.29l9.36,1.38c.1.01.2.02.29.02.56,0,1.09-.23,1.47-.65.45-.49.63-1.17.47-1.81Z"/>
  <path d="M224.96,120.79c-7.4-6.6-25.22-6.81-25.98-6.82-.8.02-1.5.45-1.83,1.16-.33.71-.21,1.55.3,2.15l13.52,15.61c.24.28.56.49.91.6l22.88,7.25c.2.06.4.09.6.09.56,0,1.11-.24,1.5-.68.52-.6.65-1.44.31-2.16-.2-.44-5.06-10.82-12.22-17.21Z"/>
  <g>
    <path d="M404.81,224.1h38.91c0,11.44,4.1,20.14,12.29,26.11,7,5.12,16.38,7.68,28.16,7.68,9.22,0,16.9-1.45,23.04-4.35,8.36-3.92,12.54-10.07,12.54-18.43,0-10.41-9.39-18.26-28.16-23.55-32.43-9.22-49.92-14.5-52.48-15.87-18.78-9.04-28.16-23.3-28.16-42.75,0-17.58,7.25-31.49,21.76-41.73,12.97-9.04,28.5-13.57,46.59-13.57,20.99,0,37.97,4.52,50.94,13.57,14.85,10.41,22.27,25.52,22.27,45.31h-38.91c-1.02-18.43-13.06-27.65-36.1-27.65-7.34,0-13.57,1.54-18.69,4.61-5.98,3.76-8.96,9.13-8.96,16.13s3.33,11.52,9.98,14.59c5.12,2.39,19.97,6.74,44.54,13.06,14.34,3.58,25,7.68,32,12.29,14.85,9.56,22.27,23.21,22.27,40.96s-6.49,31.4-19.46,41.98c-13.66,11.1-32.51,16.64-56.58,16.64-22.02,0-40.11-5.2-54.27-15.62-15.87-11.78-23.72-28.24-23.55-49.41Z"/>
    <path d="M582.47,284.78V101.99h40.19v182.78h-40.19Z"/>
    <path d="M794.18,284.78l-4.1-20.74c-12.97,16.73-29.7,25.09-50.18,25.09-27.48,0-49.5-9.22-66.05-27.65-15.87-17.58-23.81-40.02-23.81-67.33s7.94-50.86,23.81-68.61c16.38-18.6,38.4-27.9,66.05-27.9,19.62,0,36.61,5.55,50.94,16.64,15.36,11.95,24.06,27.9,26.11,47.87h-38.4c-2.22-9.9-6.78-17.49-13.7-22.78-6.91-5.29-15.23-7.94-24.96-7.94-16.9,0-29.7,6.49-38.4,19.46-7.51,11.1-11.26,25.52-11.26,43.26s3.75,31.06,11.26,41.98c8.87,12.8,21.67,19.2,38.4,19.2,26.62,0,41.13-13.14,43.52-39.42h-40.45v-29.95h76.8v98.82h-25.6Z"/>
    <path d="M852.29,284.78V101.99h82.43c21.33,0,37.54,6.06,48.64,18.18,9.73,10.41,14.59,23.9,14.59,40.45s-4.86,30.04-14.59,40.45c-11.1,12.12-27.31,18.18-48.64,18.18h-42.24v65.54h-40.19ZM892.48,133.22v54.78h31.23c10.92,0,19.11-1.62,24.58-4.86,7.17-4.44,10.75-11.94,10.75-22.53s-3.58-18.09-10.75-22.53c-5.46-3.24-13.66-4.86-24.58-4.86h-31.23Z"/>
    <path d="M1212.22,152.42l-41.73,132.35h-37.38l-23.55-88.83h-.51l-22.53,88.83h-37.63l-41.98-132.35h38.4l24.32,89.86h.51l22.02-89.86h35.33l22.53,89.6h.51l24.32-89.6h37.38Z"/>
    <path d="M1227.58,284.78v-132.35h34.56v18.43h.77c9.04-14.68,22.53-22.02,40.45-22.02s31.14,4.95,38.66,14.85c6.48,8.54,9.73,21.76,9.73,39.68v81.41h-36.35v-74.75c0-21.67-7.77-32.51-23.3-32.51-9.9,0-17.07,2.99-21.5,8.96-4.44,5.98-6.66,15.62-6.66,28.93v69.38h-36.35Z"/>
    <path d="M1499.96,152.42l-55.3,148.99c-3.93,10.75-9.39,18.43-16.38,23.04-7,4.61-16.73,6.91-29.18,6.91-6.66,0-14.08-.43-22.27-1.28v-29.95c12.8,1.02,19.88,1.45,21.25,1.28,9.38-.68,14.08-6.23,14.08-16.64,0-2.9-.51-5.63-1.54-8.19l-46.59-124.16h38.91l29.95,90.62h.51l28.93-90.62h37.63Z"/>
  </g>
</svg>