<?xml version="1.0" encoding="utf-8"?>
<!-- Generator: Adobe Illustrator 23.0.2, SVG Export Plug-In . SVG Version: 6.00 Build 0)  -->
<svg version="1.1" id="Layer_1" xmlns="http://www.w3.org/2000/svg" xmlns:xlink="http://www.w3.org/1999/xlink" x="0px" y="0px"
	 viewBox="0 0 213.8 60.6" style="enable-background:new 0 0 213.8 60.6;" xml:space="preserve">
<style type="text/css">
	.st0{fill-rule:evenodd;clip-rule:evenodd;fill:#0D2C5B;}
</style>
<g>
	<path class="st0" d="M152,38l-3.1,8.7h-20l11.7-32.3h10.5L142.5,38H152L152,38z M189.7,22.6l-1.4,3.9h9.8l-2.7,7.4h-9.8l-1.5,4.1
		h9.8l-3.2,8.7h-40.1l11.7-32.3H173L164.4,38h9.2l8.6-23.6h20.4l-3,8.2H189.7L189.7,22.6z M129.8,38l-3.1,8.7h-20.4l8.6-23.6h-7.8
		l-8.6,23.6H88l8.6-23.6h-12L76,46.7H65.5L74,23.1h-7l3.2-8.7h68.2l-3,8.2h-9.8l-1.4,3.9h9.8l-2.7,7.4h-9.8L120,38H129.8L129.8,38z
		 M53.6,35.6h-2.8l4.8-8.8L53.6,35.6L53.6,35.6z M54.5,14.4L35,46.7h9.4l2.8-4.8h5.2l-0.9,4.8h10.5l4-32.3H54.5L54.5,14.4z M33,23.7
		l-0.9,2.5c-0.4,1.2-1.2,1.7-2.4,1.7H28l2.1-5.9h1.6C33,22,33.4,22.4,33,23.7L33,23.7z M28.9,35L28,37.5c-0.4,1.2-1.3,1.7-2.5,1.7
		h-1.6l2.2-6h1.6C28.9,33.2,29.3,33.8,28.9,35L28.9,35z M37.6,38.6l0.6-1.6c1.2-3.2,0.7-5.8-3-6.7c4.2-0.8,6.7-3.7,7.8-6.7l0.4-1.1
		c1.7-4.6,0.4-8.1-5.9-8.1H22.4L10.7,46.7h15.3C32.2,46.7,36,43.2,37.6,38.6L37.6,38.6z"/>
</g>
</svg>
