<?xml version="1.0" encoding="UTF-8"?>
<svg id="Layer_1" xmlns="http://www.w3.org/2000/svg" version="1.1" viewBox="0 0 2500 480.8">
  <!-- Generator: Adobe Illustrator 29.7.1, SVG Export Plug-In . SVG Version: 2.1.1 Build 8)  -->
  <defs>
    <style>
      .st0 {
        fill: #fff;
      }
    </style>
  </defs>
  <path class="st0" d="M494.5,52.1C421,16.5,342.8,0,266.1,0S111.2,16.5,37.8,52C11.8,114.1,0,178.1,0,240.5s11.7,125.5,37.7,188.2c73.8,35.7,151.7,52.1,228.5,52.1s154.7-16.4,228.5-52.1c25.9-62.6,37.6-125.9,37.6-188.1s-12.8-128.8-37.8-188.5ZM478.5,413.7c-63.8,30-136.6,46.7-212.4,46.7-75.8,0-148.6-16.7-212.4-46.7-21.4-53.7-33.2-112.2-33.2-173.2s11.8-119.6,33.3-173.5c63.8-29.9,136.5-46.7,212.3-46.7s148.5,16.8,212.3,46.7c21.5,53.9,33.3,112.4,33.3,173.5s-11.7,119.4-33.2,173.2Z"/>
  <path class="st0" d="M466.4,402.5c-13.4-22.1-31.4-39.9-31.6-40.1-1.2-.4-2.5-.8-3.7-1.2-38.2-11.8-63.3-20.6-74.4-26.3-15.2-7.9-31.3-27.1-33-29.3-17.9-1.4-32.7-1.1-46.9.7l-9.1,1.2c-17.3,2.2-35.1,4.6-52.6,1.8-11.6-1.9-22.9-5.6-34.9-9.5-18.5-6-37.4-12.3-59-12.2h-.9l.4.8c4.9,9.5,24.3,38.5,48.6,46.5,5.4,1.3,9.2,2.7,10.9,4,0,.1,9.3,19,11.8,24.1-15.1-6.9-61.9-30.6-99.6-76.5h0c0-.7-1-9.6-1.2-11.6,22.5-8.4,73-13.2,78.7-13.8h.4l.2-.5c3-26.6,9.3-47.9,21.1-71.2.3-.7.5-1.4.5-1.9s-.1-.8-.3-1.1c-.7-1.3-2.3-1.5-2.3-1.5l-34.4-6-3.7-11.4c24.8-9.2,55.4-17.9,72.9-21.7,3-4.7,3.8-7.3,3.8-10.4s-1.3-4.9-3.8-6.6c-12.4-8.4-51.5-3.3-91,11.8q-.1-.2-.2-.4c8.2-6.1,22.9-15.3,33.8-20.3l.4-.2v-.4c-3.1-10-22.4-17.6-24.5-18.4,0-.3.1-.6.1-.8,19.6-1.3,32.7,7.8,36.6,14.4l.2.3h.4c2.5-.9,11.4-3.7,21-4.9h.6l-.2-.6c-3.2-16.8-19.2-28-24.7-31.4.2-.3.2-.4.4-.6,19,1.5,36.5,17.8,40.4,31.6v.4h.5c5.1.2,11.3.7,15.4,1.4h.4c0,0,.2-.3.2-.3,1.5-3.6,2.3-7.5,2.3-11.5,0-12.4-7-25.7-15.7-34.2.2-.2.3-.5.5-.7,24.9,9.4,31.2,27.4,31.2,44.1s-3.1,22.8-5.1,29.9l-.8,2.9s36.7-4.4,39.1-4.7c-3.7,4.7-11.8,13.1-27.8,22,0-.1-16.5-2.1-16.5-2.1h-.4c0-.1-.1.3-.1.3-1.1,3.4-10.8,34-10.8,56.5s2.4,14.8,7,19.3c8.3,8,22,8.4,31.6,8,40.8-1.5,72.7,1,94.8,7.6l1.3.4.2-.3c1.4-2.1,2.4-6,2.4-11.2,0-9.9-3.9-24.5-17.2-41.2.1-.1.1-.2.3-.3,2.2,1.2,38,21.5,42.8,52.2-.8.3-17.2,7-17.2,7l.5.5c15.1,15.8,20.3,35,24.5,50.3,3.3,12.1,7.3,19.9,12.6,24.5,6.1,5.3,29.3,16.3,36.2,19.6,5.8,8.2,15.7,23.6,22.9,35.5h0c15.7-46.5,23.7-95.2,23.7-144.3s-10.2-110.4-30.1-162.3c-61.7-27.9-130.8-42.7-200.1-42.7s-138.4,14.8-200.1,42.7c-20,51.8-30.3,106.8-30.2,162.3,0,55.7,10.2,110.2,30,162,61.7,27.9,130.8,42.6,200.2,42.6,69.4.1,138.5-14.6,200.3-42.6h0ZM620.1,305s22.7,8.1,48.2,8.1,44-3.7,53.5-13.3c7.8-7.9,11-21,10.5-40.3v-128.8h40.1v134.4c-.6,59.5-29.5,84.9-96.9,84.9s-55.5-5.1-55.5-5.1v-39.9h.1ZM796.1,261c0,41,26.9,89,102.8,89s102.8-47.9,102.8-89-38.4-91.7-102.8-91.7-102.8,34.3-102.8,91.7ZM898.9,314.8c-23.4,0-62.8-7.2-62.8-55.6s22.9-54.6,62.8-54.6,62.7,19.9,62.7,54.6c0,48.3-39.2,55.6-62.7,55.6ZM1169.7,173.4v68.6h-104.2v-68.6h-40v172.6h40v-68.6h104.2v68.6h40v-172.6h-40ZM1806.1,310.6v-33.3h92.4v-35.3h-92.4v-33.3h119.4v-35.3h-159.4v172.6h159.4v-35.3h-119.4ZM1992.3,310.6v-33.3h92.4v-35.3h-92.4v-33.3h119.4v-35.3h-159.5v172.6h159.5v-35.3h-119.4ZM2380.5,310.6v-33.3h92.5v-35.3h-92.5v-33.3h119.5v-35.3h-159.5v172.6h159.5v-35.3h-119.5ZM1566.4,166.1v144.3h56.6c30.7,0,82.3-9.5,82.3-72.8s-30-71.5-82.3-71.5h-56.6ZM1623,130.5c76.7,0,122.6,40.9,122.6,109.3s-32.1,106.2-122.6,106.2h-96.8v-215.5h96.8ZM2322.1,346h-48.4l-48.3-63.1h-47v63.1h-40v-172.6h113.2c39,0,62.2,20.7,62.2,55.4s-11.6,44.1-42,51.4l50.3,65.8ZM2253.8,247.6c8.3,0,22.2-2.6,22.2-19.7s-8.1-19.2-22.2-19.2h-73.2v38.8h73.2ZM1386.5,346l-104.1-117.6v117.6h-40v-172.6h39.7l104.5,116.4v-116.4h40.1v172.6h-40.2Z"/>
</svg>