<?xml version="1.0" encoding="UTF-8"?>
<svg id="_图层_1" data-name="图层_1" xmlns="http://www.w3.org/2000/svg" version="1.1" viewBox="0 0 3650 660">
  <!-- Generator: Adobe Illustrator 29.7.1, SVG Export Plug-In . SVG Version: 2.1.1 Build 8)  -->
  <defs>
    <style>
      .st0 {
        fill: #fff;
      }

      .st1 {
        fill: #e7352c;
      }
    </style>
  </defs>
  <path class="st1" d="M216.5,490.3c0,25.5-20.7,46.2-46.2,46.2-25.5,0-46.2-20.7-46.2-46.2s20.7-46.2,46.2-46.2h0c25.5,0,46.2,20.7,46.2,46.2"/>
  <path class="st1" d="M619.8,442.1c-30.3-210.5-195.6-375.8-406.1-406.1-24.5,13-47.1,29.3-67.2,48.4v44.7c209.8.2,379.8,170.1,380.2,379.9h44.7c19-20.1,35.2-42.6,48.4-66.9"/>
  <path class="st1" d="M656,301.9c0-166-134.5-300.5-300.5-300.5-.5,0-1,0-1.6,0-10.6,0-20.9,0-31.2,1.6l-6.9,20c148.2,51.9,264.7,168.3,316.8,316.5l20-7.2c0-10,1.9-20,1.9-31.2"/>
  <path class="st1" d="M357.4,657.4c-196.8,0-356.5-159.1-357.4-355.8C-.3,206.7,37.4,115.7,104.7,48.8l20.3,19.1C-4.4,196.2-5.4,405,122.9,534.4c.7.7,1.4,1.4,2.1,2.1,128.3,129.4,337.1,130.3,466.5,2.1.7-.7,1.4-1.4,2.1-2.1l19.1,19.1c-67.9,66.9-159.9,103.6-255.2,101.8"/>
  <path class="st1" d="M353.3,529.6c6.6-71.5-24.3-141.3-81.5-184.6-30.2-23.8-66.5-38.5-104.7-42.5-9.9-1.3-17.1-10-16.6-20,.8-10.1,9.7-17.7,19.8-16.9.2,0,.3,0,.5,0,134.2,14,231.9,133.7,218.7,268-1.3,14.3-4,28.4-8.1,42.2l54.4,15.3c16.1-4.6,31.8-10.6,46.9-17.8,4-21.1,6-42.6,5.9-64-.2-169.5-123.9-313.5-291.5-339.3-18.1-3.3-36.6-3.3-54.7,0-22.9,6-43.4,18.8-59,36.5-42.2,48.8-36.8,122.6,12.1,164.8,11.7,10.1,25.4,17.8,40.1,22.6,9.7,2.3,19.5,4.1,29.4,5.3h0c52.7,9,91.2,54.6,91.2,108.1,0,21-6.1,41.5-17.5,59l37.5,24.1c18.4,5,37.2,8.2,56.2,9.4,11.2-22.5,18.2-46.8,20.6-71.9"/>
  <rect class="st0" x="3254.5" y="100.4" width="69" height="459.2"/>
  <path class="st0" d="M2136.5,367.8c29.2-13.4,47.3-43.2,45.6-75.3v-109.6c.7-22.8-8.2-44.9-24.4-60.9-15.1-14.1-35-21.9-55.6-21.9h-199.3v460.2h69.4v-184h70.9c31.6-.3,58.4,23.1,62.5,54.4l27.2,130.3h75.6l-29.4-122.1c-2.9-28.4-18.5-53.9-42.5-69.4M1972.1,165.1h118.7c12.9.6,22.9,11.6,22.3,24.5,0,.6,0,1.2-.1,1.8v93.7c1.6,12.8-7.6,24.5-20.4,26.1-.6,0-1.2.1-1.8.1h-118.7v-146.2Z"/>
  <path class="st0" d="M908.8,122.3c-16.5,16.5-25.3,39.2-24.4,62.5v293.6c-.7,22.8,8.2,44.9,24.4,60.9,15.1,14,35,21.8,55.6,21.9h187.4v-65.6h-174.9c-13.1-.6-23.2-11.7-22.6-24.8,0-.5,0-.9.1-1.4v-118.1h170.3v-64.4h-171.2v-95.6c-1.4-13,8-24.7,21.1-26.1.5,0,.9,0,1.4-.1h174.9v-64.7h-187.4c-20.6.1-40.4,7.9-55.6,21.9"/>
  <path class="st0" d="M3475.1,165.1h174.9v-64.7h-187.4c-20.6.1-40.4,7.9-55.6,21.9-16.4,16.6-25.2,39.2-24.4,62.5v374.9h69v-208.4h172.1v-64.4h-172.4v-95.6c-1.4-13,8-24.7,21.1-26.1.5,0,.9,0,1.4-.1"/>
  <path class="st0" d="M1412,286.9h-107.2c-13.4-.3-24.1-11.3-24.1-24.7v-70.9c-1.6-12.8,7.6-24.5,20.4-26.1.6,0,1.2-.1,1.8-.1h171.5v-64.7h-183.4c-20.6.1-40.4,7.9-55.6,21.9-16.5,16.5-25.3,39.2-24.4,62.5v94c0,44.6,36,80.7,80.6,80.9h107.5c13.6,0,24.7,11,24.7,24.7h0v85.6c1.4,13-8,24.7-21.1,26.1-.5,0-.9,0-1.4.1h-190.2v64.7h201.8c44,.2,79.8-35.3,80-79.3,0-1.3,0-2.6,0-3.8v-109.3c.5-44.5-35.1-81-79.7-81.5-.4,0-.8,0-1.3,0"/>
  <path class="st0" d="M2269.5,122.3c-16.5,16.5-25.3,39.2-24.4,62.5v293.6c-.7,22.8,8.2,44.9,24.4,60.9,15.1,14,35,21.8,55.6,21.9h187.4v-65.6h-174.9c-12.9-.6-22.9-11.6-22.3-24.5,0-.6,0-1.2.1-1.8v-118.1h172.1v-64.4h-173.4v-95.6c-1.6-12.8,7.6-24.5,20.4-26.1.6,0,1.2-.1,1.8-.1h174.9v-64.7h-187.4c-20.6.1-40.4,7.9-55.6,21.9"/>
  <path class="st0" d="M2772.8,286.9h-107.2c-13.6,0-24.7-11-24.7-24.7h0v-70.9c-1.6-12.8,7.6-24.5,20.4-26.1.6,0,1.2-.1,1.8-.1h172.1v-64.7h-183.7c-20.5.2-40.2,8-55.3,21.9-16.5,16.5-25.3,39.2-24.4,62.5v94c-.2,44.5,35.8,80.7,80.3,80.9.1,0,.2,0,.3,0h107.2c13.6,0,24.7,11,24.7,24.7h0v85.6c1.6,12.8-7.6,24.5-20.4,26.1-.6,0-1.2.1-1.8.1h-190.2v64.7h201.8c20.6-.1,40.3-8,55.3-22.2,16.8-16.4,25.7-39.1,24.7-62.5v-109.3c0-44.5-36.1-80.6-80.6-80.6-.1,0-.2,0-.3,0"/>
  <path class="st0" d="M3111.4,286.9h-107.2c-13.6,0-24.7-11-24.7-24.7h0v-70.9c-1.6-12.8,7.6-24.5,20.4-26.1.6,0,1.2-.1,1.8-.1h172.1v-64.7h-183.4c-20.6.1-40.4,7.9-55.6,21.9-16.5,16.5-25.3,39.2-24.4,62.5v94c0,44.6,36,80.7,80.6,80.9h107.5c13.6,0,24.7,11,24.7,24.7h0v85.6c1.4,13-8,24.7-21.1,26.1-.5,0-.9,0-1.4.1h-190.2v64.7h201.8c44,.2,79.8-35.3,80-79.3,0-1.3,0-2.5,0-3.8v-109.3c.5-44.5-35.1-81-79.7-81.5-.4,0-.8,0-1.3,0"/>
  <path class="st0" d="M1764.4,100.1h-209v460.2h69v-178.7h140c20.6,0,40.3-7.8,55.3-21.9,16.8-16.4,25.7-39.1,24.7-62.5v-114.3c.5-22.8-8.4-44.9-24.7-60.9-15-14.1-34.7-21.9-55.3-21.9M1775,291c1.6,12.8-7.6,24.5-20.4,26.1-.6,0-1.2.1-1.8.1h-128.4v-152.8h128.4c12.9.6,22.9,11.6,22.3,24.5,0,.6,0,1.2-.1,1.8v100.3Z"/>
</svg>