<?xml version="1.0" encoding="UTF-8"?>
<svg id="Layer_1" xmlns="http://www.w3.org/2000/svg" version="1.1" viewBox="0 0 256 256">
  <!-- Generator: Adobe Illustrator 29.7.1, SVG Export Plug-In . SVG Version: 2.1.1 Build 8)  -->
  <defs>
    <style>
      .st0 {
        fill: #fff;
      }

      .st1 {
        fill: #e6352d;
      }
    </style>
  </defs>
  <rect class="st0" width="256" height="256"/>
  <g>
    <g>
      <path d="M91.1,181.3c0,8.5-6.9,15.3-15.3,15.3-8.5,0-15.3-6.9-15.3-15.3,0-8.5,6.9-15.3,15.3-15.3h0c8.5,0,15.3,6.9,15.3,15.3"/>
      <path d="M224.6,165.3c-10-69.7-64.8-124.5-134.5-134.5-8.1,4.3-15.6,9.7-22.2,16v14.8c69.5,0,125.8,56.3,125.9,125.8h14.8c6.3-6.7,11.7-14.1,16-22.1"/>
      <path d="M236.6,118.9c0-55-44.6-99.5-99.5-99.5-.2,0-.3,0-.5,0-3.5,0-6.9,0-10.3.5l-2.3,6.6c49.1,17.2,87.7,55.7,104.9,104.8l6.6-2.4c0-3.3.6-6.6.6-10.3"/>
      <path d="M137.7,236.6c-65.2,0-118.1-52.7-118.3-117.8,0-31.4,12.4-61.5,34.7-83.7l6.7,6.3c-42.8,42.5-43.2,111.6-.7,154.5.2.2.5.5.7.7,42.5,42.8,111.6,43.2,154.5.7.2-.2.5-.5.7-.7l6.3,6.3c-22.5,22.1-53,34.3-84.5,33.7"/>
      <path d="M136.4,194.3c2.2-23.7-8-46.8-27-61.1-10-7.9-22-12.7-34.7-14.1-3.3-.4-5.7-3.3-5.5-6.6.3-3.4,3.2-5.9,6.6-5.6,0,0,.1,0,.2,0,44.4,4.6,76.8,44.3,72.4,88.8-.4,4.7-1.3,9.4-2.7,14l18,5.1c5.3-1.5,10.5-3.5,15.5-5.9,1.3-7,2-14.1,2-21.2,0-56.1-41-103.8-96.5-112.3-6-1.1-12.1-1.1-18.1,0-7.6,2-14.4,6.2-19.6,12.1-14,16.2-12.2,40.6,4,54.6,3.9,3.4,8.4,5.9,13.3,7.5,3.2.8,6.5,1.4,9.7,1.8h0c17.4,3,30.2,18.1,30.2,35.8,0,6.9-2,13.7-5.8,19.6l12.4,8c6.1,1.7,12.3,2.7,18.6,3.1,3.7-7.4,6-15.5,6.8-23.8"/>
    </g>
    <g>
      <path class="st1" d="M91.1,181.3c0,8.5-6.9,15.3-15.3,15.3-8.5,0-15.3-6.9-15.3-15.3,0-8.5,6.9-15.3,15.3-15.3h0c8.5,0,15.3,6.9,15.3,15.3"/>
      <path class="st1" d="M224.6,165.3c-10-69.7-64.8-124.5-134.5-134.5-8.1,4.3-15.6,9.7-22.2,16v14.8c69.5,0,125.8,56.3,125.9,125.8h14.8c6.3-6.7,11.7-14.1,16-22.1"/>
      <path class="st1" d="M236.6,118.9c0-55-44.6-99.5-99.5-99.5-.2,0-.3,0-.5,0-3.5,0-6.9,0-10.3.5l-2.3,6.6c49.1,17.2,87.7,55.7,104.9,104.8l6.6-2.4c0-3.3.6-6.6.6-10.3"/>
      <path class="st1" d="M137.7,236.6c-65.2,0-118.1-52.7-118.3-117.8,0-31.4,12.4-61.5,34.7-83.7l6.7,6.3c-42.8,42.5-43.2,111.6-.7,154.5.2.2.5.5.7.7,42.5,42.8,111.6,43.2,154.5.7.2-.2.5-.5.7-.7l6.3,6.3c-22.5,22.1-53,34.3-84.5,33.7"/>
      <path class="st1" d="M136.4,194.3c2.2-23.7-8-46.8-27-61.1-10-7.9-22-12.7-34.7-14.1-3.3-.4-5.7-3.3-5.5-6.6.3-3.4,3.2-5.9,6.6-5.6,0,0,.1,0,.2,0,44.4,4.6,76.8,44.3,72.4,88.8-.4,4.7-1.3,9.4-2.7,14l18,5.1c5.3-1.5,10.5-3.5,15.5-5.9,1.3-7,2-14.1,2-21.2,0-56.1-41-103.8-96.5-112.3-6-1.1-12.1-1.1-18.1,0-7.6,2-14.4,6.2-19.6,12.1-14,16.2-12.2,40.6,4,54.6,3.9,3.4,8.4,5.9,13.3,7.5,3.2.8,6.5,1.4,9.7,1.8h0c17.4,3,30.2,18.1,30.2,35.8,0,6.9-2,13.7-5.8,19.6l12.4,8c6.1,1.7,12.3,2.7,18.6,3.1,3.7-7.4,6-15.5,6.8-23.8"/>
    </g>
  </g>
</svg>