<?xml version="1.0" encoding="UTF-8"?><svg id="a" xmlns="http://www.w3.org/2000/svg" viewBox="0 0 720 216"><g id="c"><path d="m86.84,189.19l-12.32-68.2h-6.38v68.2h-23.76V27.49h23.76c28.38,0,40.48,16.06,40.48,46.64,0,16.06-4.18,30.58-13.2,36.74l15.18,78.32h-23.76Zm-18.7-90.2c3.3,0,7.7-.44,11.22-3.52,3.52-3.08,6.38-9.02,6.38-20.46s-2.86-17.6-6.38-20.68-7.92-3.3-11.22-3.3v47.96Z" style="fill:#4e4e4e;"/><path d="m123.79,27.49h54.34v24.42h-30.58v42.46h22v25.96h-22v44.44h30.58v24.42h-54.34V27.49Z" style="fill:#4e4e4e;"/><path d="m191.33,189.19V27.49h18.7c22,0,33.88,4.4,40.26,16.72,6.16,12.32,7.04,32.56,7.04,64.24s-.88,51.7-7.04,64.02c-6.38,12.32-18.26,16.72-40.26,16.72h-18.7Zm23.76-23.76c8.14,0,12.76-.88,15.18-8.8,1.1-3.74,1.98-9.46,2.2-17.16.22-7.7.22-18.04.22-31.24s0-23.54-.22-31.24c-.22-7.48-1.1-13.2-2.2-17.16-2.42-7.7-7.04-8.58-15.18-8.58v114.18Z" style="fill:#4e4e4e;"/><g id="d"><path d="m269.8,26.49h23.76v139.7h31.46v22h-55.22V26.49Z" style="fill:#fff;"/><path d="m368.36,96.45c0-1.98,0-5.06-.66-7.26-.88-2.2-2.64-3.74-5.5-3.74-3.74,0-5.28,2.86-5.94,6.38-.22,1.76-.44,3.74-.44,5.72v5.72h-22.22v-5.06c0-8.8,3.3-16.72,8.58-22.66s12.76-9.46,21.34-9.46c7.26,0,13.86,2.86,18.92,7.7,5.06,4.84,8.14,11.66,8.14,19.58v73.92c0,10.78.66,15.62,1.54,20.9h-21.78c-1.98-2.42-1.98-8.14-1.98-9.68h-1.54c-1.1,1.98-3.08,4.84-6.16,7.26s-7.26,4.18-11.66,4.18c-2.86,0-7.48-1.1-11-5.5-3.74-4.18-6.82-11.66-6.82-24.2,0-13.42,3.96-23.1,9.24-29.7,5.28-6.6,11.88-10.78,17.38-13.64s9.68-4.84,10.56-7.26v-13.2Zm0,33.66c-10.78,4.62-15.4,15.4-15.4,26.84,0,1.54.22,4.18,1.1,6.6.88,2.64,2.42,4.62,5.06,4.62,5.06,0,9.24-3.08,9.24-7.26v-30.8Z" style="fill:#fff;"/><path d="m431.06,38.15v29.7h15.18v20.02h-15.18v59.84c0,3.74,0,8.58.88,12.54.88,3.96,2.64,7.26,6.16,7.26,1.76,0,3.96-.22,5.5-.44.88-.22,1.76-.22,2.64-.44v21.78c-1.1.22-2.2.66-3.3.88-2.2.44-5.06.66-8.58.66-12.98,0-19.14-6.6-22.22-14.96s-3.3-18.48-3.3-25.52v-61.6h-11.22v-20.02h11.22v-29.7h22.22Z" style="fill:#fff;"/><path d="m483.64,38.15v29.7h15.18v20.02h-15.18v59.84c0,3.74,0,8.58.88,12.54.88,3.96,2.64,7.26,6.16,7.26,1.76,0,3.96-.22,5.5-.44.88-.22,1.76-.22,2.64-.44v21.78c-1.1.22-2.2.66-3.3.88-2.2.44-5.06.66-8.58.66-12.98,0-19.14-6.6-22.22-14.96s-3.3-18.48-3.3-25.52v-61.6h-11.22v-20.02h11.22v-29.7h22.22Z" style="fill:#fff;"/><path d="m510.7,26.49h22.22v22.22h-22.22v-22.22Zm0,161.7v-120.34h22.22v120.34h-22.22Z" style="fill:#fff;"/><path d="m570.54,160.47c0,4.4.22,9.68,6.16,9.68,5.06,0,6.38-2.42,6.38-9.68v-16.72h22.22v11.66c0,13.42-2.42,22-7.26,27.28-4.84,5.28-11.88,7.26-21.34,7.26-7.92,0-15.18-2.2-20.24-7.7-5.06-5.5-8.14-14.52-8.14-27.94v-52.58c0-13.42,3.08-22.44,8.14-27.94,5.06-5.5,12.32-7.7,20.24-7.7,9.46,0,16.5,1.98,21.34,7.26,4.84,5.28,7.26,13.86,7.26,27.28v9.46h-22.22v-14.52c0-7.26-1.32-9.68-6.38-9.68-5.94,0-6.16,5.28-6.16,9.68v64.9Z" style="fill:#fff;"/><path d="m675.03,145.07v13.86c-.66,11.66-4.18,19.8-12.1,26.18-3.96,3.3-9.46,4.84-16.72,4.84-14.3,0-21.56-7.92-25.08-15.84-1.98-4.62-3.3-9.9-3.52-15.84v-60.5c.66-11.66,4.4-20.24,12.32-26.84,3.74-3.3,9.24-4.84,16.5-4.84,14.3,0,21.56,7.92,25.08,15.62,1.98,4.62,3.3,9.68,3.52,15.4v34.98h-36.74v26.18c.22,4.62,1.54,7.92,3.52,10.34,1.1,1.1,2.64,1.76,4.62,1.76,4.18,0,6.16-2.64,7.04-5.94.66-1.76.88-3.74.88-6.16v-13.2h20.68Zm-36.74-30.36h16.06v-16.94c0-4.62-.88-7.92-3.08-10.56-1.1-1.1-2.86-1.76-4.84-1.76-4.18,0-5.94,2.86-7.04,6.16-.66,1.76-.88,3.74-1.1,6.16v16.94Z" style="fill:#fff;"/></g></g></svg>