<?xml version="1.0" encoding="UTF-8" standalone="no"?>
<svg
   xmlns:dc="http://purl.org/dc/elements/1.1/"
   xmlns:cc="http://creativecommons.org/ns#"
   xmlns:rdf="http://www.w3.org/1999/02/22-rdf-syntax-ns#"
   xmlns:svg="http://www.w3.org/2000/svg"
   xmlns="http://www.w3.org/2000/svg"
   xmlns:sodipodi="http://sodipodi.sourceforge.net/DTD/sodipodi-0.dtd"
   xmlns:inkscape="http://www.inkscape.org/namespaces/inkscape"
   version="1.0"
   width="4000.000000pt"
   height="1400.000000pt"
   viewBox="0 0 4000.000000 1400.000000"
   preserveAspectRatio="xMidYMid meet"
   id="svg3757"
   sodipodi:docname="ret2vector.svg"
   inkscape:version="0.92.2 (5c3e80d, 2017-08-06)">
  <defs
     id="defs3761" />
  <sodipodi:namedview
     pagecolor="#ffffff"
     bordercolor="#666666"
     borderopacity="1"
     objecttolerance="10"
     gridtolerance="10"
     guidetolerance="10"
     inkscape:pageopacity="0"
     inkscape:pageshadow="2"
     inkscape:window-width="1920"
     inkscape:window-height="1017"
     id="namedview3759"
     showgrid="false"
     inkscape:zoom="0.3309375"
     inkscape:cx="2666.6667"
     inkscape:cy="1054.2021"
     inkscape:window-x="1912"
     inkscape:window-y="-8"
     inkscape:window-maximized="1"
     inkscape:current-layer="g3755" />
  <metadata
     id="metadata3731">
Created by potrace 1.14, written by Peter Selinger 2001-2017
<rdf:RDF>
  <cc:Work
     rdf:about="">
    <dc:format>image/svg+xml</dc:format>
    <dc:type
       rdf:resource="http://purl.org/dc/dcmitype/StillImage" />
    <dc:title></dc:title>
  </cc:Work>
</rdf:RDF>
</metadata>
  <g
     transform="translate(0.000000,1400.000000) scale(0.100000,-0.100000)"
     id="g3755"
     stroke="none"
     fill="#000000">
    <rect
       id="rect3765"
       width="39433.43"
       height="13478.754"
       x="317.28046"
       y="-13773.371"
       transform="scale(1,-1)"
       style="fill:#ffffff;stroke-width:7.37782478" />
    <path
       d="M0 7000 l0 -7000 20000 0 20000 0 0 7000 0 7000 -20000 0 -20000 0 0 -7000z m13378 3163 l1677 1677 2430 -2430 2430 -2430 -2430 -2430 -2430 -2430 -2285 2285 -2285 2285 -463 -463 -464 -464 2287 -2278 2286 -2279 -143 -143 -143 -143 -2282 2282 -2283 2283 -1680 -1680 -1680 -1680 -2430 2430 -2430 2430 2430 2430 2430 2430 2285 -2285 2285 -2285 462 463 463 462 -2283 2283 -2282 2282 142 143 143 142 2282 -2282 2283 -2283 1678 1678z m24178 1763 c801 -170 1344 -813 1344 -1591 0 -334 -106 -680 -297 -970 -33 -49 -470 -592 -973 -1205 l-913 -1115 1092 -3 1091 -2 0 -310 0 -310 -1751 0 c-1400 0 -1750 3 -1742 13 6 6 534 656 1174 1442 641 787 1208 1484 1261 1550 190 237 318 455 375 640 25 82 27 104 27 250 1 189 -15 259 -93 420 -135 276 -377 478 -686 572 -83 25 -104 27 -270 27 -158 1 -190 -2 -265 -22 -243 -66 -465 -227 -604 -436 -93 -139 -158 -308 -174 -456 l-7 -65 -337 -3 c-317 -2 -338 -1 -338 15 0 41 32 208 59 314 150 580 513 997 1026 1179 219 77 380 100 665 96 184 -4 232 -8 336 -30z m-14736 -95 c404 -42 681 -128 915 -283 106 -70 295 -260 369 -370 113 -171 192 -359 238 -571 19 -88 22 -131 22 -312 0 -180 -3 -225 -23 -315 -65 -305 -193 -556 -385 -758 -199 -208 -440 -345 -716 -407 -63 -15 -127 -29 -141 -33 -25 -7 2 -45 798 -1142 454 -624 838 -1154 854 -1177 l30 -43 -410 0 -410 0 -798 1148 -799 1147 -142 3 -142 3 0 -1151 0 -1150 -335 0 -335 0 0 2716 0 2716 653 -5 c362 -3 699 -10 757 -16z m6490 -291 l0 -310 -1120 0 -1120 0 0 -760 0 -760 1090 0 1090 0 0 -310 0 -310 -1090 0 -1090 0 0 -1025 0 -1025 1120 0 1120 0 0 -310 0 -310 -1455 0 -1455 0 0 2715 0 2715 1455 0 1455 0 0 -310z m4670 0 l0 -310 -645 0 -645 0 0 -2405 0 -2405 -340 0 -340 0 0 2405 0 2405 -645 0 -645 0 0 310 0 310 1630 0 1630 0 0 -310z m4940 -7740 l0 -1680 -8760 0 -8760 0 0 1680 0 1680 8760 0 8760 0 0 -1680z"
       id="path3733" />
    <path
       d="M3770 9135 l-2145 -2145 2148 -2147 2147 -2148 1535 1535 1535 1535 -735 735 -735 735 143 143 142 142 735 -735 735 -735 453 453 c250 248 458 463 463 476 9 24 -113 148 -2128 2163 -1176 1176 -2140 2138 -2143 2138 -3 0 -970 -965 -2150 -2145z"
       id="path3735" />
    <path
       d="M13515 9739 l-1536 -1533 736 -736 735 -735 -142 -143 -143 -142 -735 735 -735 735 -457 -457 c-251 -252 -459 -467 -462 -479 -5 -17 355 -381 2134 -2158 l2140 -2138 458 450 c251 248 1220 1214 2152 2146 l1695 1696 -1775 1776 c-976 976 -1945 1942 -2152 2146 l-378 370 -1535 -1533z"
       id="path3737" />
    <path
       d="M22080 10261 l0 -981 213 0 c235 0 397 12 562 40 398 69 659 233 785 494 57 120 77 192 92 344 9 87 9 141 -1 230 -50 482 -370 745 -1016 832 -44 6 -205 14 -357 17 l-278 6 0 -982z"
       id="path3739" />
    <path
       d="M33847 5150 c-7 -18 -517 -2621 -517 -2638 0 -9 44 -12 163 -12 l162 0 149 844 c83 465 153 843 156 841 4 -2 177 -391 385 -865 208 -473 381 -860 385 -860 3 0 177 389 386 865 208 475 381 865 384 865 3 0 73 -380 155 -845 l149 -845 163 0 c90 0 163 3 163 8 1 18 -514 2638 -519 2644 -4 4 -202 -440 -440 -988 -239 -547 -437 -996 -440 -998 -4 -3 -531 1194 -867 1973 -9 19 -13 22 -17 11z"
       id="path3741" />
    <path
       d="M22641 5106 c-311 -60 -519 -235 -587 -496 -22 -84 -22 -226 0 -309 59 -228 222 -364 649 -542 218 -91 294 -135 378 -218 59 -59 81 -89 99 -136 62 -162 20 -371 -101 -509 -151 -172 -427 -198 -634 -61 -106 71 -176 184 -197 322 -11 67 -14 74 -32 69 -11 -3 -79 -17 -151 -32 -71 -15 -134 -30 -139 -35 -5 -5 -2 -38 9 -81 78 -325 324 -565 631 -619 96 -17 301 -6 389 20 334 99 551 372 572 716 17 303 -106 535 -371 694 -95 58 -143 79 -374 171 -191 76 -265 117 -331 182 -167 164 -108 417 124 528 186 89 404 53 536 -87 30 -32 61 -69 69 -82 l15 -23 128 77 127 76 -17 27 c-102 164 -257 282 -435 332 -96 27 -260 34 -357 16z"
       id="path3743" />
    <path
       d="M27455 5109 c-174 -25 -325 -98 -440 -214 -127 -126 -185 -266 -185 -439 0 -161 48 -281 156 -396 108 -114 208 -172 523 -307 214 -91 299 -140 372 -212 83 -84 112 -152 117 -277 6 -157 -34 -269 -135 -375 -92 -96 -197 -141 -334 -141 -174 0 -346 93 -426 230 -34 57 -63 154 -63 208 l0 45 -32 -6 c-18 -4 -91 -19 -163 -34 l-130 -27 3 -30 c26 -237 207 -492 426 -599 128 -63 222 -85 366 -85 396 0 717 250 795 618 19 87 19 268 0 357 -28 133 -117 282 -218 367 -114 95 -232 158 -472 253 -228 90 -298 127 -371 200 -76 75 -99 134 -92 234 9 123 83 223 212 286 156 77 331 71 465 -15 51 -33 122 -107 150 -157 7 -13 29 -3 130 57 67 40 124 76 126 80 7 12 -54 100 -113 162 -167 175 -410 254 -667 217z"
       id="path3745" />
    <path
       d="M37535 5109 c-367 -53 -624 -321 -625 -650 0 -213 97 -383 294 -513 102 -68 147 -90 376 -188 222 -95 307 -143 381 -217 67 -68 105 -143 118 -233 34 -244 -120 -486 -348 -548 -104 -28 -256 -8 -365 47 -135 68 -246 239 -246 379 0 24 -2 44 -4 44 -7 0 -299 -61 -312 -65 -9 -3 -8 -20 2 -68 65 -313 288 -550 588 -627 116 -29 283 -28 409 4 152 39 264 102 373 211 77 76 98 105 137 185 66 133 88 226 88 375 0 255 -89 439 -280 583 -100 76 -221 137 -428 218 -287 112 -376 171 -434 289 -29 59 -31 71 -27 137 6 92 37 156 107 221 192 180 515 164 670 -33 23 -29 45 -59 50 -67 7 -13 29 -3 130 57 67 40 124 77 127 82 8 12 -76 125 -138 185 -163 157 -398 227 -643 192z"
       id="path3747" />
    <path
       d="M24141 5038 c7 -13 194 -337 416 -721 l403 -699 0 -559 0 -559 160 0 160 0 0 557 0 556 415 719 c228 395 415 721 415 723 0 3 -82 4 -182 3 l-183 -3 -307 -535 c-169 -294 -311 -536 -315 -537 -5 -2 -148 240 -318 537 l-310 540 -183 0 -183 0 12 -22z"
       id="path3749" />
    <path
       d="M28950 4915 l0 -145 300 0 300 0 0 -1135 0 -1135 160 0 160 0 0 1135 0 1135 305 0 305 0 0 145 0 145 -765 0 -765 0 0 -145z"
       id="path3751" />
    <path
       d="M31240 3780 l0 -1280 690 0 690 0 0 145 0 145 -527 2 -528 3 -3 483 -2 482 515 0 515 0 0 145 0 145 -512 2 -513 3 -3 358 -2 357 530 0 530 0 0 145 0 145 -690 0 -690 0 0 -1280z"
       id="path3753" />
  </g>
</svg>
