<?xml version="1.0" encoding="UTF-8"?>
<svg xmlns="http://www.w3.org/2000/svg" viewBox="0 0 880 245" fill='#ffffff'>
  <g>
    <path d="m432.47,50.5h-100.03v-24h133.27v24l-104.26,139v5h103.98v24h-137.51v-24l104.54-139v-5Z"/>
    <path d="m533.04,221.89c-10.35,0-19.44-1.88-27.25-5.65-7.81-3.76-14.31-8.94-19.48-15.53-5.18-6.59-9.04-14.49-11.58-23.72-2.54-9.22-3.81-19.39-3.81-30.49s1.36-21.04,4.09-30.35c2.73-9.32,6.78-17.27,12.14-23.86,5.36-6.59,11.86-11.76,19.48-15.53,7.62-3.76,16.42-5.65,26.4-5.65s19.38,1.79,27.11,5.36c7.72,3.58,14.12,8.47,19.2,14.68,5.08,6.21,8.89,13.51,11.44,21.88,2.54,8.38,3.81,17.36,3.81,26.97v13.55h-96.85v15.25c0,5.27.99,9.93,2.96,13.98,1.98,4.05,4.66,7.48,8.05,10.31,3.39,2.82,7.2,4.94,11.44,6.35,4.24,1.41,8.61,2.12,13.13,2.12,9.04,0,16.84-2.3,23.44-6.92,6.59-4.61,10.35-11.9,11.29-21.88h25.41c-.56,7.72-2.59,14.59-6.07,20.61-3.49,6.03-8,11.15-13.55,15.39-5.55,4.24-11.82,7.48-18.78,9.74-6.97,2.26-14.31,3.39-22.02,3.39Zm35.29-96.57c0-5.27-.95-10.02-2.82-14.26-1.88-4.24-4.47-7.81-7.76-10.73-3.3-2.92-7.06-5.13-11.29-6.64-4.24-1.5-8.71-2.26-13.41-2.26s-9.18.75-13.41,2.26c-4.24,1.51-8,3.72-11.29,6.64-3.3,2.92-5.89,6.49-7.76,10.73-1.88,4.24-2.82,8.99-2.82,14.26v7.91h70.59v-7.91Z"/>
    <g>
      <rect x="714.51" y="26.5" width="26.54" height="26.54"/>
      <path d="m613.43,218.5V26.5h25.41v192h-25.41Z"/>
      <path d="m664.25,218.5V26.5h25.41v192h-25.41Z"/>
      <rect x="715.08" y="74.5" width="25.41" height="144"/>
    </g>
    <path d="m759.64,147.63c0-11.48,1.36-21.98,4.09-31.48,2.73-9.5,6.73-17.55,12-24.14,5.27-6.59,11.76-11.72,19.48-15.39,7.72-3.67,16.47-5.51,26.26-5.51,7.53,0,14.63.99,21.32,2.96,6.68,1.98,12.57,5.04,17.65,9.18,5.08,4.14,9.22,9.41,12.42,15.81,3.2,6.4,5.17,13.93,5.93,22.59h-25.41c-.56-5.83-1.79-10.68-3.67-14.54-1.88-3.86-4.33-6.96-7.34-9.32-3.01-2.35-6.45-4-10.31-4.94-3.86-.94-7.86-1.41-12-1.41s-8.47.71-12.42,2.12c-3.95,1.41-7.53,3.53-10.73,6.35-3.2,2.82-5.74,6.35-7.62,10.59-1.88,4.24-2.82,9.18-2.82,14.82v42.35c0,5.08.89,9.74,2.68,13.98,1.79,4.24,4.24,7.81,7.34,10.73,3.11,2.92,6.68,5.18,10.73,6.78,4.05,1.6,8.42,2.4,13.13,2.4,9.41,0,17.22-2.54,23.44-7.62,6.21-5.08,9.79-12.99,10.73-23.72h25.41c-.94,8.85-3.2,16.52-6.78,23.01-3.58,6.49-8,11.86-13.27,16.09-5.27,4.24-11.25,7.39-17.93,9.46-6.68,2.07-13.69,3.11-21.04,3.11-10.54,0-19.62-1.84-27.25-5.51-7.62-3.67-13.98-8.85-19.06-15.53-5.08-6.68-8.85-14.54-11.29-23.58-2.45-9.04-3.67-18.92-3.67-29.65Z"/>
  </g>
  <g>
    <polygon points="84 2.5 84 99.41 68 90.17 68 2.5 84 2.5"/>
    <polygon points="116 2.5 116 117.88 100 108.64 100 2.5 116 2.5"/>
    <polygon points="8.08 111 92 159.45 76 168.69 .08 124.85 8.08 111"/>
    <polygon points="24.08 83.28 124 140.97 108 150.21 16.08 97.14 24.08 83.28"/>
    <polygon points="64.08 231 148 182.54 148 201.02 72.08 244.85 64.08 231"/>
    <polygon points="48.08 203.28 148 145.59 148 164.07 56.08 217.14 48.08 203.28"/>
    <polygon points="196 242.5 196 145.59 212 154.83 212 242.5 196 242.5"/>
    <polygon points="164 242.5 164 127.12 180 136.36 180 242.5 164 242.5"/>
    <polygon points="271.92 134 188 85.55 204 76.31 279.92 120.15 271.92 134"/>
    <polygon points="255.92 161.72 156 104.03 172 94.79 263.92 147.86 255.92 161.72"/>
    <polygon points="215.92 14 132 62.46 132 43.98 207.92 .15 215.92 14"/>
    <polygon points="231.92 41.72 132 99.41 132 80.93 223.92 27.86 231.92 41.72"/>
  </g>
</svg>