<svg xmlns="http://www.w3.org/2000/svg" viewBox="0 0 165.22 63.54">
  <title>SNL Logo</title>
  <g>
    <g>
      <g>
        <g>
          <path d="M31.72,57A171.19,171.19,0,0,0,49,56.3c5.06-.5,6.71-2.77,7.16-7.16a164.27,164.27,0,0,0,.68-17.33,173.18,173.18,0,0,0-.68-17.32c-.44-4.42-2-6.67-7.16-7.17-7.79-.75-15.66-.66-17.28-.66s-9.49-.11-17.28.66c-5.27.53-6.74,3-7.16,7.17A170.65,170.65,0,0,0,6.6,31.81a161.42,161.42,0,0,0,.68,17.33c.47,4.47,2.19,6.67,7.16,7.16,7.79.76,15.7.67,17.28.67v6.56a190.55,190.55,0,0,1-20.56-.86A12,12,0,0,1,.84,51.92,173.5,173.5,0,0,1,0,31.81,181.34,181.34,0,0,1,.84,11.7,12.22,12.22,0,0,1,11.16,1,175.48,175.48,0,0,1,31.72,0,183.23,183.23,0,0,1,52.28,1c5.84.68,9.84,5.93,10.32,10.75a187,187,0,0,1,.82,20.11,172.32,172.32,0,0,1-.82,20.11A11.93,11.93,0,0,1,52.28,62.67a195.55,195.55,0,0,1-20.56.86Z" style="fill: #fff"/>
          <path d="M37.4,11.14l.4,8.77H50.71a3.13,3.13,0,0,0,.95-.09c.6,13.65.12,17.92-.12,26.69l-5.92.35c.24-3.79.3-7.2.3-9.28l-2.16.06a.62.62,0,0,0-.34.06l-.29-8.29h-5L38.87,53a142,142,0,0,1-14.3,0l.82-23.61H20.31L20,37.7a.64.64,0,0,0-.34-.06l-2.17-.06c0,2.08.06,5.49.3,9.28l-5.92-.35c-.24-8.77-.71-13-.12-26.69a3.13,3.13,0,0,0,1,.09h13l.16-4.86-5,.2a2.43,2.43,0,0,0,.18-.72l.2-3.34a1.92,1.92,0,0,0-.14-.74c5.77-.24,9.81-.38,16.4-.14C37.47,10.77,37.4,11,37.4,11.14Z" style="fill: #fff"/>
        </g>
        <g>
          <g>
            <path d="M125.52,13.79c0-1.17,0-2.37,0-3.37,0-2.32-1.23-3.81-3.86-3.81-2.82,0-4,1.36-3.92,3.79h2.46c.06-1.1-.1-2.1,1.37-2.1s1.41,1,1.48,2.08a3.92,3.92,0,0,1,0,1.09,14.32,14.32,0,0,0-3.31.5c-1.24.42-2.25,1.29-2.25,3.51,0,1.91.38,3.76,2.87,3.92A3.22,3.22,0,0,0,123,18.19s.13,0,.26,1h2.38s-.09-2.31-.09-4.71l-2.45,0c0,.25,0,.5,0,.73-.1.92-.39,2.2-1.86,2.2s-1.37-1.56-1.19-2.74,1.37-1.43,3.08-1.51c0,0,0,.25,0,.61" style="fill: #fff"/>
            <path d="M125.52,13.79c0,.23,0,.45,0,.68l-2.45,0v-.71" style="fill: #fff"/>
          </g>
          <polygon points="116.44 6.8 113.96 6.8 113.96 19.19 116.45 19.19 116.44 6.8" style="fill: #fff"/>
          <g>
            <path d="M93.37,13.79c0-1.17,0-2.37,0-3.37,0-2.32-1.23-3.81-3.87-3.81-2.81,0-4,1.36-3.91,3.79H88c0-1.1-.1-2.1,1.37-2.1s1.41,1,1.48,2.08a3.92,3.92,0,0,1,0,1.09,14.32,14.32,0,0,0-3.31.5c-1.24.42-2.26,1.29-2.26,3.51,0,1.91.39,3.76,2.87,3.92a3.24,3.24,0,0,0,2.64-1.21s.13,0,.26,1h2.38s-.1-2.31-.09-4.71l-2.46,0c0,.25,0,.5,0,.73-.1.92-.39,2.2-1.86,2.2s-1.37-1.56-1.2-2.74,1.37-1.43,3.08-1.51c0,0,0,.25,0,.61" style="fill: #fff"/>
            <path d="M93.37,13.79v.68l-2.46,0c0-.25,0-.49,0-.71" style="fill: #fff"/>
          </g>
          <path d="M97.11,6.8H94.62a19.81,19.81,0,0,1,.17,3v9.44h2.52V10c0-.85.33-1.71,1.49-1.71a1.5,1.5,0,0,1,1.52,1.65v9.27h2.54v-9c0-2.59-1.21-3.61-3.15-3.61a3.16,3.16,0,0,0-2.51,1A2.83,2.83,0,0,1,97.11,6.8Z" style="fill: #fff"/>
          <path d="M109.88,12.63V10a1.56,1.56,0,0,0-1.66-1.74c-1.44,0-1.63,1-1.63,4.45,0,2.66-.14,4.85,1.62,4.85s1.67-1.76,1.67-3.16V12.63l2.5,0v1.82c0,2.43.12,4.71.12,4.71h-2.41a4,4,0,0,0-.18-1.1,3.16,3.16,0,0,1-2.36,1.14c-3.19,0-3.26-2.75-3.34-3.79a58.69,58.69,0,0,1,0-5.92,3.21,3.21,0,0,1,3.18-3,4,4,0,0,1,2.51.88V2.23h2.46c0,1.37,0,7.18,0,10.43Z" style="fill: #fff"/>
          <path d="M84.48,6.81c0-1.54,0-5.13-4.8-5.13s-4.83,3.58-4.83,4.38c0,1.11-.13,3,2.94,4.73l2.46,1.38A2.89,2.89,0,0,1,82.08,15a2.21,2.21,0,0,1-2.25,2.44,2.17,2.17,0,0,1-2.51-2.13,10.85,10.85,0,0,1-.1-1.54h-2.8s-.1,3,1.23,4.3a5.23,5.23,0,0,0,4,1.41,5.32,5.32,0,0,0,3.94-1.3,4.54,4.54,0,0,0,1.2-3.38c0-1.53-.36-3.27-2.93-4.79-.82-.48-1.7-.92-2.61-1.42A2.86,2.86,0,0,1,77.48,6a2.05,2.05,0,0,1,2.14-2.26,1.91,1.91,0,0,1,2.11,2.17c0,.2,0,.94,0,.94Z" style="fill: #fff"/>
          <rect x="113.96" y="2.21" width="2.5" height="2.5" style="fill: #fff"/>
        </g>
        <g>
          <path d="M131.59,34.85c0-1.17,0-2.37,0-3.37,0-2.32-1.22-3.81-3.86-3.81-2.81,0-4,1.36-3.91,3.78h2.45c.06-1.1-.1-2.09,1.37-2.09s1.41,1,1.49,2.08a3.86,3.86,0,0,1,0,1.08,14.45,14.45,0,0,0-3.32.5c-1.24.43-2.25,1.3-2.25,3.51,0,1.91.39,3.77,2.87,3.93A3.26,3.26,0,0,0,129,39.24s.13,0,.26,1h2.38s-.1-2.31-.09-4.71l-2.46,0c0,.25,0,.5,0,.73-.1.91-.38,2.2-1.85,2.2s-1.37-1.56-1.2-2.74,1.37-1.43,3.08-1.51c0,0,0,.25,0,.61" style="fill: #fff"/>
          <path d="M131.59,34.85v.68l-2.46,0c0-.25,0-.49,0-.71" style="fill: #fff"/>
        </g>
        <g>
          <path d="M94.13,34.85c0-1.17,0-2.37,0-3.37,0-2.32-1.22-3.81-3.86-3.81-2.81,0-4,1.36-3.91,3.78h2.45c.06-1.1-.1-2.09,1.37-2.09s1.41,1,1.49,2.08a3.86,3.86,0,0,1,0,1.08,14.32,14.32,0,0,0-3.31.5c-1.25.43-2.26,1.3-2.26,3.51,0,1.91.39,3.77,2.87,3.93a3.26,3.26,0,0,0,2.64-1.22s.13,0,.26,1h2.38s-.1-2.31-.09-4.71l-2.46,0c0,.25,0,.5,0,.73-.1.91-.38,2.2-1.85,2.2s-1.37-1.56-1.2-2.74,1.37-1.43,3.08-1.51c0,0,0,.25,0,.61" style="fill: #fff"/>
          <path d="M94.13,34.85v.68l-2.46,0c0-.25,0-.49,0-.71" style="fill: #fff"/>
        </g>
        <path d="M110.79,33.24c0,.44,0,.86,0,1.23,0,.85,0,1.41,0,2.27,0,1.17-.38,1.95-1.65,2s-1.7-.78-1.69-1.94c0-1.7,0-3.22,0-5.15s.93-2.13,1.51-2.14c1,0,1.79.16,1.81,2.07,0,.54,0,1.12,0,1.68l2.5-.06a19.26,19.26,0,0,0-.14-2.33c-.4-2.32-2.1-3.12-4.18-3.09s-3.53.87-3.87,3.2a34.7,34.7,0,0,0,.08,6.66c.27,1.54,1.48,2.87,4,2.84s3.82-1.27,4-3.05c.08-.85.14-1.88.15-3.11V33.18Z" style="fill: #fff"/>
        <polygon points="78.53 23.27 74.42 23.27 74.42 40.25 76.96 40.25 76.96 26.67 80.64 40.25 84.81 40.25 84.81 23.27 82.27 23.27 82.27 36.63 78.53 23.27" style="fill: #fff"/>
        <path d="M98.45,29.63h1.81V27.86H98.45V24.65l-2.4,1v2.21H94.5v1.77h1.55v8c0,1,0,2.6,2.71,2.6h1.57V38.57H99.25c-.4,0-.8-.15-.8-1.36Z" style="fill: #fff"/>
        <polygon points="103.68 27.86 101.19 27.86 101.19 40.25 103.69 40.25 103.68 27.86" style="fill: #fff"/>
        <rect x="101.19" y="23.27" width="2.5" height="2.51" style="fill: #fff"/>
        <path d="M116.78,27.86h-2.49a19.81,19.81,0,0,1,.17,2.95v9.45H117V31c0-.85.33-1.71,1.49-1.71A1.51,1.51,0,0,1,120,31v9.28h2.53v-9c0-2.6-1.21-3.61-3.15-3.61a3.21,3.21,0,0,0-2.51,1A2.77,2.77,0,0,1,116.78,27.86Z" style="fill: #fff"/>
        <rect x="133.22" y="23.28" width="2.62" height="16.97" style="fill: #fff"/>
        <path d="M135.69,54.33c0,.44,0,.87,0,1.23,0,.86,0,1.42,0,2.28,0,1.16-.38,1.95-1.65,2s-1.7-.77-1.69-1.94c0-1.69,0-3.22,0-5.14s.92-2.14,1.5-2.15c1,0,1.79.16,1.81,2.07,0,.54,0,1.12,0,1.68l2.5-.06a19.41,19.41,0,0,0-.14-2.33c-.4-2.32-2.09-3.11-4.18-3.08s-3.53.86-3.87,3.19a34.7,34.7,0,0,0,.08,6.66c.27,1.54,1.48,2.87,4,2.84s3.82-1.27,4-3c.09-.85.14-1.88.15-3.11V54.27Z" style="fill: #fff"/>
        <path d="M106,54.33c0,.44,0,.87,0,1.23,0,.86,0,1.42,0,2.28,0,1.16-.38,1.95-1.65,2s-1.7-.77-1.69-1.94c0-1.69,0-3.22,0-5.14s.92-2.14,1.5-2.15c1,0,1.79.16,1.81,2.07,0,.54,0,1.12,0,1.68l2.5-.06a19.41,19.41,0,0,0-.14-2.33c-.4-2.32-2.09-3.11-4.18-3.08s-3.53.86-3.87,3.19a34.7,34.7,0,0,0,.08,6.66c.27,1.54,1.48,2.87,4,2.84s3.82-1.27,4-3c.08-.85.14-1.88.15-3.11V54.27Z" style="fill: #fff"/>
        <g>
          <path d="M123,55.94c0-1.17,0-2.37,0-3.37,0-2.32-1.23-3.8-3.87-3.8-2.81,0-4,1.35-3.91,3.78h2.46c.05-1.1-.1-2.1,1.37-2.1s1.41,1,1.48,2.08a3.92,3.92,0,0,1,0,1.09,14.32,14.32,0,0,0-3.31.5c-1.24.42-2.26,1.29-2.26,3.51,0,1.91.39,3.76,2.87,3.92a3.24,3.24,0,0,0,2.64-1.21s.13,0,.26,1H123s-.09-2.32-.09-4.72l-2.46,0c0,.25,0,.5,0,.72-.1.92-.39,2.2-1.86,2.2s-1.37-1.55-1.2-2.74,1.37-1.43,3.08-1.51c0,0,0,.25,0,.61" style="fill: #fff"/>
          <path d="M123,55.94c0,.23,0,.46,0,.68l-2.46,0c0-.25,0-.5,0-.72" style="fill: #fff"/>
        </g>
        <g>
          <path d="M89.23,55.94c0-1.17,0-2.37,0-3.37,0-2.32-1.23-3.8-3.87-3.8-2.81,0-4,1.35-3.91,3.78h2.46c0-1.1-.1-2.1,1.37-2.1s1.41,1,1.48,2.08a3.92,3.92,0,0,1,0,1.09,14.32,14.32,0,0,0-3.31.5c-1.24.42-2.25,1.29-2.25,3.51,0,1.91.38,3.76,2.86,3.92a3.23,3.23,0,0,0,2.64-1.21s.13,0,.26,1h2.38s-.09-2.32-.09-4.72l-2.46,0c0,.25,0,.5,0,.72-.1.92-.39,2.2-1.86,2.2S83.5,58,83.67,56.84s1.37-1.43,3.08-1.51c0,0,0,.25,0,.61" style="fill: #fff"/>
          <path d="M89.23,55.94v.68l-2.46,0c0-.25,0-.5,0-.72" style="fill: #fff"/>
        </g>
        <polygon points="147.44 48.96 144.96 48.96 144.96 61.34 147.45 61.34 147.44 48.96" style="fill: #fff"/>
        <polygon points="74.42 61.35 80.52 61.35 80.52 59.26 77.12 59.26 77.12 44.36 74.42 44.36 74.42 61.35" style="fill: #fff"/>
        <path d="M96.49,56.73c0-.53,0-1.1,0-1.71,0-3.45-.11-4.49-1.55-4.49a1.62,1.62,0,0,0-1.7,1.74v4.82c0,.65-.13,2.74,1.72,2.74,1.47,0,1.59-1.29,1.56-3.1l2.43,0c0,.45,0,.83-.06,1.07-.14,1.15-.28,3.75-3.32,3.75a3.24,3.24,0,0,1-2.41-1.14,3.66,3.66,0,0,0-.19,1H90.5a16.74,16.74,0,0,0,.21-3v-14h2.46v5.4a4,4,0,0,1,2.5-.91,3.11,3.11,0,0,1,3.13,2.93c.1.94.16,3.35.13,4.89Z" style="fill: #fff"/>
        <path d="M114.74,48.86c-2.12-.09-2.38,1.67-2.7,1.68,0,0-.08-1.07-.17-1.59h-2.36a17.93,17.93,0,0,1,.17,2.87v9.53h2.53V53.18a2,2,0,0,1,2.24-2.24Z" style="fill: #fff"/>
        <path d="M127.4,50.73h1.81V49H127.4V45.74l-2.4,1V49h-1.55v1.77H125v8c0,1,0,2.6,2.72,2.6h1.57V59.66H128.2c-.4,0-.8-.14-.8-1.36Z" style="fill: #fff"/>
        <path d="M144.18,48.86c-1.86.07-2.11,1.67-2.42,1.68,0,0-.08-1.07-.17-1.59h-2.36a17,17,0,0,1,.18,2.87v9.53h2.52V53.18a2,2,0,0,1,2.24-2.24Z" style="fill: #fff"/>
        <rect x="144.96" y="44.37" width="2.48" height="2.5" style="fill: #fff"/>
        <path d="M152.41,54.12H151c0-.45,0-.93,0-1.44.06-2,.9-2.1,1.58-2.1,1,0,1.62.42,1.62,2.33,0,.21,0,.94,0,1.21h-1.75v1.71h4.29a32.17,32.17,0,0,0-.1-3.82c-.36-2.33-1.93-3.15-4-3.15s-3.54.82-3.91,3.15a36.5,36.5,0,0,0,.07,6.59,3.58,3.58,0,0,0,3.84,3c2.48,0,3.77-1.25,4-3,0-.45.06-.56.07-1h-2.49c0,.86,0,.14,0,.45-.06,1.16-.27,1.84-1.54,1.84s-1.44-.93-1.47-2.11c0-.65,0-1.26-.07-1.87h1.37Z" style="fill: #fff"/>
        <path d="M165.06,52.68c0-1.46.1-3.85-3.64-3.85-3.2,0-3.8,2.07-3.8,3.17a2.93,2.93,0,0,0,1.25,2.61c.7.65,2.21,1.67,2.89,2.16a2.29,2.29,0,0,1,1.06,1.82,1.22,1.22,0,0,1-1.38,1.24c-.93,0-1.49-.36-1.57-1.3,0-.36-.06-.66-.06-1h-2.4a4.64,4.64,0,0,0,.44,2.61c.71,1.09,2.29,1.43,3.67,1.43a4,4,0,0,0,2.86-.93,3,3,0,0,0,.84-2.44,3.31,3.31,0,0,0-1.63-3c-.54-.42-1.68-1.19-2.29-1.59s-1.23-.94-1.23-1.76.41-1.23,1.31-1.23,1.22.56,1.22,1.54c0,.14,0,.56,0,.56Z" style="fill: #fff"/>
      </g>
    </g>
  </g>
</svg>