<?xml version="1.0" encoding="utf-8"?>
<!-- Generator: Adobe Illustrator 27.9.0, SVG Export Plug-In . SVG Version: 6.00 Build 0)  -->
<svg version="1.1" id="Layer_1" xmlns="http://www.w3.org/2000/svg" xmlns:xlink="http://www.w3.org/1999/xlink" x="0px" y="0px"
	 viewBox="0 0 405.7 180.7" style="enable-background:new 0 0 405.7 180.7;" xml:space="preserve">
<style type="text/css">
	.st0{fill:#FFFFFF;}
</style>
<path class="st0" d="M241.3,105c-3.6-0.4-10-1.2-17.9,2.8c-8,4-11.1,4.2-15,3.8c1.1,2.1,3.5,5,10.8,5.5c7.3,0.5,10.8,0.7,7,9.9
	c0.1-2.8-0.6-8.1-7.8-7.1c-7.3,0.9-9,7.5-1.2,10.7c-2.5,0.5-7.9,0.8-11.7-9.2c-2.7,1.2-6.8,3.5-14.2-2.3c2.6,0.9,5.8,1,5.8,1
	c-6.6-3.1-12.9-9-16.9-14.5c3.2,2.4,6.7,4.8,10.3,5.2c-4.2-5.1-14-15.4-25.9-26c7.7,5,16.9,12.9,32.1,11.2
	C211.7,94,221.9,90.5,241.3,105"/>
<path class="st0" d="M176.3,101.4c-9.5-4.1-11.5-4.9-23.8-8.1c-12.2-3.1-24.3-9.6-32.3-19.7c5.7,4.2,17.2,12.5,29.1,11.6
	c-1.8-2.6-5.1-4.7-9.1-6.8C144.8,79.6,158.4,83.1,176.3,101.4"/>
<path class="st0" d="M155.6,66.2c-2.5-7-6.9-16-27.9-29.4c-10.2-6.7-25.2-15.2-45-36.8c1.4,5.8,7.7,21,39.1,40.6
	C132.2,47.7,145.6,52,155.6,66.2"/>
<path class="st0" d="M156.9,76.4c-2.6-6-7.8-13.6-28.1-24.5c-9.4-5.2-25.4-13.3-39.8-28.7c1.3,5.5,8,17.7,36.8,32.9
	C133.8,60.6,147.2,64.7,156.9,76.4"/>
<path class="st0" d="M233.8,92.1c7.5,1.1,7.1,2.7,7.2,5.5C237.8,94.1,233.8,92.1,233.8,92.1 M176.6,45.6C137,34.3,121.3,20,109.1,5
	c5.6,17.2,18.8,23.4,33,35c14.2,11.6,15,17.8,19.2,24.6c9.3,15.2,10.8,17.8,20,24.4c10.9,7.2,24,2.3,38.5,4.6
	c14.4,2.3,26.4,13.3,29,17.5c3-5.4-4.2-13.2-6.2-15.1c1-7.1-15.7-10.2-22-12.6c-1.2-0.5-4.3-1.2-1.7-7.5
	C222.5,67.1,226.3,59.5,176.6,45.6"/>
<path class="st0" d="M405.6,152.7v-8.9h-27.1v36.2h27.2v-8.9h-16.4v-5h12.4v-8.4h-12.4v-5H405.6z M361.6,160l12.2-15.4l-0.5-0.8
	h-11.5l-10,12.9v-12.9h-10.8v36.2h10.8v-11.2l2-2.3l9.2,13.5h11.3l0.5-0.8L361.6,160z M321.4,180.1h10.8v-36.2h-10.8V180.1z
	 M294.2,152.7h5c2,0,3.8,1.3,3.8,3.8c0,2.4-1.8,3.6-3.8,3.6h-5V152.7z M307.5,165.8c3.9-1.8,6.5-5.1,6.5-9.9c0-7.4-5-12.1-14.4-12.1
	h-16.3v36.2h10.8v-12.7h2.6l6.7,12.7h10.8l0.5-0.8L307.5,165.8z M268.8,152.7h10.8v-8.9h-32.5v8.9H258v27.3h10.8V152.7z
	 M229.3,180.7c7.9,0,14.8-3.9,14.8-11.4c0-8.2-6.9-10.3-13.1-12.1c-2.4-0.7-4.9-1.6-4.9-3.3c0-1.3,1.4-2.1,3.4-2.1
	c3.6,0,6.6,2.2,8.1,3.7h0.8l5.1-6.1v-0.8c-2.7-3.1-8.1-5.4-14.2-5.4c-8.4,0-14.3,4.6-14.3,11.2c0,7.1,6.4,10.3,11.9,11.8
	c3.6,1,6,1.2,6,3.1c0,1.4-1.7,2.2-4.3,2.2c-3.3,0-7.4-2.2-9.3-4.1h-0.8l-5,6.4v0.8C216.8,178.2,222.6,180.7,229.3,180.7
	 M190.7,171.1h-5.3v-18.4h5.3c4.8,0,8.2,3.3,8.2,9.2C198.9,167.8,195.5,171.1,190.7,171.1 M191.2,143.8h-16.6v36.2h16.6
	c11.6,0,18.8-7.2,18.8-18.2C210,151.1,202.8,143.8,191.2,143.8 M169,143.8h-10.3l-6.4,20.1l-6.8-20.1H139l-6.7,20l-6.4-20h-10.3
	l-0.5,0.8l13.2,35.4h6.6l7.4-19.7l7.5,19.7h6.6l13.2-35.4L169,143.8z M94.2,170.8c-4.9,0-8.8-3.7-8.8-8.9c0-5.2,3.9-8.9,8.8-8.9
	c4.9,0,8.8,3.7,8.8,8.9C103,167.1,99.1,170.8,94.2,170.8 M94.2,180.7c11.3,0,19.8-8.1,19.8-18.8c0-10.8-8.5-18.8-19.8-18.8
	c-11.3,0-19.8,8-19.8,18.8C74.3,172.7,82.9,180.7,94.2,180.7 M50.2,160.1v-7.4h5c2,0,3.8,1.3,3.8,3.8c0,2.4-1.7,3.6-3.8,3.6H50.2z
	 M70.8,171.2l-0.6-0.4c-0.3,0.2-0.6,0.4-1.4,0.4c-1.3,0-2-1.3-2.7-2.4c-1.1-1.7-2-2.6-2.7-3c4-1.8,6.7-5.1,6.7-9.9
	c0-7.4-5-12.1-14.4-12.1H39.4v36.2h10.8v-12.7h1c2.4,0,5.5,5.2,6.9,7.6c3,4.7,5.3,5.8,9.5,5.8c2,0,3.6-0.7,4.6-1.6l0.3-0.8
	L70.8,171.2z M19.6,180.7c6.6,0,11.8-2.9,15.1-7V173l-6.6-5.7h-0.8c-1.8,2-4.6,3.5-7.7,3.5c-4.9,0-8.7-3.7-8.7-8.9
	c0-5.1,3.8-8.9,8.7-8.9c3.1,0,5.9,1.5,7.7,3.5h0.8l6.6-5.7v-0.8c-3.4-4.2-8.9-7-15-7c-11.3,0-19.8,8-19.8,18.8
	C0,172.7,8.6,180.7,19.6,180.7"/>
</svg>
