<?xml version="1.0" encoding="utf-8"?>
<!-- Generator: Adobe Illustrator 27.8.1, SVG Export Plug-In . SVG Version: 6.00 Build 0)  -->
<svg version="1.1" id="Layer_1" xmlns="http://www.w3.org/2000/svg" xmlns:xlink="http://www.w3.org/1999/xlink" x="0px" y="0px"
	 viewBox="0 0 1920 1080" style="enable-background:new 0 0 1920 1080;" xml:space="preserve">
<style type="text/css">
	.st0{fill:#EC1C24;}
	.st1{fill:#FFFFFF;}
</style>
<g>
	<g>
		<g>
			<g>
				<path class="st0" d="M1801.02,183.5l27.48,10.85c-6.27,16.39-12.54,32.79-18.8,49.17c-9.16,16.4-23.39,24.35-42.66,23.86
					l7.95-2.63v-3.29c-1.45-0.87-3.14-1.31-5.06-1.31c-2.89,0-6.76,1.64-11.57,4.89c-6.27,4.65-9.89,7.21-10.85,7.67
					c3.37,5.13,7.47,7.68,12.29,7.68c2.89,0,7.23-1.08,13.01-3.25c5.79-2.17,10.6-3.25,14.46-3.25c2.41,0,4.81,0.49,7.23,1.45v16.63
					l-94.01,2.89c-2.89-1.92-4.34-4.09-4.34-6.51c0-0.96,0.6-2.64,1.81-5.06c1.2-2.41,1.81-4.34,1.81-5.78
					c0-2.41-2.42-4.09-7.23-5.06l-11.57,19.52c-14.46,6.76-40.74,7.95-78.82,3.62c-40.02-4.81-66.53-5.06-79.54-0.72
					c-24.11,8.2-34.96,30.37-32.54,66.53c-2.42,3.86-9.04,8.44-19.89,13.74c-10.85,5.31-16.27,10.85-16.27,16.63
					c0,2.42,0.72,5.06,2.17,7.95c6.26,0,10.85-3.49,13.74-10.48c2.89-6.98,7.47-10.96,13.74-11.93l-4.34,26.03
					c44.83-19.27,75.93-28.92,93.28-28.92c7.23,0,13.74,0.97,19.52,2.89c-1.93,4.82,0.72,9.65,7.95,14.46l6.51-7.95
					c-1.93-0.48-2.89-4.34-2.89-11.57c6.75-5.3,16.87-7.95,30.37-7.95c11.08,0,23.14,1.69,36.16,5.06
					c1.45,1.93,7.23,3.86,17.36,5.78c13.01,2.42,21.21,4.34,24.58,5.78c11.57,4.34,22.06,12.54,31.46,24.59
					c9.4,12.06,14.58,24.35,15.55,36.88c-13.01,53.04-26.03,105.82-39.05,158.36c-16.88,59.78-36.88,108.71-60.02,146.79
					c-29.41,48.2-67.74,86.53-114.98,114.98c-14.95,5.79-29.65,11.57-44.11,17.36c-17.84,7.23-34.24,10.12-49.17,8.68l23.86-30.37
					l-5.06-3.62c-5.79,2.89-15.91,12.29-30.37,28.2c-11.09,12.04-22.42,18.32-33.99,18.8c0-2.42-1.21-4.83-3.62-7.23
					c-2.42-2.42-3.87-4.34-4.34-5.79c-7.23,8.68-14.95,13.02-23.14,13.02c-2.42,0-6.4-0.61-11.93-1.81
					c-5.55-1.21-10.01-1.81-13.38-1.81c-5.78,0-11.82,1.2-18.08,3.62c-1.45-4.83,1.2-10.12,7.95-15.91l-5.06-3.62l-22.42,19.52
					c0.96-2.42,0-5.06-2.89-7.95c-2.89-0.97-5.31-1.45-7.23-1.45c-3.87,0-6.27,1.56-7.23,4.7c-0.97,3.13-1.93,4.7-2.89,4.7
					c-1.93,0-5.31-1.69-10.12-5.06l14.46-19.53l-11.57-7.95c-6.76,12.7-13.26,20.42-19.52,23.14c-4.83-6.76-14.71-10.12-29.65-10.12
					c-0.97,0-2.53,0-4.7,0c-2.17,0-3.74,0-4.7,0c-13.5,0-20.25-4.59-20.25-13.74c0-2.89,0.48-6.27,1.45-10.12
					c-3.38,8.19-7.95,12.29-13.74,12.29c-7.72,0-17.12-6.99-28.2-20.97c-17.84-17.36-26.75-38.09-26.75-62.19
					c0-6.27,0.72-12.29,2.17-18.08c4.81,0,8.19-2.29,10.12-6.87c1.92-4.59,3.85-8.79,5.79-12.65l-15.91-3.62l32.54-35.43
					c-2.42-2.89-4.82-4.34-7.23-4.34c-1.45,0-3.98,1.69-7.59,5.06c-3.62,3.38-6.87,4.34-9.76,2.89c4.81-7.23,9.76-20.61,14.82-40.13
					c5.06-19.53,9.51-32.65,13.38-39.41c7.23-12.53,17.11-18.8,29.65-18.8c8.68,0,19.04,2.89,31.09,8.68
					c-0.48,1.93-2.66,3.62-6.51,5.06c-3.86,1.45-5.31,3.62-4.34,6.51h23.86c-3.87-1.92-5.79-3.62-5.79-5.06
					c0-1.45,3.85-3.13,11.57-5.06c9.64-1.92,15.19-3.37,16.63-4.34c-0.48,1.45,2.41,5.31,8.68,11.57
					c12.53-8.68,21.21-13.02,26.03-13.02c2.41,0,5.06,0.49,7.95,1.45v7.95c-1.93-0.48-3.98,0.36-6.15,2.53
					c-2.17,2.17-3.98,3.5-5.42,3.98c5.78,5.78,9.64,8.68,11.57,8.68c1.45,0,2.89-0.24,4.34-0.72c-1.45-2.41-0.61-6.62,2.53-12.65
					c3.13-6.02,7.11-9.28,11.93-9.76h24.59v2.89c2.41,3.38,5.3,5.06,8.68,5.06c2.89,0,6.87-1.2,11.93-3.62
					c5.06-2.41,8.55-3.85,10.48-4.34c0.48,5.31-1.93,10.37-7.23,15.18c-5.31,4.82-10.61,7.23-15.91,7.23
					c-1.45-0.48-3.02-2.64-4.7-6.51c-1.69-3.85-4.46-5.3-8.32-4.34l-6.51,7.95c1.92,8.2,9.15,12.29,21.69,12.29
					c8.19,0,13.98-1.45,17.35-4.34c-6.27,50.15-21.94,88.94-47,116.42c7.71,5.79,15.42,11.57,23.14,17.36
					c10.12,7.71,19.28,11.57,27.48,11.57c6.26,0,12.53-2.17,18.8-6.51c19.27-13.02,34.71-37.12,46.28-72.31
					c14.46-42.9,26.03-70.38,34.71-82.44c4.81,0.97,7.23,2.17,7.23,3.62c0,0.48-0.48,1.57-1.45,3.25c-0.97,1.69-1.45,3.02-1.45,3.98
					c0,1.45,1.2,3.14,3.62,5.06l19.53-24.59c-0.49-1.92-4.1-2.89-10.85-2.89l-8.68,7.95c-0.48-3.85-0.72-7.47-0.72-10.85
					c0-12.04,5.79-32.78,17.36-62.19c11.08-27.48,15.91-49.9,14.46-67.25c-7.72-10.12-18.8-15.18-33.26-15.18
					c-6.76,0-13.5,1.21-20.25,3.62l-7.95,7.95c-0.49-0.96,0.47-3.62,2.89-7.95l-6.51-7.96l-70.87,54.96
					c4.34,6.76,11.57,8.68,21.69,5.78c10.12-2.89,17.36-2.17,21.69,2.17l-213.32,2.89c15.42-67.49,38.56-119.07,69.42-154.75
					c-2.89-3.37-4.34-7.71-4.34-13.02c0-11.08,6.98-27.23,20.97-48.45c0.96-0.96,2.53-6.74,4.7-17.36
					c2.17-10.6,5.42-17.83,9.76-21.69c-2.42-5.78-3.62-10.85-3.62-15.18c0-12.04,10.6-21.45,31.82-28.2
					c21.21-6.74,31.82-12.04,31.82-15.91c0-5.3-8.2-13.02-24.59-23.14c-0.97-2.41-1.45-4.34-1.45-5.78c0-3.37,1.81-6.02,5.42-7.96
					c3.62-1.92,7.11-3.85,10.49-5.78c73.27,0,146.79,0,220.55,0C1681.46,178.44,1750.4,180.14,1801.02,183.5z"/>
			</g>
		</g>
		<polygon class="st0" points="1068.35,794.65 91.5,781.49 1068.35,781.49 		"/>
		<g>
			<path class="st0" d="M1046.06,817.01v-20.45c2.15,0,4.06-0.84,5.74-2.51l4.66-5.74c-0.72-0.72-1.56-1.08-2.51-1.08
				c-0.96,0-2.04,0.59-3.23,1.79c-0.24-2.87,0.95-4.31,3.59-4.31c1.91,1.67,3.59,2.51,5.02,2.51c0.72,0,1.31-0.12,1.79-0.36
				l-3.95-3.95c-1.43-1.43-3.47-2.15-6.1-2.15c2.63,0,3.94-1.32,3.94-3.95c-4.3-2.15-6.82-3.23-7.53-3.23
				c0.48-0.48,0.95-0.72,1.43-0.72c0.72,0,1.43,0.36,2.15,1.08c0.72,0.48,1.55,0.24,2.51-0.72c-0.24-0.24-2.75-3.11-7.53-8.61
				v-12.55h44.12c-0.96,0.48-2.51,1.55-4.66,3.23c3.35,1.67,6.93,2.51,10.76,2.51c1.67,0,4.31-0.96,7.89-2.87
				c0-0.24-0.48-0.78-1.43-1.61c-0.96-0.84-1.43-1.74-1.43-2.69h8.61c2.39,3.82,3.82,5.74,4.3,5.74c0.48-0.24,1.08-0.72,1.79-1.43
				v62.06c-32.28-0.24-49.27-0.48-50.94-0.72c-0.24-0.72-1.92-1.32-5.02-1.79c-1.44-0.24-3.83,0.12-7.17,1.08
				C1049.53,816.53,1047.26,817.01,1046.06,817.01z M1032.07,801.22l-34.21-2.51h38.51v2.51H1032.07z M1063.15,807.68
				c0-0.96-0.36-2.28-1.08-3.95c-0.24-0.48-0.72-0.72-1.43-0.72c-1.43,0-4.07,0.59-7.89,1.79
				C1055.13,805.29,1058.6,806.25,1063.15,807.68z M1036.74,810.19l-17.74-2.51h22.04v2.51H1036.74z"/>
		</g>
	</g>
	<path class="st1" d="M915.66,713.63c-0.49-3.41-0.63-5.91-0.4-7.54c-0.28,0.09-0.7,0.31-1.21,0.64l-2.16-5.49
		c-3.71,2.89-6.79,4.36-9.21,4.36l5.53-15.68c-2.68-3.28-5.6-8.05-4.15-18.36c-0.24-0.08-0.44-2.37-0.73-5.79l-7.29-6.36l6.96,2.43
		c-0.82-9.43-2.27-22.94-5.74-27.36l-33.85-146.27l2.13-1.59l-3.42-3.98l-9.41-40.65l1.23-2.05l-1.88-0.74l-22.97-99.26h-47.17
		c0.29,7.13,0.46,12.81,0.52,17.02c0.38,6.49,1.28,11.67,2.68,15.56l-14.51,2.92c2.76-3.56,4.58-9.56,5.45-17.99
		c0.81-8.1,0.66-13.93-0.46-17.51c-24.31,0-37.82-1.95-40.51-5.84l-11.02,12.64c-17.33,33.39-28.36,54.14-33.06,62.24
		c1.62,0,3.31,0.65,5.07,1.95c-7.82,4.86-13.8,11.67-17.94,20.42c0,0-8.43,0-9.44,4.86c3.89,0,6.39,0.65,7.51,1.95
		c-21.68,38.9-36.99,67.1-45.93,84.61l-5.08-5.35c-0.05,2.6-0.24,5.19-0.61,7.78c-1.82,12.97-9.77,32.58-23.83,58.84
		c-14.9,27.56-23.42,46.68-25.57,57.38c-0.72,1.26-2.07,3.37-4.01,6.27l4.37-1.89l0.91,3.89l-8.26,3.4l0.18-1.27
		c-0.94,1.37-1.94,2.83-3.05,4.43c-0.45,0.65-0.85,1.24-1.26,1.84c1.51-13.93,2.03-19.17,1.53-15.67c-7.26,0-12.86,1.14-16.8,3.4
		l-5.26-6.12c5.86-9.52,10.58-14.04,14.15-13.6c3.82,4.99,6.46,8.84,7.89,11.56c0.24-4.98-0.15-8.61-1.19-10.88
		c-0.4-0.45-2.45-3.62-6.14-9.52c8.07-5.89,12.41-10.88,12.98-14.96l29.81-212.14l-9.89,7.48c-10.2-11.32-15-19.04-14.43-23.12
		c1.59-11.33,12.09-23.12,31.49-35.36l22.27-158.42H493.83l-10.51,74.79c11.46,2.27,20.11,3.63,25.94,4.08l-2.39,17
		c-3.1,2.72-7.78,4.54-14.02,5.44c-6.25,0.91-11.05,3.63-14.41,8.16c6.8,0,11.26-1.13,13.4-3.4l5.35,5.44
		c-6.8,3.18-13.05,4.08-18.74,2.72l-5.83,41.47c4.08,0,7.19,3.63,9.35,10.88c4.87,4.08,7.46,6.58,7.79,7.48
		c1.63,4.54,3.03,9.07,4.21,13.6c-7.63,5.9-12.61,10.65-14.92,14.28c-1.96-5.44-2.58-10.64-1.88-15.64
		c0.38-2.72,1.21-5.44,2.51-8.16c-1.42,0.46-2.82,0.68-4.18,0.68c-3.18,0-4.51-1.81-4-5.44c-2.17,15.41-5.1,24.93-8.77,28.56
		c-6.48-2.26-14.72-3.4-24.68-3.4c-6.35,0-15.69,1.14-28.01,3.4c-12.34,2.27-21.45,3.4-27.34,3.4c-5.9,0-14.69-1.92-26.38-5.78
		c-11.7-3.85-20.72-5.78-27.07-5.78c-3.18,0-7.69,0.68-13.55,2.04c-5.86,1.36-10.38,2.04-13.54,2.04
		c-19.95,0-29.03-6.34-27.24-19.04c0.57-4.08,1.79-10.3,3.65-18.7c1.86-8.38,3.07-14.62,3.65-18.7c-8.16,0-13.99-2.04-17.5-6.12
		l6.98-6.12c3.89,4.54,7.65,6.8,11.28,6.8l19.11-135.99H193.31c-5.75,8.62-10.01,14.74-12.78,18.36c-2.42-8.6-4.02-14.96-4.8-19.04
		c-8.29,4.08-13.19,18.14-14.76,42.16c6.33-6.34,11.11-11.33,14.34-14.96c10.56,5.44,15.28,12.24,14.13,20.4l-0.86,6.12
		c-0.52,0.46-1.01,0.68-1.46,0.68l-0.58-0.68c-2.62-7.25-7.54-10.88-14.79-10.88c-0.13,0.91-4.62,5.44-13.47,13.6l2.91-1.36
		c1.49-0.9,3.59-1.36,6.31-1.36c2.26,0,5.27,1.93,9.05,5.78c3.76,3.86,5.9,7.14,6.43,9.86h-12.92c-4.87-4.08-8.8-6.8-11.77-8.16
		l-36.41,259.05c2.91-1.36,5.73-2.04,8.44-2.04c3.62,0,6.61,1.36,8.95,4.08c-4.14,3.63-6.3,6.12-6.49,7.48
		c-0.19,1.36,0.84,2.04,3.11,2.04c6.29,3.63,8.96,8.84,8,15.64c-1.72,12.24-7.12,18.36-16.18,18.36c-1.82,0-3.57-0.45-5.25-1.36
		l3.89-4.24c-0.37,0.1-0.79,0.16-1.28,0.16c-1.35,0-3.08-0.44-5.19-1.34l8.59-7.09l-3.34-3.89l-10.35,9.08l2.69,3.89l2.27-1.87
		c-4.6,7.24-7.3,16.93-8.11,29.1c7.76-0.45,12.62,0.46,14.58,2.72c-2.07,1.82-6.74,2.72-13.98,2.72L91.5,721.3h61.87
		c4.45-5.89,7.41-10.88,8.9-14.96c5.25,4.54,9.5,6.57,12.74,6.12l-8.63,8.16c28.56,0,43.22,0.46,44,1.36
		c16.51-27.2,26.73-46.68,30.66-58.48c-2.28-3.16-2.9-8.38-1.88-15.64c1.02-7.24,3.69-16.54,8-27.88
		c-5.78-4.08-8.18-9.52-7.23-16.32c0.57-4.08,2.93-6.34,7.07-6.8c-0.98,0.46,3.27,0.91,12.73,1.36c-14.91-3.62-22-7.93-21.3-12.92
		c0.19-1.36,2.52-1.81,6.99-1.36c0.83-5.89,0.22-14.5-1.81-25.84c-2.04-11.32-2.67-19.72-1.9-25.16c0.38-2.72,3.47-7.02,9.3-12.92
		c-8.16,0-13.06-0.68-14.67-2.04l3.29-4.08c1.09-1.36,3.57-2.04,7.43-2.04c3.85,0,6.16-1.13,6.94-3.4c1.93-4.08,3.15-6.34,3.67-6.8
		c-1.82,0-6.6,3.4-14.35,10.2c-0.98-2.72-0.8-5.66,0.56-8.84c2-4.53,3.03-7.02,3.09-7.48h78.19c-1.82,0-6.01-1.58-12.59-4.76
		c-6.59-3.17-11.69-4.76-15.31-4.76c0.04-6.8,3.65-13.14,10.83-19.04c9.75-8.16,15.28-13.6,16.57-16.32l17.91,17.68
		c-3.81,4.54-6.08,7.71-6.78,9.52c-0.39-0.45-0.52-1.13-0.39-2.04c0.13-0.9,0.51-2.04,1.16-3.4c1.09-1.36-0.17-2.04-3.79-2.04
		c-2.27,0-4.97,0.68-8.11,2.04c-3.15,1.36-4.94,2.04-5.39,2.04c-0.19,1.36,0.41,3.52,1.81,6.46c1.39,2.95,2,5.1,1.81,6.46
		c0.89-6.34,3.6-9.52,8.14-9.52c6.1,8.16,10.23,14.28,12.38,18.36h29.24c0.32-2.26-0.77-5.89-3.23-10.88
		c-4.46,2.72-8.73,4.08-12.81,4.08c-3.18,0-6.22-0.9-9.14-2.72l6.36-21.08c13.34,1.82,21.94,8.39,25.79,19.72
		c3.42-1.81,6.04-2.72,7.86-2.72c1.36,0,2.23,0.23,2.62,0.68c-5.69,4.99-8.79,9.3-9.29,12.92h14.28c0.64-4.53,3.67-6.8,9.11-6.8
		c2.26,0,4.47,1.25,6.61,3.74c2.13,2.5,4.37,3.52,6.71,3.06h23.8c0.76-5.44,3.5-10.42,8.22-14.96c5.44,3.18,11.18,4.31,17.2,3.4
		l-1.24,8.84c-10.5,0.46-16.5,6.12-18.03,17c-2.55,18.14-3.47,26.29-2.76,24.48c2.58-2.26,4.32-3.4,5.24-3.4
		c1.36,0,1.82,1.59,1.37,4.76c-3.56,2.72-5.81,7.48-6.77,14.28c-0.25,1.82-0.21,7.94,0.14,18.36c0.09,5.08-0.08,9.11-0.49,12.13
		c-5.27,2.26-8.39,3.4-9.31,3.4c2.22,3.56,3.58,7.33,4.12,11.29c-4.11,11.6-6.65,24.41-7.57,38.45
		c6.38-9.97,12.68-17.68,18.89-23.12c10.5,5.9,15.18,12.92,14.04,21.08c-0.78,2.27-1.52,4.31-2.22,6.12l-0.58-0.68
		c-2.62-7.24-7.54-10.88-14.79-10.88c-0.19,1.36-4.69,5.9-13.47,13.6l2.91-1.36c1.49-0.9,3.59-1.36,6.31-1.36
		c9.97,0,16.39,4.31,19.26,12.92c-6.15,1.82-11.49,2.72-16.02,2.72c-4.99,0-10.53-2.48-16.63-7.48l-10.61,75.47
		c8.96,0,1.08,0,113.38,0c-0.01,0.08-0.04,0.15-0.06,0.24c0.5-0.06,1.36-0.14,2.57-0.24c5.43,0,11.13,0,17.13,0
		c0.26,0.11,0.5,0.22,0.7,0.36c-0.04-0.12-0.07-0.23-0.11-0.36c0.74,0,1.47,0,2.22,0c0,0,0.07,0,0.16,0
		c0.67-2.57,1.31-5.27,1.91-8.08c0.43-0.16,0.91-0.34,1.46-0.56c2.06-0.81,3.89-1.22,5.52-1.22c3.89,0,6.94,1.3,9.18,3.89
		l-18.45,6.54c2.86-0.44,25.9-0.35,45.66-0.19c-0.06,0.14-0.09,0.24-0.1,0.3c0.11-0.1,0.22-0.19,0.34-0.29
		c15.08,0.13,28.19,0.29,28.86,0.29c3.56,0,8.88-11.51,23.22-39.71c-6.02,1.3-9.86,2.11-11.53,2.43c-3.62,0.33-5.98-0.16-7.09-1.46
		c6.71-1.62,13.34-6.16,19.91-13.62l0,0l3.32,1.79l6.55-9.73l-3.01-1.19l4.88-6.5l1.02,0.7c-0.09,0.12-0.15,0.21-0.27,0.34
		c-0.58,0.66-0.89,1.14-0.93,1.46c0.23,0.66,1.32,0.97,3.27,0.97c0.36,0,0.86-0.11,1.51-0.33l0,0l0,0c2.89-0.97,8.67-4.1,17.36-9.4
		c12.02-7.13,19.56-11.18,22.62-12.16c0.74,1.63,1.03,3.08,0.84,4.38c-0.41,2.92-2.47,5.43-6.17,7.54
		c-3.04,1.74-5.81,2.74-8.32,3.05c12.21-0.88,24.04-1.17,35.49-0.86c3.56,0,9.34,0.41,17.33,1.21c7.99,0.81,14.09,1.22,18.31,1.22
		c7.61,0,17.72,1.95,30.6,1.01c5.1,17.65,17.31,64.88,16.52,68.52h101.63C916.26,719.71,916.15,717.03,915.66,713.63z
		 M597.23,209.13l-2.46,17.51c-0.87,0-3.53,0.44-7.96,1.3c-2.23,0.44-4.08-0.21-5.56-1.95C581.61,223.4,586.94,217.78,597.23,209.13
		z M441.88,677.89c-1.96,0-1.92-0.18,0.06-0.53C441.92,677.54,441.9,677.73,441.88,677.89z M563.62,662.34
		c0.31-0.17,0.59-0.36,0.94-0.5l3.12-1.46c3.62,4.22,5,9.41,4.13,15.56c-0.83-0.97-2.42-1.29-4.73-0.97
		c-2.66,0.65-4.3,0.96-4.96,0.97C562.69,670.84,563.19,666.31,563.62,662.34z M558.19,704.37c1.12-6.24,2.12-12.96,2.99-20.18
		c1.22,3.46,1.94,6.26,2.14,8.4c0.65-0.07,1.57-0.11,2.76-0.11c2.92,0,5,1.3,6.26,3.89C566.28,700.01,561.57,702.68,558.19,704.37z
		 M596.23,630.23h-4.86l1.02-7.29h4.86L596.23,630.23z M756.12,378.35L754.34,391l0.11-11.18l-6.6-1.46H756.12z M709.3,410.44
		c-3.42,5.84-6.05,9.57-7.89,11.18c0.36-0.32,0.62-0.97,0.76-1.95c0.32-2.26-0.57-6.32-2.67-12.16
		C702.79,409.47,706.06,410.44,709.3,410.44z M699.76,578.69l63.11-134.21l8.36,49.91c-0.04,0-0.09,0.01-0.13,0.01
		c0.05,0,0.09,0.01,0.14,0.01l6.31,37.67l-7.94-3.97l-2.67,5.19l8.44,4.54l2.49-3.89l3.17,18.96l-0.16,1.14h0.35l4.12,24.64H699.76z
		 M841.46,641.02l1.33-0.58l0.09,0.38L841.46,641.02z M860.04,711.44c-0.79-1.29-0.71-3.08,0.26-5.35l18.81-4.47
		C873.64,703.8,867.28,707.08,860.04,711.44z M898.19,716.79l9.05-4.77C903.4,715.19,900.38,716.79,898.19,716.79z M1167.63,629.39
		c11.56-20.03,27.58-24.22,38.99-24.22c8.62,0,18.15,2.22,28.93,6.7l-10.18-19.08l-1.25,1.95c-0.05,0.07-0.11,0.14-0.19,0.2
		l-6.77-12.34c0.22-1.04,0.47-1.87,0.74-2.45l-16.68-33.55c-5.36-10.8-10.72-18.25-16.09-22.36l-6.22-11.34
		c0.6-1.28,1.22-2.66,1.87-4.23c-3.34-3.89-4.86-6.97-4.54-9.24c-1.72,0-3.29-0.03-4.76-0.07l-2.29-4.17
		c1.63-0.12,3.19-0.01,4.68,0.35l-6.55-8.75l29.95-26.26c11.59,5.19,20.54,9.57,26.84,13.13c-2.64-1.94-6.85-4.86-12.63-8.75
		c-5.77-3.89-9.98-6.81-12.63-8.75c3.51-1.95,6.12-3.24,7.84-3.89c0.6,0.33,4.08,2.11,10.43,5.35c4.22,2.27,7.17,4.38,8.84,6.32
		c-5.62-6.15-9.73-10.37-12.33-12.64c10.46-1.09,19.09-2.01,25.93-2.77c0.44-1.02,0.86-2.07,1.3-3.08
		c-1.06,0.42-2.16,0.91-3.28,1.48l-5.57-5.35l-1.31,2.43c-0.93,1.95-2.84,2.92-5.76,2.92c-3.57,0-4.91-3.08-4.05-9.24
		c14.02-13.52,30.77-29.06,50.22-46.61c2.64-3.71,5.32-7.32,8.08-10.77h-4.53l1.44-10.21h1.54c-0.04-0.72-0.09-1.44-0.09-2.19
		c0-8.96,3.36-19.92,10.18-33.17c-1.28,0.56-2.66,1.47-4.14,2.78l-6.52,4.86c-1.87-5.18-3.77-7.78-5.71-7.78
		c3.02,8.43,5.12,13.13,6.28,14.1c-11.35,0-18.25,0.65-20.69,1.95c-3.23-9.4-5.31-14.1-6.29-14.1c-5.29-1.62-13.11-2.43-23.49-2.43
		c-11.02,0-18.2,0.33-21.53,0.97l-70.9,71.97c-37.06,37.61-57.37,56.41-60.93,56.41c-2.6,0-4.73-0.97-6.4-2.92l-5.68,5.83
		l11.1-96.28c-0.66,0-2.41,0.41-5.28,1.22c-2.87,0.81-5.12,1.22-6.73,1.22c-4.86,0-10.88-6.81-18.04-20.42l4.99-4.38
		c2.13,0.97,4,1.46,5.63,1.46c1.62,0,3.92-1.37,6.9-4.13c2.98-2.75,4.96-4.13,5.93-4.13l-34.05-6.81
		c-3.56,6.81-6.25,12.16-8.09,16.05c-8.83,7.46-18.59,11.18-29.29,11.18c-2.92,0-6.17-1.7-9.74-5.1c-3.58-3.4-6.83-6.24-9.74-8.51
		l-16.61,118.16c14.26,0,23.11,0.49,26.54,1.46c-3.75,1.3-12.92,1.94-27.5,1.94c-0.82,5.84-3.17,8.75-7.06,8.75
		c6.35,3.24,10.75,5.35,13.21,6.32l-27.33,194.5c-6.3,0.97-10.11,6.16-11.43,15.56c-1.28,9.08-0.04,15.24,3.72,18.48l-1.11,0.97
		c-0.09,0.65,0.77,1.46,2.58,2.43c1.81,0.97,2.85,1.63,3.13,1.95c-1.85,1.62-4.76,3.51-10.27,3.4c16.7,0.32,29.03,0,55.94,0
		c-1.4-1.62,1.07-0.32,1.16-0.97c0.14-0.97,1.34-1.46,3.61-1.46c0.14,1.3,7.17,2.43,11.43,2.43c0.65,0,0.98-1.95,2.6-1.95
		c2.92,0,2.07-0.01,7.64,1.11c5.78,1.16,14.94,0.84,17.86,0.84l3.35-23.83c-0.97,0-2.07,0.9-3.29,2.67
		c-1.22,1.79-2.32,2.68-3.29,2.68l-4.6-8.75c-2.33-4.21-3.35-7.29-3.08-9.24c0.46-3.23,1.17-4.86,2.14-4.86l-0.07,0.49
		c0.6,0.33,0.86,0.81,0.77,1.46c-0.09,0.65-0.43,1.3-1,1.94c-0.58,0.65-0.89,1.14-0.94,1.46c0.23,0.65,1.32,0.97,3.27,0.97
		c4.21,0,6.48-1.13,6.8-3.4c4.19-9.07,8.02-25.93,11.48-50.57c-0.23,1.62-1.25,3.08-3.05,4.38c-0.6-1.26-1.1-2.46-1.55-3.6
		l14.39-102.43c0.97-0.95,2.04-1.44,3.23-1.44c1.94,0,5.48,3.65,10.62,10.94c5.13,7.29,8.51,10.94,10.13,10.94
		c1.62,0,3.53-1.46,5.72-4.38c1.16-1.55,2.03-2.9,2.64-4.08l5.79,10.55c-0.79,0.74-1.64,1.49-2.61,2.29
		c1.87,0.66,3.55,1.46,5.14,2.33l25.3,46.11c1.09,3.02,3.36,7.45,6.83,13.31c1.63,2.76,3.1,5.14,4.45,7.24l8.39,15.29
		c-0.4,0.13-0.81,0.25-1.22,0.32c8.64,17.57,15.77,31.06,21.38,40.49c0.84-2.89,1.7-6.03,2.6-9.5
		C1158.53,650.79,1163.26,637.03,1167.63,629.39z M1264.44,366.68l1.41,10.7h-3.89l-2.1-9.24L1264.44,366.68z M950.05,616.89
		c-0.73-0.44-1.46-0.87-2.15-1.24c0.8,0,1.56,0,2.33-0.01L950.05,616.89z M968.38,670.6l-5.85-6.81l0.2-0.18h5.3l3.61,4.55
		L968.38,670.6z M1030.68,597.93c0.68-0.51,1.51-0.76,2.49-0.76C1032.43,597.57,1031.59,597.8,1030.68,597.93z M1031.28,593.28
		l-3.62-1.95l4.36-6.81l3.75,0.97L1031.28,593.28z M1133.94,648.23l0.19-1.34l0.98,1.79L1133.94,648.23z"/>
</g>
</svg>
