<?xml version="1.0" encoding="UTF-8"?><svg id="a" xmlns="http://www.w3.org/2000/svg" viewBox="0 0 381.31 59.31"><path d="m33.64,25c-.28,3.45-.42,6.89-.42,10.34,0,7.8.36,13.7,1.09,17.68.05.33.07.6.07.81,0,.94-.33,1.71-.98,2.32-.66.61-1.42.91-2.29.91-1.45,0-2.52-1.05-3.2-3.16-1.69,1.24-3.44,2.18-5.26,2.81-1.82.63-3.71.95-5.68.95-4.85,0-8.87-1.62-12.06-4.85-3.28-3.3-4.92-7.55-4.92-12.73,0-6.26,1.66-11.27,4.97-15.05,3.32-3.77,7.62-5.66,12.92-5.66,2.72,0,4.82.42,6.29,1.27l3.3,2.43c.33-9.87.71-16.51,1.16-19.93.3-2.09,1.37-3.13,3.2-3.13,2.13,0,3.2,1.14,3.2,3.41,0,3.26-.47,10.45-1.41,21.59Zm-15.61.91c-3.94,0-6.89,1.17-8.86,3.5-1.97,2.33-2.95,5.84-2.95,10.53,0,3.02,1.07,5.62,3.22,7.8s4.66,3.27,7.54,3.27c1.97,0,3.63-.36,4.99-1.09.8-.42,2.1-1.39,3.9-2.92.35-.3.69-.67,1.02-1.09l-.11-6.08.04-4.08.07-4.15c-.89-1.9-2.07-3.32-3.55-4.27s-3.25-1.42-5.31-1.42Z" style="fill:#fff;"/><path d="m71.02,58.36c-.45,0-1.25-.52-2.43-1.55-1.05-.96-1.84-1.82-2.36-2.57-2.25,1.22-4.23,2.14-5.94,2.76-1.71.62-3.14.93-4.29.93-5.48,0-9.48-1.55-11.99-4.64-2.37-2.91-3.55-7.36-3.55-13.36,0-5.67,1.95-10.52,5.85-14.55,3.9-4.03,8.56-6.05,13.97-6.05,2.04,0,4.32.53,6.86,1.58,3.19,1.31,4.78,2.9,4.78,4.75,0,.63-.23,1.2-.7,1.69-.23.89-.42,2.36-.54,4.39-.13,2.04-.21,4.65-.23,7.84-.02,2.91.18,5.2.6,6.89.23,1.03.97,3.09,2.21,6.19.16.42.43,1.04.81,1.86l.21.6c0,.94-.33,1.71-.98,2.32-.66.61-1.42.91-2.29.91Zm-7.31-24.43c0-1.01.06-2.1.19-3.29.13-1.18.32-2.44.58-3.78-.87-.44-1.61-.77-2.23-.98-.62-.21-1.12-.32-1.49-.32-3.63,0-6.77,1.48-9.4,4.45-2.64,2.97-3.96,6.38-3.96,10.25s.68,6.73,2.04,8.65c1.36,1.92,3.4,2.88,6.12,2.88,2.25,0,4.16-.41,5.73-1.23.84-.44,2.03-1.34,3.55-2.67-.75-6.21-1.12-10.86-1.12-13.96Z" style="fill:#fff;"/><path d="m96.61,54.21c-.07,2.16-1.14,3.23-3.2,3.23-1.71,0-2.95-1.01-3.73-3.02l-5.38-14.27-6.26-16.14c-.23-.61-.35-1.15-.35-1.62,0-.96.36-1.78,1.09-2.46.73-.68,1.57-1.02,2.53-1.02,1.41,0,2.41.72,3.02,2.14l8.93,24.57c1.76-3.75,3.97-9.19,6.64-16.31.63-1.88,1.63-4.52,2.99-7.95.73-1.5,1.76-2.25,3.09-2.25.96,0,1.8.34,2.53,1.02.73.68,1.09,1.49,1.09,2.43s-1.93,5.91-5.8,15.05l-7.21,16.59Z" style="fill:#fff;"/><path d="m123.71,40.08c0,1.41.04,3.51.12,6.31.08,2.8.12,4.9.12,6.31,0,1.03-.32,1.88-.95,2.53-.63.66-1.46.98-2.5.98s-1.83-.33-2.48-.98c-.65-.66-.97-1.5-.97-2.53,0-1.41-.04-3.51-.12-6.31-.08-2.8-.12-4.9-.12-6.31,0-2.2.12-4.95.35-8.24.23-3.29.35-6.04.35-8.24,0-1.05.32-1.91.97-2.57.64-.66,1.47-.98,2.48-.98s1.83.33,2.48.98c.64.66.97,1.51.97,2.57,0,2.2-.12,4.95-.35,8.24-.23,3.29-.35,6.04-.35,8.24Zm-1.58-28.55c-1.12,0-2.1-.4-2.92-1.2-.82-.8-1.23-1.76-1.23-2.88s.41-2.09,1.23-2.88c.82-.8,1.79-1.2,2.92-1.2s2.09.4,2.9,1.2c.81.8,1.21,1.76,1.21,2.88s-.4,2.09-1.21,2.88c-.81.8-1.78,1.2-2.9,1.2Z" style="fill:#fff;"/><path d="m167.98,25c-.28,3.45-.42,6.89-.42,10.34,0,7.8.36,13.7,1.09,17.68.05.33.07.6.07.81,0,.94-.33,1.71-.98,2.32s-1.42.91-2.29.91c-1.45,0-2.52-1.05-3.2-3.16-1.69,1.24-3.44,2.18-5.26,2.81s-3.71.95-5.68.95c-4.85,0-8.87-1.62-12.06-4.85-3.28-3.3-4.92-7.55-4.92-12.73,0-6.26,1.66-11.27,4.97-15.05,3.32-3.77,7.62-5.66,12.92-5.66,2.72,0,4.82.42,6.29,1.27l3.3,2.43c.33-9.87.71-16.51,1.16-19.93.3-2.09,1.37-3.13,3.2-3.13,2.13,0,3.2,1.14,3.2,3.41,0,3.26-.47,10.45-1.41,21.59Zm-15.61.91c-3.94,0-6.89,1.17-8.86,3.5-1.97,2.33-2.95,5.84-2.95,10.53,0,3.02,1.07,5.62,3.22,7.8s4.66,3.27,7.54,3.27c1.97,0,3.63-.36,4.99-1.09.8-.42,2.1-1.39,3.9-2.92.35-.3.69-.67,1.02-1.09l-.11-6.08.04-4.08.07-4.15c-.89-1.9-2.07-3.32-3.55-4.27s-3.25-1.42-5.31-1.42Z" style="fill:#fff;"/><path d="m205.35,58.36c-.45,0-1.25-.52-2.43-1.55-1.05-.96-1.84-1.82-2.36-2.57-2.25,1.22-4.23,2.14-5.94,2.76-1.71.62-3.14.93-4.29.93-5.48,0-9.48-1.55-11.99-4.64-2.37-2.91-3.55-7.36-3.55-13.36,0-5.67,1.95-10.52,5.85-14.55,3.9-4.03,8.56-6.05,13.97-6.05,2.04,0,4.32.53,6.86,1.58,3.19,1.31,4.78,2.9,4.78,4.75,0,.63-.23,1.2-.7,1.69-.23.89-.42,2.36-.54,4.39s-.21,4.65-.23,7.84c-.02,2.91.18,5.2.6,6.89.23,1.03.97,3.09,2.21,6.19.16.42.43,1.04.81,1.86l.21.6c0,.94-.33,1.71-.98,2.32-.66.61-1.42.91-2.29.91Zm-7.31-24.43c0-1.01.06-2.1.19-3.29.13-1.18.32-2.44.58-3.78-.87-.44-1.61-.77-2.23-.98s-1.12-.32-1.49-.32c-3.63,0-6.77,1.48-9.4,4.45-2.64,2.97-3.96,6.38-3.96,10.25s.68,6.73,2.04,8.65c1.36,1.92,3.4,2.88,6.12,2.88,2.25,0,4.16-.41,5.73-1.23.84-.44,2.03-1.34,3.55-2.67-.75-6.21-1.12-10.86-1.12-13.96Z" style="fill:#fff;"/><path d="m241.7,58.54c-2.02,0-3.15-1.1-3.41-3.3l-.98-7.7c-.33-2.74-.49-5.31-.49-7.7,0-.66.04-1.77.12-3.34.08-1.57.12-2.68.12-3.34,0-5.06-.94-7.59-2.81-7.59-2.62,0-5.13,1.56-7.52,4.68-2.16,2.84-3.84,6.42-5.06,10.76-.05.91-.15,2.06-.32,3.45-.14,1.17-.21,2.31-.21,3.41,0,.7.07,1.76.21,3.16s.21,2.46.21,3.16c0,1.05-.32,1.91-.97,2.57-.64.66-1.47.98-2.48.98s-1.86-.33-2.5-.98c-.63-.66-.95-1.51-.95-2.57,0-.7-.08-1.76-.23-3.16s-.23-2.46-.23-3.16c0-2.41.17-5.76.51-10.04.34-4.28.51-7.62.51-10.04,0-.75-.04-1.86-.12-3.34s-.12-2.59-.12-3.34c0-1.01.33-1.83,1-2.48.67-.64,1.49-.97,2.48-.97,2.16,0,3.34,1.52,3.55,4.57l.11,4.11c3.94-5.25,7.98-7.88,12.13-7.88,3.75,0,6.36,1.65,7.84,4.96,1.01,2.2,1.56,5.46,1.65,9.77v3.55l-.04,3.27c0,1.95.25,4.46.76,7.54.5,3.08.76,5.58.76,7.51,0,1.03-.33,1.87-1,2.51-.67.64-1.51.97-2.51.97Z" style="fill:#fff;"/><path d="m256.92,59.31c-1.22,0-2.25-.42-3.09-1.27s-1.27-1.88-1.27-3.09.42-2.22,1.27-3.08c.84-.86,1.88-1.28,3.09-1.28s2.22.43,3.08,1.28c.86.86,1.28,1.88,1.28,3.08s-.43,2.25-1.28,3.09-1.88,1.27-3.08,1.27Z" style="fill:#fff;"/><path d="m302.73,25c-.28,3.45-.42,6.89-.42,10.34,0,7.8.36,13.7,1.09,17.68.05.33.07.6.07.81,0,.94-.33,1.71-.98,2.32s-1.42.91-2.29.91c-1.45,0-2.52-1.05-3.2-3.16-1.69,1.24-3.44,2.18-5.26,2.81s-3.71.95-5.68.95c-4.85,0-8.87-1.62-12.06-4.85-3.28-3.3-4.92-7.55-4.92-12.73,0-6.26,1.66-11.27,4.97-15.05,3.32-3.77,7.62-5.66,12.92-5.66,2.72,0,4.82.42,6.29,1.27l3.3,2.43c.33-9.87.71-16.51,1.16-19.93.3-2.09,1.37-3.13,3.2-3.13,2.13,0,3.2,1.14,3.2,3.41,0,3.26-.47,10.45-1.41,21.59Zm-15.61.91c-3.94,0-6.89,1.17-8.86,3.5-1.97,2.33-2.95,5.84-2.95,10.53,0,3.02,1.07,5.62,3.22,7.8s4.66,3.27,7.54,3.27c1.97,0,3.63-.36,4.99-1.09.8-.42,2.1-1.39,3.9-2.92.35-.3.69-.67,1.02-1.09l-.11-6.08.04-4.08.07-4.15c-.89-1.9-2.07-3.32-3.55-4.27s-3.25-1.42-5.31-1.42Z" style="fill:#fff;"/><path d="m329.06,57.66c-5.3,0-9.59-1.32-12.87-3.97-3.59-2.93-5.38-7.03-5.38-12.3,0-6.09,1.48-11.2,4.43-15.33,3.21-4.5,7.5-6.75,12.87-6.75,3.89,0,7.07.66,9.53,1.97,3.02,1.62,4.54,4.1,4.54,7.45,0,2.34-1.32,4.48-3.97,6.4-1.17.84-3.66,2.16-7.45,3.94l-13.43,6.36c1.31,1.95,2.95,3.41,4.9,4.39s4.24,1.48,6.84,1.48c1.62,0,3.52-.3,5.7-.91,2.77-.77,4.55-1.79,5.34-3.04.8-1.25,1.65-1.88,2.57-1.88.82,0,1.55.31,2.2.93.64.62.97,1.34.97,2.16,0,2.6-2.1,4.84-6.29,6.71-3.59,1.59-7.08,2.39-10.48,2.39Zm-.95-32.03c-2.86,0-5.24,1.11-7.14,3.32s-3.32,5.55-4.25,10l10.79-5.13c4.24-2.06,7.27-3.85,9.07-5.38-2.02-1.88-4.84-2.81-8.47-2.81Z" style="fill:#fff;"/><path d="m368.3,54.21c-.07,2.16-1.14,3.23-3.2,3.23-1.71,0-2.95-1.01-3.73-3.02l-5.38-14.27-6.26-16.14c-.23-.61-.35-1.15-.35-1.62,0-.96.36-1.78,1.09-2.46.73-.68,1.57-1.02,2.53-1.02,1.41,0,2.41.72,3.02,2.14l8.93,24.57c1.76-3.75,3.97-9.19,6.64-16.31.63-1.88,1.63-4.52,2.99-7.95.73-1.5,1.76-2.25,3.09-2.25.96,0,1.8.34,2.53,1.02.73.68,1.09,1.49,1.09,2.43s-1.93,5.91-5.8,15.05l-7.21,16.59Z" style="fill:#fff;"/></svg>