<?xml version="1.0" encoding="utf-8"?>
<!-- Generator: Adobe Illustrator 27.8.1, SVG Export Plug-In . SVG Version: 6.00 Build 0)  -->
<svg version="1.1" id="Logo" xmlns="http://www.w3.org/2000/svg" xmlns:xlink="http://www.w3.org/1999/xlink" x="0px" y="0px"
	 viewBox="0 0 804.9 240.8" style="enable-background:new 0 0 804.9 240.8;" xml:space="preserve">
<style type="text/css">
	.st0{fill:#FFFFFF;}
	.st1{fill:#D63727;}
	.st2{fill:#D63B27;}
</style>
<g id="Logo_00000153688393404412623950000014112660305618694053_">
	<path id="White_border" class="st0" d="M172.9,220c37.3-20.3,61.3-59.7,61.3-102.9C234.2,52.5,181.7,0,117.1,0S0,52.5,0,117.1
		c0,43.2,24,82.6,61.3,102.9c-46,2.2-46,6-46,9.8c0,4.1,1.6,6.7,32.4,8.9c18.6,1.3,43.2,2.1,69.4,2.1c26.2,0,50.9-0.7,69.4-2.1
		c30.8-2.2,32.4-4.8,32.4-8.9C218.9,226,218.9,222.2,172.9,220z"/>
	<g id="XMLID_2_">
		<ellipse id="shadow" cx="117.1" cy="229.8" rx="97.8" ry="7"/>
		<g id="XMLID_3_">
			<circle id="white_BG" class="st0" cx="117.1" cy="117.1" r="103.8"/>
			<g id="XMLID_4_">
				<g id="B">
					<path id="XMLID_13_" d="M117.9,145.6c5,12.8,16.2,17.7,32.2,17.7h12.3c23.4,0,35.9-12.3,35.9-36.1V89.8h-80.7H37v37.4
						c0,23.8,12.5,36.1,35.9,36.1h12.3c16,0,27.3-5,32.2-17.7h0.2H117.9z M148.6,139.6c-10.7,0-15.7-2.6-17.5-8.6l0,0
						c0,0-2.2-6.8-12.6-7.4c0,0-0.3,0-0.8,0c-0.5,0-0.8,0-0.8,0c-10.4,0.6-12.6,7.4-12.6,7.4l0,0c-1.8,6-6.9,8.6-17.5,8.6H73.6
						c-11.3,0-14.9-4.3-14.9-12.3v-13.6h59h59v13.6c0,8-3.7,12.3-14.9,12.3H148.6z"/>
				</g>
				<path id="Orange" class="st1" d="M117.1,18.8c-54.2,0-98.3,44.1-98.3,98.3s44.1,98.3,98.3,98.3s98.3-44.1,98.3-98.3
					S171.3,18.8,117.1,18.8z M195.7,92.5v34.7c0,22.2-11.2,33.4-33.2,33.4h-12.3c-16,0-25.4-5.1-29.7-16l-1-1.7h-1.9l-1.6,0.3
					l-0.8,1l-0.4,0.7c-4.3,10.7-13.7,15.7-29.6,15.7H72.9c-22,0-33.2-11.2-33.2-33.4V92.5H195.7z"/>
				<g id="Black_Border">
					<path id="XMLID_6_" d="M117.1,230.2C54.7,230.2,4,179.4,4,117.1C4,54.7,54.7,4,117.1,4s113.1,50.7,113.1,113.1
						C230.2,179.4,179.4,230.2,117.1,230.2z M117.1,23C65.2,23,23,65.2,23,117.1s42.2,94.1,94.1,94.1s94.1-42.2,94.1-94.1
						S169,23,117.1,23z"/>
				</g>
			</g>
		</g>
	</g>
</g>
<g id="Wordmark_00000047766613540047430740000013415223000928150964_">
	<g id="BINARY">
		<path id="B_00000051364805654981580000000012843005157036526527_" class="st0" d="M287.6,120.3c8-3.1,11.1-10.1,11.1-20.1v-7.7
			c0-14.6-7.7-22.4-22.5-22.4h-23.3v100.6h23.3c14.8,0,22.5-7.8,22.5-22.4v-7.7c0-10-3.1-17-11.1-20.1V120.3z M283.9,101.1
			c0,6.6-1.6,9.8-5.3,10.9l0,0c0,0-4.2,1.3-4.6,7.8c0,0,0,0.2,0,0.5c0,0.3,0,0.5,0,0.5c0.4,6.5,4.6,7.8,4.6,7.8l0,0
			c3.7,1.1,5.3,4.3,5.3,10.9v8.2c0,7-2.7,9.3-7.7,9.3h-8.5V83.6h8.5c5,0,7.7,2.3,7.7,9.3V101.1z"/>
		<g id="I_00000082333743757819352370000007781034010161211304_">
			<rect x="306.8" y="138.4" class="st0" width="15.8" height="32"/>
			<polygon class="st0" points="322.6,70.1 306.8,70.1 306.8,137.7 322.6,137.7 			"/>
		</g>
		<g id="N_00000125605327516626371430000013642319784564519553_">
			<rect x="333.9" y="138.4" class="st0" width="14.2" height="32"/>
			<polygon class="st0" points="383.9,70.1 369.9,70.1 369.9,130.1 369.6,130.1 353.7,70.1 333.9,70.1 333.9,137.6 348.1,137.5 
				348.1,97.8 348.4,97.8 358.9,137.5 383.9,137.3 			"/>
			<polygon class="st0" points="383.9,170.4 383.9,138.4 359.2,138.4 367.7,170.4 			"/>
		</g>
		<g id="A_00000171702976044431266190000006079560361531339710_">
			<polygon class="st0" points="417.7,87.9 418,87.9 425.2,137.1 440.9,137 430.2,70.1 407.1,70.1 396.4,137.2 410.5,137.2 			"/>
			<polygon class="st0" points="391.1,170.4 405.5,170.4 408.2,152.2 427.6,152.2 430.3,170.4 446.2,170.4 441.1,138.4 425.4,138.4 
				425.4,138.6 410.2,138.6 410.3,138.4 396.2,138.4 			"/>
		</g>
		<g id="R">
			<path class="st0" d="M477.3,70.1h-23.8v66.8l15.8-0.1v-7.3h5.4c5.5,0,8.6,2,9.8,7.2l15.9-0.1c-0.9-7.3-3.8-12.5-10.1-15.1v-0.3
				c7-3.3,10.3-9.9,10.3-20.2v-7.9C500.6,77.7,493.6,70.1,477.3,70.1 M484.9,104.6c0,8-3.6,10.6-9.5,10.6h-6.2V84.4h7.6
				c5.6,0,8,3.1,8,10.3V104.6z"/>
			<path class="st0" d="M500.6,138.4h-15.8c0.2,1.2,0.2,2.5,0.2,3.9v15.8c0,8.2,0.6,9.7,1.4,12.3h16c-1.6-3.7-1.7-7.3-1.7-12.2
				v-15.5C500.8,141.2,500.7,139.8,500.6,138.4"/>
			<rect x="453.5" y="138.4" class="st0" width="15.8" height="32"/>
		</g>
		<g id="Y">
			<rect x="524.4" y="138.4" class="st0" width="15.8" height="32"/>
			<polygon class="st0" points="560.1,70.1 545,70.1 533.1,115.8 532.8,115.8 521,70.1 504.5,70.1 524.2,136.5 540.4,136.4 			"/>
		</g>
	</g>
	<g id="NINJA">
		<g id="N_00000076593924657109010030000010573016914113526970_">
			<polygon class="st2" points="617.6,170.4 617.6,138.4 592.9,138.4 601.4,170.4 			"/>
			<rect x="567.6" y="138.4" class="st2" width="14.2" height="32"/>
			<polygon class="st2" points="617.6,70.1 603.6,70.1 603.6,130.1 603.3,130.1 587.4,70.1 567.6,70.1 567.6,136.3 581.8,136.2 
				581.8,97.8 582.1,97.8 592.3,136.1 617.6,136 			"/>
		</g>
		<g id="I">
			<rect x="628.9" y="138.4" class="st2" width="15.8" height="32"/>
			<polygon class="st2" points="628.9,70.1 628.9,135.9 644.7,135.8 644.7,70.1 			"/>
		</g>
		<g id="N">
			<polygon class="st2" points="706,170.4 706,138.4 681.3,138.4 689.8,170.4 			"/>
			<rect x="656" y="138.4" class="st2" width="14.2" height="32"/>
			<polygon class="st2" points="706,70.1 692,70.1 692,130.1 691.7,130.1 675.8,70.1 656,70.1 656,135.8 670.2,135.7 670.2,97.8 
				670.5,97.8 680.6,135.6 706,135.5 			"/>
		</g>
		<g id="J">
			<path class="st2" d="M727.5,146.6c0,7.7-4,9.6-9,9.6c-1.7,0-3.7,0-5.4-0.1v14.3c2.6,0.3,4.7,0.3,7.6,0.3
				c11.9,0,22.6-5.2,22.6-25.2v-7.1h-15.8V146.6z"/>
			<polygon class="st2" points="743.2,70.1 727.5,70.1 727.5,135.4 743.2,135.3 			"/>
		</g>
		<g id="A">
			<path class="st2" d="M782.3,107.5c0.2,0.3,0.4,0.5,0.6,0.7c0.4,0.4,0.8,0.8,1.3,1.1c0.2,0.2,0.5,0.3,0.7,0.5
				c0.3,0.1,0.5,0.3,0.8,0.4c1.1,0.6,2.2,1,3.3,1.5c0.8,0.3,1.5,0.7,2.3,1c1.8,0.8,3.5,1.8,5,3.2l-7.3-45.8h-23.1l-6.8,42.3
				c0.3,0.3,0.7,0.6,1.1,0.9c0.1,0,0.1,0.1,0.2,0.1c0.8,0.5,1.7,0.8,2.6,0.9c0.1,0,0.2,0,0.3,0c0.4,0,0.9,0,1.3,0h0
				c0.8-0.1,1.5-0.3,2.2-0.6c0.2-0.1,0.5-0.2,0.7-0.3c0.7-0.4,1.4-0.8,1.9-1.5c0.3-0.3,0.5-0.6,0.7-0.9c0.4-0.6,0.8-1.2,1.1-1.8
				c0.8-1.6,1.5-3.3,2.2-5c0-0.1,0.1-0.2,0.1-0.3c0.2-0.6,0.5-1.1,0.8-1.6c0.6-1,1.2-2,2-2.9c0.4-0.4,0.8-0.9,1.3-1.3
				c1.6-1.4,3.5-2.2,5.5-2.2c0.7,0,1.4,0.1,2.1,0.3c0.1,0,0.3,0.1,0.5,0.1c-0.1,0-0.2,0.1-0.2,0.1c-0.6,0.3-1.2,0.6-1.7,1
				c-0.5,0.3-0.9,0.7-1.3,1.1c-0.4,0.5-0.8,1.1-1,1.7c-0.1,0.4-0.2,0.8-0.3,1.2c-0.3,1.9-0.1,3.6,0.7,5.2
				C782,107,782.1,107.2,782.3,107.5"/>
			<path class="st2" d="M749.8,170.4h14.5l2.7-18.2h19.3l2.7,18.2h15.9l-7.7-48.2c-0.2-0.2-0.4-0.5-0.7-0.7c-0.1,0-0.1-0.1-0.2-0.1
				c-0.2-0.2-0.4-0.3-0.7-0.5c-0.1-0.1-0.3-0.2-0.4-0.2c-0.2-0.1-0.4-0.2-0.6-0.2c-0.4-0.1-0.7-0.2-1.1-0.3h0
				c-1.1-0.2-2.2-0.2-3.2,0.1c-1,0.2-2,0.7-2.9,1.3c-0.5,0.4-0.9,0.8-1.3,1.3c-0.4,0.5-0.7,1-1,1.6c-0.7,1.4-1.3,2.9-2,4.3
				c-0.2,0.5-0.5,1-0.7,1.6c-0.4,0.8-0.7,1.5-1.1,2.2c-0.9,1.5-1.9,2.9-3.3,4c-1.4,1-2.9,1.7-4.5,1.8h0l0,0h-18.6L749.8,170.4z"/>
			<path class="st2" d="M778.1,114.1C778.1,114.1,778.1,114,778.1,114.1c-1.1-0.1-2.2,0.5-2.7,1.4c-0.1,0.2-0.2,0.4-0.3,0.6
				c-0.2,0.4-0.3,0.8-0.2,1.2c0,1.7,1.5,3.2,3.2,3.2c0.9,0,1.7-0.4,2.3-1c0.3-0.3,0.5-0.6,0.7-1c0.1-0.2,0.2-0.4,0.2-0.7
				c0-0.2,0.1-0.4,0.1-0.6C781.3,115.6,780,113.9,778.1,114.1"/>
			<path class="st2" d="M755.4,135.2l18.7-0.1c0,0,0,0,0,0c0.5-0.7,0.8-1.5,0.9-2.4c0-0.3,0.1-0.6,0.1-0.9c0-0.4,0-0.9,0-1.3
				c-0.1-1.1-0.4-2.1-1-3.1c-0.2-0.4-0.5-0.7-0.8-1.1c-0.3-0.3-0.6-0.6-0.9-0.9c-0.5-0.4-1-0.7-1.6-1c-0.2-0.1-0.4-0.2-0.6-0.3
				c-0.8-0.4-1.6-0.7-2.4-1c-0.5-0.2-0.9-0.4-1.3-0.6c-1.5-0.7-3-1.4-4.5-2.2c-0.5-0.3-0.9-0.6-1.4-0.9l0,0
				c-0.4-0.3-0.8-0.7-1.2-1.1c0,0-0.1-0.1-0.1-0.1c-0.4-0.4-0.7-0.8-1-1.2L755.4,135.2z"/>
		</g>
	</g>
</g>
</svg>
