<svg xmlns="http://www.w3.org/2000/svg" viewBox="0 0 129 31.889"><path data-name="Union 1" d="M47.325 27.874h2.25a4.855 4.855 0 004.2 2.156 5.084 5.084 0 005.4-5.13v-.743l-.525.52a7.25 7.25 0 01-4.8 1.785 7.113 7.113 0 01-5.325-2.23 7.964 7.964 0 01-2.175-5.353 7.514 7.514 0 017.35-7.659 7.277 7.277 0 015.4 2.231 7.6 7.6 0 012.175 5.2v5.2c0 5.056-2.775 8.03-7.35 8.03a6.787 6.787 0 01-6.6-4.007zm1.2-9a5.3 5.3 0 005.325 5.576 5.438 5.438 0 005.325-5.576 5.331 5.331 0 10-10.65 0zM102.6 31.592V18.877a7.514 7.514 0 017.35-7.659 7.16 7.16 0 015.4 2.231 7.281 7.281 0 012.175 5.2 8.044 8.044 0 01-2.025 5.353 6.961 6.961 0 01-5.4 2.454 7.281 7.281 0 01-4.8-1.71l-.525-.446v7.287zm2.175-12.714a5.3 5.3 0 005.325 5.576 5.438 5.438 0 005.325-5.576 5.331 5.331 0 10-10.65 0zM32.925 24.3a8.006 8.006 0 01-2.175-5.428 7.027 7.027 0 012.1-5.279 7.334 7.334 0 015.4-2.454 7.635 7.635 0 015.475 2.305 5.112 5.112 0 01.825.966l.075.074L42.6 16.5l-.075-.149A4.6 4.6 0 0038.4 13.9a4.756 4.756 0 00-4.725 4.982 4.756 4.756 0 004.725 4.977 4.625 4.625 0 004.05-2.459l.15-.074 2.025 2.008-.075.074a6.529 6.529 0 01-.6.744 7.659 7.659 0 01-5.55 2.458 7.39 7.39 0 01-5.475-2.31zm54.3-4.015v-8.62h2.25v8.922c.15 2.156 2.475 3.718 4.5 3.718s4.35-1.562 4.5-3.718v-8.922h2.4v8.625c0 3.346-3.224 6.245-6.825 6.245s-6.825-2.899-6.825-6.245zm-68.85 3.866a8.009 8.009 0 01-2.175-5.423 7.624 7.624 0 012.1-5.353 7.335 7.335 0 015.4-2.453 7.637 7.637 0 015.475 2.3 3.247 3.247 0 01.45.521l.075.074-2.025 2.008-.075-.074a4.736 4.736 0 00-3.825-1.933 4.612 4.612 0 00-4.65 4.833 4.756 4.756 0 004.725 4.982A4.5 4.5 0 0027.6 21.7l.075-.074 2.025 2.01-.075.074a1.026 1.026 0 01-.225.3 7.66 7.66 0 01-5.551 2.454 7.39 7.39 0 01-5.474-2.308zm54.225-.144a7.965 7.965 0 01-2.176-5.353A7.513 7.513 0 0177.775 11a7.521 7.521 0 017.575 7.435 8.044 8.044 0 01-2.025 5.353 6.962 6.962 0 01-5.4 2.454 7.109 7.109 0 01-5.325-2.235zm0-5.428a5.33 5.33 0 1010.649 0 5.33 5.33 0 10-10.649 0zm-61.65 7.585V17.39c0-1.933-2.1-3.42-3.975-3.42-1.8 0-3.975 1.487-3.975 3.42v8.774H0v-8.7C0 14.044 3.3 11 7.05 11c3.675 0 6.975 3.048 6.9 6.469v8.7zm52.5-.149v-7.287a7.154 7.154 0 012.025-5.13 7.8 7.8 0 014.725-2.38v2.156a5.27 5.27 0 00-4.425 5.353v7.287zm57.075-13.606A6.22 6.22 0 01116.5 8.67l-.021.02a6.32 6.32 0 01-.151-4.238A6.615 6.615 0 01124.5.289a6.15 6.15 0 013.451 2.6c-.076.074-.151.074-.225.149a2.284 2.284 0 01-1.65.223 2.945 2.945 0 00-3 1.338c-.9 1.71-1.5 2.157-3.224 2.231a2.721 2.721 0 00-2.4 1.334 2.391 2.391 0 00-.794.371c.119-.048.247-.1.343-.144a3.69 3.69 0 012.027.091 3.709 3.709 0 002.173.058c1.125-.3 1.725-1.19 2.549-1.413a3.53 3.53 0 012.392.365 4.247 4.247 0 001.809.453 1.611 1.611 0 00.9-.223c-.075.149-.075.372-.15.521a6.612 6.612 0 01-6.257 4.453 6.5 6.5 0 01-1.919-.288zm-1.575-4.238a2.99 2.99 0 00-1.494-.005l.07-.069a3.1 3.1 0 012.55-1.041 2.106 2.106 0 00-1.05.743 3.028 3.028 0 012.624-.599 2.212 2.212 0 00.675.149 4.443 4.443 0 01-1.5.893 2.329 2.329 0 01-.639.081 6.537 6.537 0 01-1.236-.152zm-1.5 0l-.005.005a.023.023 0 01.005-.009zm4.425-1.409h-.151a4.594 4.594 0 001.425-1.264 3.226 3.226 0 012.7-1.264 3.9 3.9 0 00-1.2 1.041 3.357 3.357 0 01-2.614 1.493l-.16-.01zm3.15-.595l.3-.3a2.972 2.972 0 013.075-.371 5.159 5.159 0 01.6.223v.221a2.1 2.1 0 01-1.425.669 21.012 21.012 0 00-2.55-.446z" fill="#2b3388"/></svg>