<?xml version="1.0" encoding="UTF-8" standalone="no"?>
<svg
   xmlns:dc="http://purl.org/dc/elements/1.1/"
   xmlns:cc="http://creativecommons.org/ns#"
   xmlns:rdf="http://www.w3.org/1999/02/22-rdf-syntax-ns#"
   xmlns:svg="http://www.w3.org/2000/svg"
   xmlns="http://www.w3.org/2000/svg"
   xmlns:sodipodi="http://sodipodi.sourceforge.net/DTD/sodipodi-0.dtd"
   xmlns:inkscape="http://www.inkscape.org/namespaces/inkscape"
   viewBox="0 0 307.06641 89.128921"
   version="1.1"
   id="svg2"
   inkscape:version="0.91 r13725"
   sodipodi:docname="ccsw_logo.svg"
   inkscape:export-filename="/home/jreinhart/logo/ccsw_logo_140x41.png"
   inkscape:export-xdpi="32.826775"
   inkscape:export-ydpi="32.826775">
  <metadata
     id="metadata53">
    <rdf:RDF>
      <cc:Work
         rdf:about="">
        <dc:format>image/svg+xml</dc:format>
        <dc:type
           rdf:resource="http://purl.org/dc/dcmitype/StillImage" />
        <dc:title />
      </cc:Work>
    </rdf:RDF>
  </metadata>
  <defs
     id="defs51" />
  <sodipodi:namedview
     pagecolor="#ffffff"
     bordercolor="#666666"
     borderopacity="1"
     objecttolerance="10"
     gridtolerance="10"
     guidetolerance="10"
     inkscape:pageopacity="0"
     inkscape:pageshadow="2"
     inkscape:window-width="1920"
     inkscape:window-height="1014"
     id="namedview49"
     showgrid="false"
     inkscape:zoom="2.6970053"
     inkscape:cx="108.70437"
     inkscape:cy="62.127123"
     inkscape:window-x="0"
     inkscape:window-y="27"
     inkscape:window-maximized="1"
     inkscape:current-layer="svg2"
     fit-margin-top="0"
     fit-margin-left="0"
     fit-margin-right="0"
     fit-margin-bottom="0" />
  <g
     id="surface9167"
     transform="translate(-152.77344,-350.92578)">
    <path
       style="fill:#d93035;fill-opacity:1;fill-rule:nonzero;stroke:none"
       d="m 241.90234,440.05469 -89.1289,0 0,-89.12891 89.1289,0 z m 0,0"
       id="path5"
       inkscape:connector-curvature="0" />
    <path
       style="fill:#ffffff;fill-opacity:1;fill-rule:nonzero;stroke:none"
       d="m 207.54297,422.45703 -2.3086,0 c 0.19532,-1.19141 -0.23437,-3.35937 -0.0312,-4.21875 0.67969,-2.89062 0.58985,-6.18359 0.30469,-9.14453 -0.15625,-1.625 -0.30078,-3.01172 -0.77734,-4.53516 -0.33203,-1.07031 -0.83594,-2.16797 -1.32031,-3.25 0.64843,-1.32031 2.23046,-3.74218 1.9375,-4.76953 -0.33594,-1.15625 -1.72657,-4.67969 -1.78907,-5.89062 -0.0625,-1.26563 0.10157,-2.50782 -0.52734,-3.59766 -0.60938,-1.05469 -1.37109,-1.61328 -2.44141,-2.08984 -0.3789,-0.16797 -1.15234,-0.55078 -1.23437,-1.05078 -0.13281,-0.76563 0.63672,-0.26954 1.14062,-0.6211 0.17188,-0.52344 -0.14843,-1.32031 0.625,-1.33203 0.0508,-0.82031 0.0508,-1.67578 0.0937,-2.48437 0.0195,-0.40625 0.0117,-0.77735 -0.13672,-1.11719 -0.11718,-0.27735 -0.55859,-0.47656 -0.55468,-0.82031 0.008,-0.64063 2.02343,-2.28125 2.61328,-2.57422 -0.84766,-1.71094 -3.8086,-2.13282 -5.51953,-2.13282 -2.51563,-0.004 -4.42188,1.44922 -4.9961,3.90625 -0.29687,1.27735 -0.21875,2.61719 0.25,3.8125 0.50391,1.28125 1,2.16407 0.92969,3.60157 0.33594,0.0508 0.57813,0.20703 0.91406,0.23437 0.20703,-0.9375 0.3125,-1.46875 0.10938,-2.43359 -0.17578,-0.84766 -0.11719,-1.72656 0.22656,-2.54297 0.65234,0.0195 0.45703,1.17187 0.53125,1.56641 0.0391,0.19921 0.30078,0.21093 0.30078,0.51562 0,0.12109 -0.30859,0.15234 -0.32031,0.22656 -0.0547,0.32422 0.21484,0.66797 0.46875,0.98047 0.34766,-0.38281 0.67578,1.20313 0.0273,1.69922 -0.51562,0.39453 -3.02343,0.87891 -3.5,1.19141 -0.48437,0.3164 -0.80859,0.97656 -1.13281,1.46093 -0.40234,0.60547 -0.81641,1.19532 -1.32422,1.72266 -0.60547,0.62109 -0.9414,0.59766 -1.6914,0.87891 -2.03907,0.75781 -2.87891,3.1914 -4.78125,4.14453 -1.16797,0.58594 -1.69532,-0.40625 -2.6211,-0.41797 l -4.02344,-15.42188 c 5.07813,-5.5625 12.38282,-9.05859 20.48829,-9.05859 15.29296,0 27.73046,12.44141 27.73046,27.73047 0,11.74219 -7.33593,21.79297 -17.66015,25.83203 m -5.13281,-23.86719 c -0.375,-1.51562 -0.48829,-3.0664 -0.53516,-4.66406 0.21094,0.51953 0.52734,1.21484 1.02344,2.16406 0.46093,0.88282 -0.0742,1.64063 -0.48828,2.5 m -2.27344,19.95703 c -0.10156,-1.17578 -0.0586,-2.44921 0.0625,-3.61328 0.0742,-0.73047 0.30078,-1.53125 0.3789,-2.29687 -0.0469,2.88281 -0.26953,6.15625 0.89063,8.80469 0.15234,0.35156 0.42187,0.70703 0.75,1.01562 l -1.26172,0 c -0.27734,-1.26953 -0.70312,-2.57031 -0.82031,-3.91016 m -8.14453,-19.28515 c -0.004,1.76172 0.85937,3.3164 0.85937,5.125 0,1.57812 -0.22265,3.13281 -0.14453,4.69531 0.12891,0.0391 0.39453,0.0391 0.52344,0 0.32031,-1.36719 0.16797,-3 0.16797,-4.44922 0,-1.33594 -0.3086,-3.17969 0.3164,-4.34765 0.41797,2.33984 0.0742,5.12109 0.0742,7.54296 0,1.71875 -0.13281,3.09375 -0.625,4.62891 -0.38672,1.22266 -0.40234,2.46875 -0.46484,3.8125 -0.0625,1.36719 -0.0703,3.00391 -0.55078,4.23828 -0.3086,0.79688 -0.82813,1.34766 -1.34375,1.94922 l -2.21485,0 -6.90234,-26.46875 c 0.23828,-0.004 0.46875,-0.0195 0.62891,-0.043 0.57812,-0.0859 0.86718,-0.46484 1.38671,-0.78125 1.00782,-0.60547 2.05469,-0.94922 3.125,-1.30859 1.03907,-0.35156 1.83204,-1.05469 2.52344,-1.85938 0.72266,-0.83593 1.65625,-0.90234 2.41016,-1.63281 0.008,0.27344 -0.0742,0.51172 -0.0859,0.75 -0.10937,2.80078 0.32031,5.34375 0.31641,8.14844 M 169.73828,396.625 c 0,-6.91016 2.55078,-13.23438 6.75,-18.09766 l 3.81641,15.01172 c -1.44141,0.65235 0.0664,1.10938 0.35156,2.33203 0,0.043 0.10547,0.0703 0.26172,0.0899 l 6.73437,26.49609 -0.25,0 C 177.07812,418.41797 169.73828,408.36719 169.73828,396.625 m 27.73438,-34.49609 c -8.5625,0 -16.40235,3.14453 -22.44141,8.33203 l -1.14844,-4.41407 0.0859,-1.62109 -1.89063,-3.9375 0.28516,4.50391 0.97266,1.13281 1.20703,4.75781 c -7.08985,6.32031 -11.56641,15.51953 -11.56641,25.74219 0,19.02344 15.47656,34.49609 34.4961,34.49609 19.01953,0 34.49609,-15.47265 34.49609,-34.49609 0,-19.01953 -15.47656,-34.49609 -34.49609,-34.49609"
       id="path7"
       inkscape:connector-curvature="0" />
    <path
       style="fill:#262323;fill-opacity:1;fill-rule:nonzero;stroke:none"
       d="m 459.83984,440.05469 -217.9375,0 0,-89.12891 217.9375,0 z m 0,0"
       id="path9"
       inkscape:connector-curvature="0" />
    <path
       style="fill:#ffffff;fill-opacity:1;fill-rule:nonzero;stroke:none"
       d="m 278.30859,385.23437 1.85157,1.03125 c -0.41797,1.58204 -1.25391,2.80469 -2.51954,3.67188 -1.26171,0.86719 -2.71484,1.30078 -4.35156,1.30078 -2.15234,0 -3.8789,-0.69922 -5.17969,-2.09375 -1.30078,-1.39453 -1.94921,-3.12109 -1.94921,-5.17578 0,-2.25391 0.65234,-4.04688 1.96093,-5.37891 1.30469,-1.33593 3.01172,-2.0039 5.11328,-2.0039 1.85938,0 3.42188,0.50781 4.6875,1.52343 l 0,-1.29687 1.83985,0 0,4.5625 -1.83985,0 c -0.40625,-0.92578 -1.03906,-1.64063 -1.88671,-2.14844 -0.85157,-0.50781 -1.7461,-0.76172 -2.6875,-0.76172 -1.41407,0 -2.57813,0.51172 -3.48438,1.53125 -0.91016,1.02344 -1.36328,2.3125 -1.36328,3.8711 0,1.60156 0.48437,2.90625 1.45703,3.92187 0.97266,1.01172 2.12891,1.51953 3.46094,1.51953 1.09765,0 2.09375,-0.35156 2.99219,-1.05468 0.89843,-0.70704 1.53125,-1.71094 1.89843,-3.01954"
       id="path11"
       inkscape:connector-curvature="0" />
    <path
       style="fill:#ffffff;fill-opacity:1;fill-rule:nonzero;stroke:none"
       d="m 290.01172,384.35547 -1.89063,-5.94141 -0.1914,0 -1.96875,5.94141 z m 0.53515,1.66797 -5.11328,0 -1.08984,3.21484 1.72656,0 0,1.77734 -5.59375,0 0,-1.77734 1.71875,0 3.875,-10.82422 -1.71484,0 0,-1.60156 7.25781,0 0,1.60156 -1.77344,0 3.97266,10.82422 1.58984,0 0,1.77734 -5.5625,0 0,-1.77734 1.76563,0 z m 0,0"
       id="path13"
       inkscape:connector-curvature="0" />
    <path
       style="fill:#ffffff;fill-opacity:1;fill-rule:nonzero;stroke:none"
       d="m 297.64844,389.23828 0,-10.65234 -1.83594,0 0,-1.77344 11.80078,0 0,4.27734 -1.75391,0 0,-2.5039 -6.0664,0 0,4.23047 5.27734,0 0,1.77734 -5.27734,0 0,4.64453 6.0664,0 0,-2.58203 1.75391,0 0,4.35937 -11.80078,0 0,-1.77734 z m 0,0"
       id="path15"
       inkscape:connector-curvature="0" />
    <path
       style="fill:#ffffff;fill-opacity:1;fill-rule:nonzero;stroke:none"
       d="m 309.03125,391.01562 0,-5.15625 1.77734,0 0,1.25391 c 0.85157,1.54688 1.96485,2.31641 3.33985,2.31641 0.69922,0 1.29297,-0.21094 1.77734,-0.64063 0.48438,-0.42969 0.72266,-0.99219 0.72266,-1.6875 0,-0.67187 -0.19532,-1.15625 -0.58985,-1.45312 -0.39453,-0.29688 -1.14062,-0.58985 -2.23828,-0.88282 -1.26953,-0.33984 -2.21484,-0.66406 -2.82422,-0.96484 -0.61328,-0.30469 -1.10547,-0.73437 -1.46875,-1.29687 -0.36328,-0.5625 -0.54687,-1.22657 -0.54687,-1.9961 0,-1.1914 0.39844,-2.14453 1.1914,-2.85547 0.79297,-0.71093 1.78907,-1.0664 2.98438,-1.0664 1.14062,0 2.19531,0.36718 3.16797,1.10156 l 0,-0.94922 1.73437,0 0,4.3125 -1.73437,0 0,-0.99219 c -0.72656,-1.09765 -1.73047,-1.64453 -3.01172,-1.64453 -0.77734,0 -1.37109,0.17969 -1.78906,0.53906 -0.41407,0.35547 -0.6211,0.78125 -0.6211,1.27735 0,0.38281 0.10547,0.71875 0.31641,1.00781 0.21094,0.28906 0.48047,0.5 0.80469,0.63672 0.32812,0.13672 0.97265,0.32812 1.93359,0.57031 1.25,0.32813 2.16016,0.63281 2.72266,0.91406 0.5664,0.28125 1.05468,0.75391 1.46093,1.41407 0.41016,0.66015 0.61329,1.41797 0.61329,2.27734 0,1.21094 -0.42579,2.21484 -1.28125,3.00391 -0.85547,0.78906 -1.91016,1.18359 -3.17188,1.18359 -1.29297,0 -2.45703,-0.46484 -3.49219,-1.39844 l 0,1.17578 z m 0,0"
       id="path17"
       inkscape:connector-curvature="0" />
    <path
       style="fill:#ffffff;fill-opacity:1;fill-rule:nonzero;stroke:none"
       d="m 328.78125,384.35547 -1.89063,-5.94141 -0.1914,0 -1.96875,5.94141 z m 0.53516,1.66797 -5.11719,0 -1.08594,3.21484 1.72656,0 0,1.77734 -5.59375,0 0,-1.77734 1.71485,0 3.8789,-10.82422 -1.71484,0 0,-1.60156 7.25781,0 0,1.60156 -1.77344,0 3.97266,10.82422 1.58984,0 0,1.77734 -5.5664,0 0,-1.77734 1.76953,0 z m 0,0"
       id="path19"
       inkscape:connector-curvature="0" />
    <path
       style="fill:#ffffff;fill-opacity:1;fill-rule:nonzero;stroke:none"
       d="m 338.36719,382.60156 1.67578,0 c 0.80859,0 1.40625,-0.0547 1.79297,-0.16015 0.38281,-0.10547 0.69531,-0.32032 0.9414,-0.64063 0.2461,-0.32422 0.36719,-0.75781 0.36719,-1.30469 0,-0.46093 -0.125,-0.85156 -0.37109,-1.17187 -0.25,-0.32031 -0.55469,-0.52344 -0.91797,-0.60938 -0.36719,-0.0859 -0.92188,-0.1289 -1.67188,-0.1289 l -1.8164,0 z m -2.14453,6.63672 0,-10.65234 -1.94922,0 0,-1.77344 5.76953,0 c 1.20312,0 2.16015,0.0937 2.86719,0.28125 0.71093,0.1875 1.29296,0.58203 1.75781,1.18359 0.46094,0.60157 0.6914,1.35157 0.6914,2.25 0,1.87891 -0.97265,3.0586 -2.92578,3.54297 l 2.50782,5.16797 1.73828,0 0,1.77734 -3.07813,0 -3.23047,-6.63671 -2.0039,0 0,4.85937 1.8164,0 0,1.77734 -5.91015,0 0,-1.77734 z m 0,0"
       id="path21"
       inkscape:connector-curvature="0" />
    <path
       style="fill:#ffffff;fill-opacity:1;fill-rule:nonzero;stroke:none"
       d="m 364.90625,385.23437 1.84766,1.03125 c -0.41407,1.58204 -1.25391,2.80469 -2.51954,3.67188 -1.26171,0.86719 -2.71484,1.30078 -4.35156,1.30078 -2.15234,0 -3.8789,-0.69922 -5.17578,-2.09375 -1.30078,-1.39453 -1.95312,-3.12109 -1.95312,-5.17578 0,-2.25391 0.65625,-4.04688 1.96093,-5.37891 1.30469,-1.33593 3.01172,-2.0039 5.11719,-2.0039 1.85547,0 3.41797,0.50781 4.68359,1.52343 l 0,-1.29687 1.83985,0 0,4.5625 -1.83985,0 c -0.40625,-0.92578 -1.03906,-1.64063 -1.88671,-2.14844 -0.85157,-0.50781 -1.7461,-0.76172 -2.6875,-0.76172 -1.41407,0 -2.57813,0.51172 -3.48438,1.53125 -0.91016,1.02344 -1.36328,2.3125 -1.36328,3.8711 0,1.60156 0.48437,2.90625 1.45703,3.92187 0.97656,1.01172 2.12891,1.51953 3.46094,1.51953 1.09765,0 2.09375,-0.35156 2.99609,-1.05468 0.89844,-0.70704 1.53125,-1.71094 1.89844,-3.01954"
       id="path23"
       inkscape:connector-curvature="0" />
    <path
       style="fill:#ffffff;fill-opacity:1;fill-rule:nonzero;stroke:none"
       d="m 372.11328,382.60156 1.67578,0 c 0.8086,0 1.40625,-0.0547 1.79297,-0.16015 0.38281,-0.10547 0.69922,-0.32032 0.94141,-0.64063 0.24609,-0.32422 0.36718,-0.75781 0.36718,-1.30469 0,-0.46093 -0.125,-0.85156 -0.37109,-1.17187 -0.25,-0.32031 -0.55469,-0.52344 -0.91797,-0.60938 -0.36719,-0.0859 -0.92187,-0.1289 -1.67187,-0.1289 l -1.81641,0 z m -2.14453,6.63672 0,-10.65234 -1.94922,0 0,-1.77344 5.76953,0 c 1.20313,0 2.16016,0.0937 2.86719,0.28125 0.71094,0.1875 1.29297,0.58203 1.75781,1.18359 0.46094,0.60157 0.69141,1.35157 0.69141,2.25 0,1.87891 -0.97266,3.0586 -2.92578,3.54297 l 2.50781,5.16797 1.73828,0 0,1.77734 -3.07812,0 -3.23047,-6.63671 -2.00391,0 0,4.85937 1.81641,0 0,1.77734 -5.91016,0 0,-1.77734 z m 0,0"
       id="path25"
       inkscape:connector-curvature="0" />
    <path
       style="fill:#ffffff;fill-opacity:1;fill-rule:nonzero;stroke:none"
       d="m 382.79297,389.23828 0,-10.65234 -1.83594,0 0,-1.77344 11.80078,0 0,4.27734 -1.7539,0 0,-2.5039 -6.06641,0 0,4.23047 5.28125,0 0,1.77734 -5.28125,0 0,4.64453 6.06641,0 0,-2.58203 1.7539,0 0,4.35937 -11.80078,0 0,-1.77734 z m 0,0"
       id="path27"
       inkscape:connector-curvature="0" />
    <path
       style="fill:#ffffff;fill-opacity:1;fill-rule:nonzero;stroke:none"
       d="m 395.86328,389.23828 0,-10.65234 -1.83984,0 0,-1.77344 11.80468,0 0,4.27734 -1.7539,0 0,-2.5039 -6.06641,0 0,4.23047 5.27735,0 0,1.77734 -5.27735,0 0,4.64453 6.06641,0 0,-2.58203 1.7539,0 0,4.35937 -11.80468,0 0,-1.77734 z m 0,0"
       id="path29"
       inkscape:connector-curvature="0" />
    <path
       style="fill:#ffffff;fill-opacity:1;fill-rule:nonzero;stroke:none"
       d="m 410.89453,383.51562 4.55078,-4.92968 -1.62109,0 0,-1.77344 5.5625,0 0,1.77344 -1.51172,0 -4.37109,4.92968 4.49609,5.72266 1.51953,0 0,1.77734 -5.76953,0 0,-1.77734 1.53516,0 z m -2.21875,5.72266 0,-10.65234 -1.77344,0 0,-1.77344 5.7461,0 0,1.77344 -1.82813,0 0,10.65234 1.63672,0 0,1.77734 -5.55469,0 0,-1.77734 z m 0,0"
       id="path31"
       inkscape:connector-curvature="0" />
    <path
       style="fill:#d93035;fill-opacity:1;fill-rule:nonzero;stroke:none"
       d="m 265.99609,413.01562 0,-5.15625 1.77735,0 0,1.25391 c 0.85156,1.54688 1.96484,2.32031 3.33984,2.32031 0.69922,0 1.29297,-0.21875 1.77734,-0.64453 0.48047,-0.42969 0.72266,-0.99219 0.72266,-1.68359 0,-0.67578 -0.19531,-1.16016 -0.59375,-1.45703 -0.39062,-0.29688 -1.13672,-0.58985 -2.23437,-0.88282 -1.27344,-0.33984 -2.21485,-0.66015 -2.82813,-0.96484 -0.61328,-0.30469 -1.10156,-0.73437 -1.46484,-1.29687 -0.36328,-0.5625 -0.54688,-1.22657 -0.54688,-1.9961 0,-1.1914 0.39844,-2.14062 1.19141,-2.85156 0.79297,-0.71094 1.78906,-1.07031 2.98437,-1.07031 1.13672,0 2.19141,0.36718 3.16407,1.10547 l 0,-0.94922 1.73828,0 0,4.30468 -1.73828,0 0,-0.98828 c -0.72657,-1.09765 -1.73047,-1.64453 -3.01172,-1.64453 -0.77344,0 -1.3711,0.17969 -1.78516,0.53516 -0.41406,0.35937 -0.625,0.78515 -0.625,1.28515 0,0.37891 0.10938,0.71485 0.32031,1.00391 0.21094,0.28906 0.47657,0.50391 0.80469,0.63672 0.32813,0.13672 0.96875,0.32812 1.92969,0.57422 1.2539,0.32422 2.16406,0.625 2.72656,0.91015 0.56641,0.28516 1.05078,0.75391 1.46094,1.41407 0.40625,0.66015 0.61328,1.42187 0.61328,2.27734 0,1.21484 -0.42969,2.21484 -1.28516,3.00391 -0.85156,0.78906 -1.91015,1.18359 -3.16797,1.18359 -1.29296,0 -2.45703,-0.46484 -3.49218,-1.39844 l 0,1.17578 z m 0,0"
       id="path33"
       inkscape:connector-curvature="0" />
    <path
       style="fill:#d93035;fill-opacity:1;fill-rule:nonzero;stroke:none"
       d="m 279.75,405.85547 c 0,1.5625 0.45703,2.86719 1.36719,3.92187 0.91406,1.05469 2.11328,1.58203 3.59375,1.58203 1.47265,0 2.67968,-0.53906 3.625,-1.61718 0.94531,-1.07813 1.42187,-2.36719 1.42187,-3.86328 0,-1.51172 -0.48437,-2.79297 -1.44531,-3.83594 -0.96484,-1.04297 -2.17188,-1.56641 -3.62891,-1.56641 -1.45312,0 -2.63672,0.51563 -3.55468,1.53906 -0.91797,1.02735 -1.37891,2.3086 -1.37891,3.83985 m -2.33984,-0.008 c 0,-2.0625 0.67578,-3.78907 2.02343,-5.17969 1.34766,-1.38672 3.10547,-2.08203 5.26953,-2.08203 2.1836,0 3.96485,0.69531 5.33985,2.08203 1.375,1.39062 2.0625,3.1289 2.0625,5.21875 0,2.1289 -0.69922,3.89062 -2.09766,5.27344 -1.39844,1.38671 -3.17969,2.07812 -5.33594,2.07812 -1.375,0 -2.64062,-0.32812 -3.79296,-0.98437 -1.15235,-0.65625 -2.01954,-1.57422 -2.59766,-2.7461 -0.58203,-1.17578 -0.87109,-2.39453 -0.87109,-3.66015"
       id="path35"
       inkscape:connector-curvature="0" />
    <path
       style="fill:#d93035;fill-opacity:1;fill-rule:nonzero;stroke:none"
       d="m 295.3125,411.23828 0,-10.64844 -1.79688,0 0,-1.77734 11.01563,0 0,4.27734 -1.75781,0 0,-2.5 -5.32032,0 0,4.20703 4.58594,0 0,1.77344 -4.58594,0 0,4.66797 1.82032,0 0,1.77344 -5.75782,0 0,-1.77344 z m 0,0"
       id="path37"
       inkscape:connector-curvature="0" />
    <path
       style="fill:#d93035;fill-opacity:1;fill-rule:nonzero;stroke:none"
       d="m 309.60547,411.23828 0,-10.64844 -2.92969,0 0,3.625 -1.75781,0 0,-5.40234 11.50781,0 0,5.40234 -1.75781,0 0,-3.625 -2.91797,0 0,10.64844 1.84766,0 0,1.77344 -5.8086,0 0,-1.77344 z m 0,0"
       id="path39"
       inkscape:connector-curvature="0" />
    <path
       style="fill:#d93035;fill-opacity:1;fill-rule:nonzero;stroke:none"
       d="m 321.98437,413.15625 -3.61718,-12.56641 -1.70703,0 0,-1.77734 5.43359,0 0,1.77734 -1.70313,0 2.6875,9.28907 2.58204,-9.28907 -1.6875,0 0,-1.77734 6.52343,0 0,1.77734 -1.66797,0 2.59375,9.28907 2.63672,-9.28907 -1.69531,0 0,-1.77734 5.23047,0 0,1.77734 -1.67578,0 -3.54688,12.56641 -2.03125,0 -3.19922,-11.23047 -3.17578,11.23047 z m 0,0"
       id="path41"
       inkscape:connector-curvature="0" />
    <path
       style="fill:#d93035;fill-opacity:1;fill-rule:nonzero;stroke:none"
       d="m 346.10937,406.35547 -1.89062,-5.94141 -0.19531,0 -1.96875,5.94141 z m 0.53516,1.66406 -5.11719,0 -1.08593,3.21875 1.72656,0 0,1.77344 -5.59766,0 0,-1.77344 1.71875,0 3.87891,-10.82422 -1.71485,0 0,-1.60156 7.25782,0 0,1.60156 -1.77735,0 3.97657,10.82422 1.58984,0 0,1.77344 -5.56641,0 0,-1.77344 1.76563,0 z m 0,0"
       id="path43"
       inkscape:connector-curvature="0" />
    <path
       style="fill:#d93035;fill-opacity:1;fill-rule:nonzero;stroke:none"
       d="m 355.69531,404.60156 1.67578,0 c 0.8086,0 1.40625,-0.0547 1.78907,-0.16015 0.38671,-0.10547 0.69921,-0.32032 0.94531,-0.64454 0.24609,-0.32031 0.36719,-0.7539 0.36719,-1.30078 0,-0.46093 -0.125,-0.85156 -0.3711,-1.17187 -0.25,-0.32031 -0.55469,-0.52344 -0.92187,-0.60938 -0.36328,-0.0859 -0.91797,-0.1289 -1.66797,-0.1289 l -1.81641,0 z m -2.14453,6.63672 0,-10.65234 -1.94922,0 0,-1.77344 5.76953,0 c 1.20313,0 2.16016,0.0937 2.86719,0.27734 0.70703,0.19141 1.29297,0.58203 1.75781,1.1875 0.46094,0.60157 0.69141,1.35157 0.69141,2.25 0,1.87891 -0.97266,3.0586 -2.92578,3.54297 l 2.50781,5.16797 1.73828,0 0,1.77344 -3.07812,0 -3.23438,-6.63672 -2,0 0,4.86328 1.81641,0 0,1.77344 -5.91016,0 0,-1.77344 z m 0,0"
       id="path45"
       inkscape:connector-curvature="0" />
    <path
       style="fill:#d93035;fill-opacity:1;fill-rule:nonzero;stroke:none"
       d="m 366.375,411.23828 0,-10.64844 -1.83594,0 0,-1.77734 11.80078,0 0,4.27734 -1.7539,0 0,-2.5 -6.06641,0 0,4.22657 5.28125,0 0,1.77734 -5.28125,0 0,4.64453 6.06641,0 0,-2.58203 1.7539,0 0,4.35547 -11.80078,0 0,-1.77344 z m 0,0"
       id="path47"
       inkscape:connector-curvature="0" />
  </g>
</svg>
